<svg width="141" height="156" viewBox="0 0 141 156" fill="none" xmlns="http://www.w3.org/2000/svg">
<path d="M77.739 91.7349H77.9096C77.9797 91.6381 78.0475 91.5413 78.1153 91.4423C78.3441 91.397 78.5652 91.3185 78.7716 91.2092C79.487 90.6966 80.1804 90.151 80.8827 89.6208C81.8103 88.9191 82.74 88.2195 83.6632 87.5134C83.7026 87.4826 83.7004 87.3968 83.731 87.2934L82.9566 86.8798C81.2065 86.464 79.8064 85.5049 78.5091 84.2949C77.3849 83.2463 76.4526 82.0073 75.7548 80.6343C74.6093 78.4206 73.8803 76.0131 73.6043 73.5331C73.3574 71.4621 73.2368 69.3779 73.2433 67.2921C73.2937 64.8578 73.7302 62.4472 74.5363 60.1513C74.9038 59.0733 75.3479 58.0218 75.722 56.946C75.7478 56.8409 75.7491 56.7311 75.7255 56.6253C75.702 56.5196 75.6543 56.4208 75.5863 56.3367C73.1799 54.1368 73.9893 50.4366 75.8051 48.7053C76.4439 48.0937 77.0674 47.5064 78.0387 48.008C78.1933 48.9935 78.3479 49.9798 78.5025 50.9668C78.3234 50.7248 78.1121 50.5087 77.8746 50.3244C77.6187 50.1748 77.2533 50.0208 76.9996 50.0934C75.4682 50.5334 74.836 53.3295 75.9932 54.4228C76.702 55.0828 77.4174 54.9838 77.9337 54.1434C78.1131 53.8508 78.3297 53.5802 78.5288 53.2987C79.0582 52.6842 79.5869 52.0711 80.1148 51.4596C80.2198 51.442 80.3511 51.4596 80.4277 51.4068C81.6615 50.4806 82.8341 49.4753 84.1292 48.6305C85.3013 47.8182 86.557 47.1353 87.8745 46.5934C89.1477 46.1095 90.5478 45.9621 91.8933 45.6651C92.2586 45.5859 92.6283 45.4187 92.9871 45.4451C94.8882 45.5309 96.7674 45.8675 98.4563 46.765C100.778 47.9582 102.782 49.6932 104.3 51.8247C104.266 51.9688 104.256 52.1175 104.271 52.2647C104.562 53.2833 104.927 54.282 105.162 55.3137C105.442 56.5589 105.599 57.8326 105.831 59.0909C106.119 60.8147 106.052 62.5797 105.632 64.276C105.205 66.1019 104.319 67.7959 103.352 69.4018C102.659 70.5523 101.924 71.6808 101.165 72.7874C100.038 74.4241 98.8763 76.041 97.7125 77.6535C97.2181 78.3377 96.6777 78.991 96.1592 79.6576L96.297 79.783C96.7608 79.4112 97.2399 79.0548 97.6862 78.6633C98.9463 77.5523 100.185 76.4172 101.449 75.3106C102.296 74.5693 103.175 73.8697 104.028 73.1372C105.761 71.6456 107.489 70.1483 109.213 68.645C109.342 68.865 109.574 69.085 109.589 69.305C109.672 70.6249 109.705 71.9448 109.756 73.2515C109.756 74.2987 109.751 75.3444 109.74 76.3886C109.74 76.5624 109.74 76.7384 109.74 76.9121C109.74 77.2157 109.74 77.5193 109.74 77.8229L109.622 78.2255C109.622 78.7447 109.622 79.266 109.607 79.7874C109.567 79.9238 109.528 80.058 109.491 80.1922C109.449 80.4122 109.41 80.6321 109.368 80.8521V81.1139L109.244 82.2953C109.244 82.3811 109.244 82.469 109.244 82.557L108.994 84.1321C108.953 84.2663 108.911 84.4005 108.872 84.5347C108.872 84.9219 108.85 85.3069 108.841 85.6941L108.609 86.1076C108.563 86.4552 108.52 86.8028 108.474 87.1504C108.434 87.2406 108.393 87.3308 108.353 87.4232C108.005 88.9367 107.717 90.4678 107.29 91.9571C106.923 93.1325 106.494 94.2876 106.006 95.4175C105 97.9232 103.589 100.083 101.206 101.542C99.5205 102.576 97.6806 103.332 95.7567 103.779C93.4925 104.305 91.1757 104.408 88.848 104.347C85.9253 104.27 83.0682 103.931 80.2636 102.989C78.4194 102.371 76.8924 101.309 75.3129 100.266C74.6741 99.8459 73.9412 99.5709 73.2499 99.2299C72.6308 98.8625 72.3333 97.195 72.7795 96.4779C73.1427 95.8993 73.543 95.3449 73.9281 94.7796C74.0699 94.7479 74.2063 94.6953 74.3328 94.6234C75.4135 93.7566 76.4811 92.8789 77.5552 92.0033L77.739 91.7349ZM84.7855 74.5341C85.0787 74.8531 85.3937 75.1544 85.6606 75.4954C86.295 76.3028 87.2116 76.6328 88.1326 76.7362C90.1015 76.9561 92.0136 76.6856 93.7484 75.546C94.8974 74.8078 95.9187 73.8856 96.7718 72.816C98.3994 70.7525 98.8107 68.3678 98.6291 65.7962C98.4958 64.1321 97.957 62.5266 97.0605 61.1214C96.9227 60.9014 96.623 60.7782 96.3824 60.6132L96.1417 60.2151C96.0608 60.1447 95.9536 60.0897 95.9055 59.9951C94.8663 58.1384 93.3612 57.0846 91.1757 57.1836L91.1451 57.2078L90.9416 56.9219C90.6157 57.0033 90.2853 57.1154 89.9594 57.1638C88.4717 57.3838 87.1154 57.9096 86.0215 58.9523C85.3806 59.5661 84.9015 60.3493 84.3502 61.0576L84.1598 61.3854L83.5035 62.8373L83.3001 63.3565C83.2826 63.4467 83.2629 63.5347 83.2454 63.6249L83.1251 64.0099L83.0879 65.1692C82.9706 65.3633 82.8871 65.5761 82.8407 65.7984C82.7838 66.8675 82.7838 67.9389 82.8407 69.008C82.9457 70.2839 83.0988 71.573 83.8601 72.6752L84.5164 74.1029L84.7855 74.5341ZM81.2043 59.4935C81.4427 60.2701 82.7357 60.8024 83.4117 60.4219C83.5642 60.3376 83.6814 60.201 83.742 60.0369C84.0793 58.9192 84.0717 57.7249 83.7201 56.6117C83.4685 57.4146 83.2826 58.0922 83.0419 58.7434C82.7138 59.6167 81.8825 59.3967 81.2043 59.4825V59.4935ZM84.8643 55.9737L84.7855 56.1805C85.0684 56.4897 85.3773 56.7737 85.7087 57.0296C85.9515 57.188 86.3387 57.3288 86.5706 57.2496C86.7053 57.1725 86.8221 57.0676 86.9134 56.9417C87.0047 56.8157 87.0683 56.6718 87.1001 56.5193C87.1701 56.0662 87.1745 55.6053 87.1132 55.151C87.0869 54.8826 86.936 54.6274 86.7785 54.194C86.5597 54.8782 86.4678 55.3753 86.2447 55.8043C85.9297 56.3851 85.3434 55.9869 84.8643 55.9583V55.9737Z" fill="#CF4A32"/>
<path d="M120.646 117.947C120.53 118.316 120.427 118.686 120.298 119.046C120.158 119.473 120.298 119.678 120.749 119.77C123.475 120.344 126.218 120.883 128.915 121.546C130.333 121.889 131.714 122.367 133.041 122.973C134.412 123.621 135.724 124.389 136.962 125.268C138.101 126.068 138.456 127.604 137.309 128.746C136.034 130.017 134.514 130.822 132.873 131.399C130.974 132.059 129.044 132.653 127.1 133.159C125.155 133.665 123.19 134.109 121.21 134.457C118.342 134.965 115.455 135.37 112.571 135.803C110.519 136.111 108.465 136.412 106.406 136.683C105.293 136.826 104.168 136.887 103.048 136.973C100.786 137.149 98.5256 137.32 96.2665 137.486C96.028 137.503 95.7874 137.486 95.5489 137.503C93.0637 137.668 90.5785 137.853 88.0911 138.001C86.6845 138.084 85.2756 138.139 83.8667 138.148C76.9376 138.201 70.01 138.24 63.0838 138.265C60.9793 138.265 58.8748 138.203 56.7724 138.139C54.67 138.075 52.6158 138.016 50.5397 137.873C48.2295 137.715 45.9281 137.451 43.6179 137.261C42.174 137.143 40.7236 137.096 39.2798 136.978C37.5296 136.835 35.7992 136.645 34.06 136.478C33.4802 136.421 32.8961 136.397 32.3098 136.316C30.6603 136.096 29.013 135.827 27.3635 135.594C25.9131 135.392 24.4561 135.224 23.0056 135.007C22.3822 134.914 21.7718 134.723 21.1527 134.602C19.3347 134.245 17.4993 133.97 15.6988 133.535C13.9356 133.11 12.1985 132.567 10.4703 131.995C9.33487 131.621 8.1754 131.227 7.14938 130.631C6.08836 130.017 4.94421 129.476 4.17633 128.414C3.40846 127.351 3.76286 126.128 4.84795 125.215C5.7606 124.422 6.81069 123.804 7.9457 123.393C9.37862 122.89 10.7897 122.307 12.2445 121.887C14.1521 121.334 16.0926 120.899 18.0221 120.428C19.0131 120.188 20.0107 119.988 21.0083 119.768C21.3693 119.693 21.5924 119.522 21.5683 119.121C21.6419 119.272 21.6998 119.43 21.7412 119.592C21.774 119.812 21.7062 120.067 21.7674 120.281C22.4967 122.831 23.4864 125.298 24.7208 127.644C24.8345 127.864 25.1058 127.998 25.3049 128.174L25.504 128.209C25.6663 128.32 25.8471 128.4 26.0378 128.447C26.6941 128.469 27.3679 128.447 28.0329 128.447L29.4724 128.471L30.5137 128.451L31.542 128.436L32.6205 128.238L34.294 128.183H37.1643L38.2122 128.211L39.2535 128.191L40.3036 128.088L41.7343 128.046L43.9461 127.927H46.2934L46.6894 127.96L47.7329 127.936L49.82 127.831L50.9926 127.811L55.5626 127.699C55.6392 127.734 55.7158 127.802 55.7814 127.8C57.1268 127.762 58.4744 127.723 59.8198 127.663C59.9205 127.663 60.0167 127.496 60.113 127.408L62.3357 127.292L63.6351 127.265L64.8121 127.289L65.9891 127.261L66.8904 127.14L69.3734 127.098L71.7252 127.021L73.1559 126.999H73.8122L74.0769 127.032L75.1379 126.931C75.1736 126.929 75.2094 126.929 75.2451 126.931L75.4048 127.014C75.4252 127.009 75.444 126.998 75.4599 126.984C75.4758 126.97 75.4884 126.953 75.4967 126.933L75.7899 126.92L77.3387 127.032H78.5135L79.1829 126.931L79.557 126.896L79.8174 126.882L82.296 126.77L83.2236 126.66L83.7311 126.636L84.7768 126.607L86.201 126.48L86.5926 126.519L88.8175 126.482H89.069L91.5564 126.361L95.2076 126.255C95.2998 126.305 95.3996 126.34 95.503 126.357C96.8156 126.319 98.1435 126.28 99.4627 126.218C99.5699 126.218 99.6705 126.057 99.7733 125.972L100.163 125.939L100.432 125.855H102.775H103.033L104.472 125.73C105.039 126.123 105.601 125.87 106.164 125.73L108.485 125.699L109.966 125.508L110.342 125.492L111.777 125.45L113.072 125.334L114.256 125.358L115.048 125.228L116.078 125.074C116.465 124.751 116.863 124.441 117.238 124.1C118.307 123.127 119.04 121.9 119.71 120.639C119.928 120.217 120.123 119.759 119.81 119.288L120.646 117.947Z" fill="#AF7280"/>
<path d="M30.2709 38.973C30.9097 37.5123 31.45 35.9988 32.2048 34.6019C33.5502 32.1138 35.4666 30.1053 37.7265 28.4092C39.1988 27.3093 40.7126 26.2951 42.419 25.611C44.0226 24.9664 45.6305 24.3329 47.2538 23.7499C47.8576 23.5299 48.5161 23.4727 49.1505 23.3407C49.5783 23.5376 50.0165 23.7109 50.4631 23.8599C51.5132 24.1503 52.5742 24.3944 53.6287 24.6584L53.8606 24.6694L54.285 24.918H54.9281C55.4357 25.3162 55.7507 25.16 55.9848 24.5924C56.4741 23.494 56.5126 22.2457 56.092 21.1188C55.5648 19.6889 54.495 19.2533 53.248 19.9903C53.0949 18.9409 53.749 18.2304 54.274 17.4516C55.9192 17.522 57.0217 18.457 57.9493 19.7241C58.6081 20.5896 58.9896 21.6361 59.0432 22.7247C59.0943 23.8572 58.8347 24.982 58.2928 25.9762C58.1178 26.2995 58.1287 26.4821 58.4722 26.6471C58.7741 26.7923 59.0541 26.9881 59.3472 27.1597L63.2851 29.4872C63.3069 29.5686 63.3026 29.6786 63.3551 29.727C64.5218 30.8093 65.6988 31.8858 66.886 32.9564C67.0331 33.0603 67.1882 33.1522 67.3498 33.2314C67.2863 32.6088 67.2338 32.1182 67.1835 31.6299L67.3388 31.4099L67.5992 31.2383L67.9798 30.8665L68.7652 29.7886L68.9489 29.3486L68.9905 28.9922C68.9905 28.4268 68.9905 27.8593 68.9905 27.2939L68.9533 26.9331C68.903 26.7835 68.8527 26.6339 68.8046 26.4821L68.3233 25.479L68.1286 25.1776L67.7239 24.874L67.4198 24.7002L66.6803 24.7178C66.5556 23.4397 67.5554 22.8237 68.2467 22.0296C69.2649 22.4966 70.1179 23.2638 70.6925 24.2295C71.6748 25.8596 72.2851 27.6107 71.9679 29.54C71.8656 30.2237 71.5982 30.8717 71.1891 31.4275C70.4562 32.3492 69.6577 33.2556 68.5223 33.7351C68.1111 33.9089 68.1308 34.1751 68.3167 34.5227C69.1918 36.0912 70.1522 37.6135 70.8697 39.2458C71.4566 40.6677 71.9135 42.1404 72.2348 43.6456C72.6505 45.4165 72.9655 47.2138 73.228 49.0155C73.6071 51.8036 73.6893 54.6244 73.473 57.43C73.3495 59.7091 72.9378 61.963 72.248 64.1375C71.8031 65.424 71.2732 66.6793 70.6619 67.8949C70.2594 68.722 69.6818 69.4634 69.2137 70.2597C69.1183 70.4866 69.055 70.7258 69.0255 70.9703C68.8068 71.0781 68.5727 71.1727 68.3692 71.2981C68.1658 71.4235 67.9317 71.6104 67.702 71.7688C66.8269 72.0152 65.9628 72.2704 65.0899 72.5102C63.7313 72.8798 62.3881 73.4078 61.0055 73.5595C59.0191 73.7795 57.0217 74.0281 54.9916 73.7619C53.0227 73.5067 51.0538 73.4209 49.1855 72.662C47.8619 72.1274 46.5056 71.6632 45.2149 71.0605C44.0679 70.5189 42.9578 69.9015 41.8918 69.2126C39.848 67.88 37.9891 66.2806 36.3635 64.4564C35.3063 63.3416 34.4214 62.0736 33.7383 60.6946C33.1892 59.5265 32.5614 58.3958 32.0648 57.2078C31.6974 56.3106 31.4047 55.3842 31.1897 54.4382C30.9337 53.3669 30.7522 52.2757 30.5946 51.1824C30.4087 49.8976 30.1834 48.6041 30.1571 47.3084C30.0915 44.6685 30.0258 42.0287 30.5028 39.4218C30.5224 39.2854 30.3518 39.1204 30.2709 38.973ZM59.7432 31.2383L59.997 30.9721L60.7714 30.4529L60.5527 30.1779C60.3492 30.2527 60.1479 30.3319 59.9423 30.3979C58.9206 30.7455 58.0106 30.2483 57.8881 29.276L57.5358 28.7546L57.3761 28.836L57.5096 29.2562C57.5534 29.562 57.5971 29.87 57.643 30.1757C57.643 30.3759 57.5818 30.6157 57.6605 30.7719C57.8487 31.1547 58.0259 31.6892 58.3475 31.8212C58.8747 32.0412 59.4413 31.808 59.7388 31.2295L59.7432 31.2383ZM61.6881 32.2854C61.7143 32.6286 61.7406 32.974 61.769 33.3194C61.769 33.4645 61.7931 33.6075 61.804 33.7593C61.664 33.7153 61.524 33.6669 61.384 33.6273L58.9535 32.9542L58.5575 32.8486L58.039 32.8244L57.643 32.7276L55.696 32.8178L54.3834 33.4777C54.0355 33.4667 53.6917 33.5559 53.3925 33.7348C53.0933 33.9137 52.8511 34.1749 52.6945 34.4875C52.537 34.5513 52.3314 34.5733 52.2329 34.6877C51.6291 35.4048 51.0122 36.1154 50.4675 36.8876C49.9577 37.6025 49.5333 38.3791 49.0695 39.1292L48.6495 39.3954C48.212 40.4272 47.6607 41.4259 47.3544 42.4951C46.6243 44.9846 46.4011 47.5966 46.6981 50.1748C46.8862 51.7653 47.2625 53.3009 48.1092 54.6648C48.9252 55.9847 49.9752 57.1066 51.3754 57.8128C52.3861 58.3232 53.4099 58.871 54.4928 59.1635C55.9542 59.5573 57.4768 59.7267 58.9753 59.9775C59.1907 60.0039 59.4091 59.9927 59.6207 59.9445C59.9073 59.8917 60.1873 59.7993 60.4717 59.7245C61.5655 59.4495 62.5719 59.0645 63.4185 58.2308C64.6951 56.9607 65.6891 55.4326 66.3347 53.7474C66.7897 52.5815 67.0829 51.3496 67.4482 50.1462C67.6035 49.6601 67.761 49.1761 67.9076 48.6855C67.8423 48.6417 67.7727 48.6049 67.6998 48.5755C67.8157 47.986 67.9361 47.3942 68.0498 46.8024C68.3955 45.0748 68.2731 43.2855 67.6954 41.6217L67.1813 40.4404C67.0982 40.1698 67.0172 39.8992 66.9341 39.6286C65.9818 37.492 64.4359 35.6777 62.4822 34.4039C62.5666 34.2167 62.6631 34.0352 62.771 33.8605C62.9241 33.6405 63.1035 33.4425 63.2719 33.2358C63.5476 32.9476 64.0464 32.7804 63.8757 32.3206C63.3704 32.3206 62.8388 32.4768 62.5281 32.2788C62.2175 32.0808 62.0731 31.5243 61.7712 30.9589C61.7362 31.4759 61.7121 31.8762 61.6924 32.2766L61.6881 32.2854Z" fill="#902E1D"/>
<path d="M109.714 73.2229C109.664 71.903 109.631 70.5831 109.548 69.2764C109.532 69.0564 109.301 68.8364 109.171 68.6164C109.301 68.3304 109.504 68.0554 109.548 67.7585C109.642 67.0787 109.659 66.3879 109.71 65.7016C110.399 67.0215 111.105 68.3414 111.77 69.6614C112.407 70.9373 112.996 72.2396 113.61 73.5287C114.376 75.1302 115.161 76.723 115.912 78.3333C116.804 80.2494 117.708 82.1655 118.537 84.1102C119.609 86.6312 120.611 89.1699 121.641 91.7173C121.664 91.7984 121.678 91.8818 121.683 91.9659C121.624 92.1681 121.586 92.3761 121.571 92.5863C121.593 93.1935 121.694 93.7984 121.687 94.4034C121.665 96.3833 121.687 98.3632 121.549 100.343C121.405 102.613 121.193 104.881 120.893 107.134C120.722 108.386 120.469 109.679 119.957 110.821C119.228 112.445 118.152 113.283 116.148 112.31C115.273 111.881 114.54 111.129 113.741 110.526C113.465 110.295 113.173 110.084 112.866 109.895C111.873 109.343 110.788 109.382 109.703 109.426L107.852 109.994L108.642 110.474C108.286 110.352 107.92 110.264 107.548 110.21C107.137 110.197 106.727 110.236 106.325 110.324C106.135 110.359 105.975 110.544 105.785 110.612C104.313 111.078 103.201 112.068 102.171 113.151C101.244 114.093 100.547 115.24 100.136 116.499C99.8104 117.546 99.4494 118.631 99.4188 119.706C99.3794 121.169 99.6376 122.639 99.7732 124.106C98.6991 124.106 97.6184 124.177 96.5486 124.106C95.3607 124.016 94.2078 123.827 93.1511 123.099C92.0945 122.37 91.3529 121.458 91.0203 120.195C90.7982 119.317 90.5213 118.455 90.1912 117.612C89.3641 115.479 87.9886 113.604 86.2053 112.181C86.0084 112.046 86.004 111.43 85.549 111.919C85.0668 111.54 84.562 111.191 84.0373 110.874C83.1622 110.414 82.2368 110.469 81.2786 110.594C79.7473 110.792 78.2859 111.063 77.1045 112.181C76.8486 112.423 76.4745 112.537 76.1551 112.711L75.9123 112.299C75.9123 112.079 75.9123 111.859 75.9123 111.653C75.9123 111.391 75.9123 111.129 75.9123 110.865L75.8991 108.773L75.665 108.1C75.665 107.842 75.665 107.583 75.665 107.323C75.665 107.064 75.665 106.8 75.665 106.536C75.665 105.964 75.641 105.392 75.6301 104.82V104.316L75.6519 104.05L75.4156 103.641V103.394L75.6672 103.262C76.2842 103.753 76.8508 104.336 77.5311 104.714C79.3294 105.713 81.1233 106.758 83.0222 107.528C84.7264 108.193 86.4927 108.685 88.2945 108.995C89.7712 109.268 91.3069 109.239 92.8186 109.292C94.8984 109.335 96.9543 108.84 98.7888 107.853C99.9173 107.235 100.954 106.46 101.867 105.55C103.037 104.435 104.212 103.267 105.105 101.934C106.728 99.5137 108.089 96.9223 108.861 94.0756C109.298 92.4235 109.69 90.7538 110.101 89.0929C110.143 89.0049 110.182 88.9169 110.224 88.8267L110.362 87.388L110.486 86.992V86.6004V86.3364L110.613 84.6315L110.738 84.1058C110.738 83.0058 110.76 81.9059 110.738 80.7883C110.725 80.014 110.657 79.2484 110.615 78.4653C110.615 78.3795 110.615 78.2915 110.615 78.2035L110.602 76.6328C110.471 75.6318 110.359 74.6287 110.191 73.6343C110.156 73.4759 109.876 73.3571 109.714 73.2229Z" fill="#AF3D29"/>
<path d="M20.7633 114.541C20.1398 111.972 19.4748 109.413 18.9103 106.841C18.51 105.02 18.195 103.176 17.9368 101.342C17.6874 99.5819 17.4796 97.7978 17.4008 96.0203C17.3046 93.7786 17.2608 91.5237 17.3724 89.2843C17.4862 87.0096 17.7749 84.7393 18.0659 82.4756C18.2956 80.6915 18.5822 78.9074 18.9519 77.1475C19.5469 74.3243 20.1938 71.5136 20.8924 68.7154C21.6362 65.728 22.4019 62.7427 23.2726 59.7905C24.2001 56.6359 25.2415 53.5164 26.2719 50.3904C26.8341 48.6701 27.4445 46.9674 28.0351 45.2581C27.9936 47.0312 27.8842 48.8065 27.9301 50.5774C27.9826 52.5067 28.0461 54.4536 28.348 56.3521C28.7549 58.9347 29.3762 61.4844 29.9406 64.0406C30.2349 65.5032 30.7358 66.916 31.4282 68.2358C32.6074 70.3961 34.2219 72.1956 36.0223 73.8301C36.2453 74.056 36.4549 74.2947 36.6502 74.5451C36.4425 74.6909 36.2229 74.819 35.9939 74.9278C33.6771 75.8342 32.1283 77.6007 30.9951 79.7038C30.1697 81.299 29.5955 83.0133 29.293 84.7855C29.0633 86.0108 28.8118 87.2054 29.0743 88.4505C28.9124 88.5297 28.6499 88.5715 28.6061 88.6947C28.4481 89.0957 28.3472 89.5171 28.3064 89.9464C28.2298 91.097 28.1423 92.2541 28.1773 93.4046C28.2581 94.9649 28.6338 96.4955 29.2843 97.9144C29.6562 98.7745 30.1834 99.5665 30.6406 100.389C30.5838 100.589 30.586 100.847 30.4591 100.977C30.1159 101.298 29.7551 101.6 29.3784 101.881C27.8451 103.101 26.5157 104.559 25.4405 106.201C24.3927 107.805 23.3119 109.391 22.3516 111.041C21.8243 111.954 21.1265 112.852 21.2577 114.028L20.7633 114.541Z" fill="#792616"/>
<path d="M77.4787 91.9725C76.4046 92.8525 75.337 93.7324 74.2563 94.5926C74.1298 94.6645 73.9934 94.7171 73.8516 94.7488C73.2006 94.0921 72.3463 93.6784 71.4298 93.5762C69.6118 93.3013 67.7654 93.1935 65.9606 92.8679C63.8167 92.4829 61.7034 91.9131 59.566 91.4776C57.3893 91.0376 55.3941 90.1114 53.4187 89.1611C51.354 88.1353 49.4333 86.8393 47.7067 85.3069C46.8672 84.6237 46.064 83.8967 45.3002 83.129C44.2567 82.0093 43.2832 80.8213 42.3272 79.6246C41.6555 78.7865 41.0627 77.8845 40.437 77.0112C40.8111 77.1937 41.1743 77.3983 41.5615 77.5501C43.2175 78.2101 44.8605 78.9008 46.5472 79.4662C48.3113 80.0964 50.1591 80.4582 52.0295 80.5398C54.5934 80.6058 57.1421 80.6212 59.6426 79.7324C61.5196 79.0724 63.2282 78.2343 64.7705 76.9474C66.289 75.6889 67.5379 74.1338 68.4414 72.376C68.6493 71.9756 68.9183 71.606 69.159 71.2211C70.4257 73.5749 71.817 75.8694 72.9262 78.2959C74.1119 80.8895 75.0941 83.5756 76.0436 86.2792C76.6386 87.9622 77.0105 89.7221 77.4809 91.449C77.4809 91.6272 77.4787 91.7987 77.4787 91.9725Z" fill="#792616"/>
<path d="M20.7632 114.541L21.262 114.013C21.3442 114.112 21.4174 114.218 21.4807 114.33C22.3755 116.334 23.3665 118.265 24.736 120.008C26.2477 121.93 27.9584 123.528 30.2577 124.463C31.8524 125.132 33.603 125.333 35.3069 125.043C36.3788 124.867 37.4508 124.667 38.5293 124.522C39.726 124.361 40.9357 124.254 42.128 124.117C43.6069 123.946 45.0858 123.785 46.5602 123.587C47.6388 123.442 48.7042 123.195 49.7849 123.079C51.7538 122.859 53.738 122.696 55.7157 122.54C58.6668 122.307 61.6224 122.1 64.567 121.88C65.0702 121.842 65.5646 121.715 66.0656 121.66C66.2586 121.638 66.4537 121.643 66.6453 121.675C67.0172 121.735 67.3804 121.851 67.7544 121.895C68.3976 121.966 69.0671 121.935 69.6884 122.058C70.4322 122.203 71.1475 122.441 71.5172 123.25C71.6726 123.589 72.0073 123.842 72.2611 124.13C72.4011 124.513 72.5542 124.892 72.6767 125.279C72.8539 125.846 73.007 126.418 73.1711 126.99L71.7404 127.012C71.4232 126.75 69.7715 126.625 69.4565 126.852C69.404 126.891 69.4105 127.008 69.3886 127.089L66.9056 127.131L66.0152 127.12L64.8186 127.142C64.3045 126.731 63.8451 126.775 63.6504 127.256L62.3509 127.283C62.2284 127.193 62.1059 127.03 61.9812 127.028C60.6686 127.008 59.356 127.006 58.0543 127.028C57.9165 127.028 57.7852 127.248 57.6496 127.373L55.5713 127.408L55.4335 127.393C55.2363 127.215 54.9808 127.116 54.7159 127.116C54.451 127.116 54.1955 127.215 53.9983 127.393H47.6103C47.5381 127.351 47.4638 127.272 47.3916 127.274C46.3655 127.309 45.3395 127.338 44.3179 127.419C44.1822 127.419 44.0729 127.738 43.9504 127.91L41.7408 128.033L40.3079 127.923L38.0874 127.789C38.0349 127.751 37.9824 127.681 37.9299 127.683C36.8076 127.716 35.6831 127.747 34.5609 127.811C34.469 127.811 34.3858 128.046 34.3005 128.172L32.6269 128.224L31.5703 128.185C31.3515 128.097 31.1196 127.934 30.8943 127.936C29.9864 127.936 29.0807 128.009 28.175 128.051L25.5104 128.207L25.3114 128.172C25.3157 128.106 25.3098 128.04 25.2939 127.976C24.5654 126.282 23.8041 124.599 23.1062 122.89C22.6402 121.741 22.1152 120.606 22.0123 119.335C21.9927 119.115 21.7323 118.928 21.5748 118.725L21.5617 118.593C21.8745 118.204 21.7629 117.951 21.3145 117.806L21.2685 117.276C21.2868 117.263 21.3015 117.247 21.3111 117.227C21.3207 117.207 21.3249 117.185 21.3232 117.163L21.4632 116.998L21.1942 116.886L20.8594 114.937L20.7763 114.805L20.7632 114.541Z" fill="#721B24"/>
<path d="M93.4837 27.6811V27.9407C93.394 27.9934 93.2649 28.022 93.2168 28.1012C92.5736 29.1 92.0289 30.1801 91.2829 31.0931C90.3065 32.3316 89.2222 33.4801 88.043 34.5249C86.4809 35.8624 84.5973 36.6984 82.6744 37.3979C81.6505 37.7719 80.5983 38.0579 79.4957 38.4165C79.3972 38.1481 79.2769 37.8731 79.1938 37.5871C78.94 36.6918 78.7169 35.7876 78.4478 34.8967C78.3887 34.6987 78.1875 34.5447 78.0518 34.3731C77.9424 31.4935 77.914 28.6116 78.4894 25.7738C78.8016 24.1356 79.2174 22.5191 79.7341 20.934C80.2023 19.5349 80.9308 18.2172 82.3725 17.5616C83.5626 17.0182 84.6367 17.4186 85.4243 18.4592C86.5663 19.9639 86.6866 21.6996 86.6385 23.4683C86.6056 24.7068 86.4569 25.941 86.365 27.1773C86.3519 27.3423 86.365 27.5095 86.365 27.6745L86.5291 27.7779C86.7478 27.5117 86.9666 27.2587 87.1635 26.9749C88.1633 25.4482 89.5656 24.4472 91.226 23.7587C92.2389 23.3319 93.3984 24.467 93.4815 25.4812C93.5362 26.1741 93.4815 26.8737 93.4815 27.5711C93.4662 27.5821 93.4378 27.5975 93.4399 27.6041C93.453 27.6306 93.4676 27.6563 93.4837 27.6811Z" fill="#FB1F53"/>
<path d="M69.1589 71.2255C68.9183 71.6104 68.6492 71.98 68.4414 72.3804C67.538 74.1364 66.2899 75.69 64.7727 76.9474C63.2303 78.2343 61.5218 79.0636 59.6448 79.7324C57.1442 80.6124 54.5956 80.6124 52.0316 80.5398C50.1613 80.4582 48.3135 80.0964 46.5493 79.4662C44.8626 78.9008 43.2197 78.2035 41.5636 77.5501C41.1764 77.3983 40.8132 77.1937 40.4392 77.0112C39.7107 76.4942 38.9931 75.9574 38.2515 75.4712C37.7396 75.1303 37.1883 74.8443 36.6545 74.5341C36.4592 74.2837 36.2495 74.045 36.0266 73.8191C34.224 72.178 32.6095 70.3851 31.4325 68.2248C30.7401 66.905 30.2392 65.4923 29.9449 64.0297C29.3805 61.4734 28.7592 58.9237 28.3522 56.3411C28.0503 54.4426 27.9869 52.4957 27.9344 50.5664C27.8885 48.7955 27.9978 47.0202 28.0394 45.2471L28.886 42.7832C29.0392 42.5808 29.1923 42.3763 29.4308 42.0639C29.4506 42.2532 29.4608 42.4433 29.4614 42.6336C29.3411 44.0394 29.1267 45.4429 29.1157 46.8464C29.1004 48.4303 29.2404 50.0164 29.3608 51.6004C29.4154 52.5957 29.5397 53.5858 29.7327 54.5636C30.1133 56.2971 30.5115 58.0372 31.0562 59.7245C31.5555 61.3323 32.1878 62.8953 32.9464 64.3971C33.7115 65.8326 34.6088 67.193 35.6263 68.4602C36.5812 69.6872 37.6524 70.8181 38.8246 71.837C39.8956 72.7491 41.0768 73.5215 42.3402 74.1359C44.0143 74.981 45.7633 75.6667 47.5644 76.184C49.0958 76.5932 50.7278 76.5448 52.3051 76.7714C54.1515 77.0354 55.976 76.844 57.794 76.602C58.9946 76.4727 60.1791 76.2214 61.3293 75.8518C62.97 75.2776 64.5867 74.5803 65.9649 73.4737C66.5928 72.97 67.1222 72.343 67.6954 71.771C67.9142 71.6127 68.1329 71.4411 68.3626 71.3003C68.5923 71.1595 68.8002 71.0803 69.0189 70.9725L69.1589 71.2255Z" fill="#671722"/>
<path d="M67.6954 71.7688C67.1223 72.3408 66.6016 72.9678 65.965 73.4715C64.5868 74.5715 62.9701 75.2754 61.3293 75.8496C60.1791 76.2192 58.9946 76.4705 57.794 76.5998C55.9761 76.8418 54.1515 77.0397 52.3051 76.7692C50.7278 76.5492 49.0871 76.591 47.5645 76.1818C45.7634 75.6652 44.0144 74.9803 42.3403 74.1359C41.075 73.5198 39.8922 72.7452 38.8203 71.8304C37.6481 70.8116 36.5769 69.6806 35.6219 68.4536C34.6044 67.1864 33.7072 65.826 32.942 64.3905C32.1834 62.8887 31.5512 61.3257 31.0519 59.7179C30.5072 58.0306 30.109 56.2905 29.7283 54.557C29.5353 53.5793 29.4111 52.5891 29.3564 51.5938C29.2361 50.0098 29.0961 48.4237 29.1114 46.8398C29.1224 45.4363 29.3302 44.0328 29.4571 42.6271C29.4565 42.4367 29.4463 42.2466 29.4264 42.0573C29.188 42.3697 29.0349 42.5743 28.8817 42.7766C29.0786 42.1673 29.258 41.5491 29.479 40.9485C29.724 40.2886 30.0062 39.6286 30.2709 38.9687C30.3518 39.1161 30.5225 39.281 30.4897 39.4086C30.0127 42.0221 30.0784 44.6641 30.144 47.2952C30.1768 48.5909 30.4022 49.8845 30.5815 51.1692C30.7412 52.2691 30.9206 53.3537 31.1766 54.425C31.3916 55.371 31.6843 56.2974 32.0517 57.1946C32.5483 58.3826 33.1761 59.5133 33.7252 60.6815C34.4083 62.0604 35.2932 63.3284 36.3504 64.4433C37.9731 66.2717 39.8299 67.8754 41.8721 69.2126C42.9381 69.9016 44.0482 70.5189 45.1952 71.0605C46.4859 71.6632 47.8423 72.1274 49.1658 72.662C51.0319 73.4144 53.0118 73.5001 54.9719 73.7619C57.0021 74.0281 58.9994 73.7795 60.9858 73.5595C62.3684 73.4078 63.7117 72.8798 65.0702 72.5102C65.9562 72.2704 66.8247 72.0152 67.6954 71.7688Z" fill="#721B24"/>
<path d="M109.71 65.7016C109.659 66.3879 109.642 67.0787 109.548 67.7585C109.504 68.0554 109.301 68.3304 109.172 68.6164C107.443 70.1138 105.715 71.6112 103.987 73.1086C103.134 73.8411 102.254 74.5407 101.407 75.2821C100.143 76.382 98.9048 77.5237 97.6447 78.6347C97.2071 79.0262 96.7193 79.3826 96.2555 79.7544L96.1177 79.629C96.6362 78.969 97.1765 78.3091 97.6709 77.6249C98.8348 76.0124 99.9964 74.3955 101.123 72.7588C101.884 71.6588 102.619 70.5237 103.311 69.3732C104.28 67.7629 105.164 66.0734 105.59 64.2475C106.01 62.5512 106.078 60.7861 105.789 59.0623C105.571 57.804 105.4 56.5303 105.12 55.2851C104.888 54.2534 104.521 53.2547 104.23 52.2361C104.215 52.0889 104.225 51.9402 104.258 51.7961C105.49 53.0919 106.387 54.612 107.231 56.1761C108.601 58.7427 109.387 61.5827 109.535 64.4916C109.563 64.8964 109.651 65.2968 109.71 65.7016Z" fill="#922B30"/>
<path d="M109.699 109.433C110.793 109.389 111.869 109.349 112.862 109.902C113.168 110.091 113.461 110.302 113.737 110.533C114.538 111.136 115.269 111.888 116.144 112.317C118.148 113.289 119.224 112.451 119.952 110.828C120.464 109.686 120.718 108.392 120.889 107.141C121.195 104.888 121.407 102.62 121.545 100.35C121.672 98.3697 121.661 96.3899 121.683 94.41C121.683 93.805 121.589 93.2 121.567 92.5929C121.582 92.3827 121.619 92.1747 121.678 91.9725L122.072 92.8943L122.149 93.1824C122.182 93.2946 122.212 93.4024 122.243 93.5212L122.44 93.9612L122.486 94.2054C122.243 94.5596 122.372 94.8125 122.704 95.0105L122.744 95.2547C122.788 95.7299 122.825 96.2029 122.875 96.6758C123.061 98.3544 123.295 100.028 123.422 101.711C123.505 102.831 123.422 103.96 123.437 105.086C123.437 105.832 123.483 106.58 123.51 107.328C123.51 107.409 123.494 107.493 123.488 107.576C123.409 107.93 123.33 108.285 123.249 108.639L123.065 109.794L122.984 110.082L120.871 117.28L120.736 117.625C120.705 117.735 120.672 117.845 120.641 117.951L119.815 119.255C119.738 119.348 119.657 119.438 119.596 119.537C119.158 120.146 118.729 120.756 118.307 121.37C118.368 120.967 118.574 120.525 118.469 120.173C118.032 118.657 117.581 117.126 116.938 115.685C116.325 114.293 115.464 113.026 114.398 111.945C113.192 110.724 111.891 109.871 110.143 109.803C109.994 109.794 109.847 109.554 109.699 109.433Z" fill="#83242D"/>
<path d="M78.0431 34.3731C78.1787 34.5447 78.38 34.6987 78.4391 34.8967C78.7081 35.7876 78.9313 36.6918 79.1851 37.5871C79.266 37.8731 79.3885 38.1481 79.487 38.4165C80.5808 38.0667 81.6418 37.7719 82.6656 37.3979C84.5886 36.6984 86.4722 35.858 88.0342 34.5249C89.2135 33.4801 90.2977 32.3316 91.2741 31.0931C92.0201 30.1801 92.5649 29.1 93.208 28.1013C93.2605 28.0221 93.3853 27.9935 93.4749 27.9407C93.1162 29.2452 92.8886 30.6091 92.357 31.8389C91.7695 33.1384 91.0425 34.3696 90.1891 35.5105C89.6264 36.2189 88.9533 36.831 88.1961 37.3232C86.4635 38.5463 84.4552 39.1007 82.4403 39.677C81.1651 40.0756 79.8379 40.281 78.5025 40.2864C78.4456 39.655 78.3844 39.0611 78.3384 38.4627C78.24 37.101 78.1437 35.737 78.0431 34.3731Z" fill="#C64F69"/>
<path d="M53.6352 24.6585C52.5808 24.3945 51.5198 24.1503 50.4697 23.8599C50.0231 23.7109 49.5849 23.5376 49.1571 23.3407C49.0805 22.9228 49.0368 22.4982 48.923 22.089C48.791 21.626 48.7821 21.1363 48.8973 20.6688C49.0125 20.2013 49.2476 19.7724 49.5793 19.4249C50.7519 18.1314 52.2045 17.2889 54.0421 17.3483C54.1201 17.3674 54.1942 17.4001 54.2609 17.4451C53.7359 18.2172 53.0818 18.9344 53.2349 19.9837C53.2391 20.0163 53.233 20.0494 53.2174 20.0783C53.1124 20.1949 52.9658 20.2983 52.9133 20.4281C52.3051 21.9812 52.5917 23.3869 53.6352 24.6585Z" fill="#762029"/>
<path d="M68.238 22.0296C67.5423 22.8238 66.5469 23.4397 66.6716 24.7179L66.5141 24.9247C66.0941 25.5274 65.534 26.0774 65.2803 26.744C64.8077 27.9935 65.1621 29.2606 65.5603 30.4838C65.685 30.8731 65.7397 31.3923 66.0131 31.5969C66.2866 31.8015 66.7744 31.6255 67.1682 31.6211C67.2185 32.1095 67.271 32.6 67.3345 33.2226C67.1729 33.1434 67.0178 33.0515 66.8707 32.9476C65.6894 31.877 64.5124 30.8005 63.3398 29.7182C63.2873 29.6698 63.2917 29.5598 63.2698 29.4784C63.6395 29.3948 63.4885 29.1748 63.447 28.9306C63.2107 27.7823 63.0095 26.6318 63.2742 25.4526C63.5279 24.3527 63.9567 23.3473 64.9324 22.6918C65.384 22.3865 65.8529 22.1081 66.3369 21.858C66.9932 21.5258 67.6254 21.7304 68.238 22.0296Z" fill="#762029"/>
<path d="M78.474 50.9536C78.318 49.968 78.1634 48.9818 78.0103 47.9948C78.8853 48.2433 79.1282 49.0705 79.4957 49.7437C79.7779 50.2628 79.8939 50.8744 80.0842 51.4464C79.5548 52.0579 79.0261 52.671 78.4981 53.2855C78.4894 52.5089 78.4828 51.7301 78.474 50.9536Z" fill="#922B30"/>
<path d="M123.514 107.323C123.488 106.575 123.448 105.827 123.442 105.082C123.429 103.955 123.509 102.827 123.426 101.707C123.299 100.024 123.065 98.35 122.879 96.6715C122.829 96.1985 122.792 95.7255 122.748 95.2504C122.945 95.6946 123.11 96.1527 123.24 96.6209C123.746 99.0628 124.194 101.522 124.026 104.032C123.951 105.134 123.689 106.226 123.514 107.323Z" fill="#AF7280"/>
<path d="M21.5836 118.727C21.7324 118.93 21.9927 119.123 22.0212 119.337C22.1306 120.608 22.6556 121.744 23.115 122.892C23.8063 124.601 24.5676 126.284 25.3027 127.978C25.3187 128.042 25.3246 128.108 25.3202 128.174C25.1211 127.998 24.8498 127.861 24.7361 127.644C23.4991 125.297 22.5072 122.828 21.7762 120.276C21.7149 120.056 21.7762 119.814 21.7499 119.588C21.7086 119.425 21.6507 119.267 21.5771 119.117C21.5727 118.987 21.5771 118.857 21.5836 118.727Z" fill="#8B3C47"/>
<path d="M82.9391 86.8666L83.7135 87.2802C83.6829 87.388 83.6851 87.4738 83.6457 87.5002C82.7225 88.2063 81.7928 88.9059 80.8652 89.6077C80.1629 90.1378 79.4694 90.6834 78.7541 91.196C78.5477 91.3053 78.3266 91.3838 78.0978 91.4292C79.0057 90.6702 79.9114 89.9068 80.8236 89.1523C81.4668 88.6177 82.1362 88.1095 82.7532 87.5442C82.9129 87.4166 82.8844 87.0998 82.9391 86.8666Z" fill="#AF3D29"/>
<path d="M21.3232 117.808C21.7608 117.953 21.8833 118.206 21.5705 118.595C21.4873 118.334 21.4064 118.07 21.3232 117.808Z" fill="#8B3C47"/>
<path d="M123.254 108.634C123.334 108.28 123.413 107.926 123.492 107.572C123.413 107.926 123.334 108.28 123.254 108.634Z" fill="#AF7280"/>
<path d="M122.709 95.0062C122.376 94.8082 122.247 94.5662 122.49 94.201C122.562 94.4694 122.635 94.7378 122.709 95.0062Z" fill="#AF7280"/>
<path d="M77.4786 91.9725C77.4786 91.7987 77.4786 91.6271 77.4786 91.4533L77.7368 91.7239L77.4786 91.9725Z" fill="#AF3D29"/>
<path d="M21.203 116.888L21.472 117.001L21.332 117.166L21.192 117.144L21.203 116.888Z" fill="#8B3C47"/>
<path d="M122.444 93.9568L122.247 93.5168L122.444 93.9568Z" fill="#AF7280"/>
<path d="M122.989 110.078L123.07 109.789C123.041 109.886 123.015 109.981 122.989 110.078Z" fill="#AF7280"/>
<path d="M122.153 93.1803C122.129 93.0835 122.103 92.9889 122.077 92.8921C122.103 92.9889 122.129 93.0835 122.153 93.1803Z" fill="#AF7280"/>
<path d="M120.74 117.621L120.876 117.276L120.74 117.621Z" fill="#AF7280"/>
<path d="M78.1153 91.4247C78.0475 91.5237 77.9797 91.6205 77.9097 91.7173C77.9797 91.6205 78.0475 91.5149 78.1153 91.4247Z" fill="#AF3D29"/>
<path d="M21.192 117.144L21.333 117.166C21.3347 117.188 21.3305 117.21 21.3208 117.23C21.3111 117.25 21.2963 117.266 21.2779 117.279L21.192 117.144Z" fill="#AF7280"/>
<path d="M93.484 27.6819C93.4696 27.6532 93.4571 27.6236 93.4465 27.5933C93.4465 27.5933 93.473 27.5712 93.4884 27.5601C93.5012 27.578 93.5076 27.5997 93.5068 27.6217C93.506 27.6438 93.498 27.6649 93.484 27.6819Z" fill="#C64F69"/>
<path d="M20.783 114.807L20.8667 114.94L20.783 114.807Z" fill="#792616"/>
<path d="M36.6523 74.5253C37.1861 74.8355 37.7461 75.1215 38.2493 75.4624C38.9931 75.9574 39.7106 76.4942 40.4369 77.0024C41.0626 77.8823 41.6555 78.7777 42.3271 79.6158C43.2831 80.8125 44.2566 82.0005 45.3001 83.1202C46.0639 83.8879 46.8672 84.6149 47.7066 85.2981C49.4332 86.8305 51.3539 88.1265 53.4186 89.1523C55.3875 90.1026 57.3892 91.0244 59.566 91.4688C61.7033 91.9087 63.8166 92.4741 65.9605 92.8591C67.7698 93.1847 69.6161 93.2991 71.4297 93.5675C72.3462 93.6696 73.2005 94.0833 73.8515 94.74C73.4665 95.3054 73.0661 95.8597 72.703 96.4383C72.2654 97.1555 72.5542 98.823 73.1733 99.1903L73.3046 99.4433C73.8362 100.394 74.3546 101.353 74.9081 102.292C75.1352 102.626 75.3837 102.945 75.6519 103.247L75.4004 103.379C75.1989 103.426 75.0076 103.509 74.8359 103.625C74.1271 104.351 73.4293 105.093 72.7555 105.854C72.3442 106.318 71.9876 106.826 71.6069 107.312C71.5216 107.402 71.4341 107.49 71.3488 107.578C70.0931 108.529 68.868 109.528 67.306 109.948C66.3981 110.251 65.5274 110.727 64.532 110.667C63.6766 110.619 62.7381 110.735 61.9943 110.412C60.9595 109.959 60.0385 109.206 59.1306 108.502C58.1418 107.737 57.2164 106.888 56.2757 106.061C55.0637 104.994 53.8868 103.883 52.6507 102.844C51.6247 101.982 50.5637 101.155 49.4677 100.385C47.816 99.2277 46.1424 98.0926 44.436 97.0279C43.7797 96.6165 42.9046 96.5373 42.2483 96.1017C41.0648 95.2988 39.6997 95.2944 38.4024 94.9732C37.0373 94.6344 35.6788 94.2604 34.3202 93.8908C33.3992 93.64 32.6357 93.0989 31.8438 92.5709C30.8277 91.9104 30.0107 90.9831 29.4811 89.8893C29.2623 89.4493 29.2164 88.9059 29.0895 88.4109C28.827 87.1702 29.0785 85.9735 29.3083 84.7481C29.6107 82.9759 30.1849 81.2616 31.0103 79.6664C32.1435 77.5633 33.6923 75.7968 36.0091 74.8905C36.233 74.7866 36.4482 74.6645 36.6523 74.5253Z" fill="#902E1D"/>
<path d="M83.8623 72.695C83.1032 71.595 82.95 70.3037 82.845 69.0278C82.7881 67.9587 82.7881 66.8873 82.845 65.8182C82.8914 65.5959 82.975 65.3831 83.0922 65.189L84.3786 66.4165L84.5033 66.5617C84.548 66.6579 84.6046 66.7481 84.6717 66.8301C86.0303 68.062 87.612 68.0246 89.1587 67.4263C90.4319 66.9313 91.0772 65.7434 91.5498 64.507C92.1492 62.9451 92.2061 61.304 92.0442 59.6673C91.9851 59.0381 91.6067 58.4398 91.3595 57.826L91.1823 57.1968C93.3699 57.0978 94.8729 58.1516 95.912 60.0083C95.9601 60.0941 96.0673 60.1491 96.1483 60.2283L96.3889 60.6264C96.4042 60.7078 96.4195 60.7892 96.4327 60.8706L96.6252 61.1874L96.6974 61.6582L96.8855 61.975L96.9643 62.4413C96.9282 62.6335 96.9201 62.8298 96.9402 63.0243C97.3493 64.6368 97.0802 66.1921 96.6952 67.7738C96.122 70.1233 94.7263 71.8942 92.8427 73.2186C91.7662 73.9744 90.5337 74.476 89.2374 74.6859C87.0541 75.0159 85.2909 74.3559 83.8623 72.695ZM87.6207 69.1026C87.857 69.2192 88.1523 69.3864 88.463 69.5118C89.6312 69.9825 91.3638 69.569 92.0179 68.6318C92.9958 67.2173 92.9565 65.6334 92.6961 64.0231C92.6165 64.1966 92.5634 64.3813 92.5386 64.5708C92.3745 65.4002 92.3198 66.2713 92.0136 67.0457C91.6023 68.0994 90.8935 68.9772 89.6509 69.0982C88.9705 69.1576 88.2814 69.1026 87.6207 69.1026Z" fill="#E59589"/>
<path d="M73.3046 99.4521L73.1733 99.1991C73.8646 99.5401 74.5975 99.8151 75.2363 100.235C76.8158 101.278 78.3428 102.341 80.187 102.959C82.9916 103.9 85.8487 104.239 88.7715 104.316C91.0991 104.378 93.4159 104.274 95.6801 103.748C97.604 103.301 99.444 102.546 101.13 101.511C103.512 100.053 104.923 97.8924 105.929 95.3867C106.418 94.2568 106.846 93.1017 107.214 91.9263C107.64 90.437 107.929 88.9059 108.277 87.3924C108.316 87.3 108.358 87.2098 108.397 87.1196C108.443 86.772 108.487 86.4244 108.533 86.0769L108.765 85.6633C108.765 85.2761 108.784 84.8911 108.795 84.5039C108.835 84.3697 108.876 84.2355 108.918 84.1014L109.167 82.5262C109.167 82.4383 109.167 82.3503 109.167 82.2645L109.292 81.0831V80.8213C109.333 80.6014 109.373 80.3814 109.414 80.1614C109.454 80.0272 109.491 79.893 109.53 79.7566C109.53 79.2352 109.53 78.7139 109.546 78.1947L109.664 77.7921C109.664 77.4885 109.664 77.1849 109.664 76.8814C109.664 76.7076 109.664 76.5316 109.664 76.3578C109.664 75.3136 109.669 74.2679 109.679 73.2208C109.841 73.355 110.117 73.4671 110.147 73.6255C110.316 74.6199 110.427 75.623 110.558 76.624C110.088 76.5954 110.189 76.9429 110.182 77.2091C110.138 79.0196 110.213 80.8411 110.023 82.634C109.803 84.9212 109.438 87.1917 108.929 89.4317C108.18 92.5533 107.154 95.5913 105.557 98.4182C104.724 99.895 103.677 101.239 102.451 102.407C101.032 103.737 99.4519 104.882 97.7475 105.814C95.723 106.926 93.5299 107.694 91.2567 108.087C90.4907 108.233 89.7088 108.278 88.9312 108.221C87.4967 108.097 86.0846 107.785 84.7308 107.292C81.5412 106.151 78.5681 104.653 75.9473 102.514C75.2101 101.914 74.6347 101.06 74.1425 100.231C73.9128 99.8327 73.7465 99.5379 73.3046 99.4521Z" fill="#91292E"/>
<path d="M91.1822 57.1969C91.2391 57.4169 91.296 57.617 91.3551 57.826L91.3026 58.6444L91.506 59.1724C91.5148 59.649 91.5228 60.1256 91.5301 60.6023C91.4579 60.6727 91.3485 60.7321 91.3113 60.8223C91.0379 61.6516 90.8256 62.503 90.4997 63.3081C90.074 64.4144 89.2903 65.3443 88.2748 65.948C87.2269 66.5486 86.0412 66.8081 84.8205 66.3022C84.7045 66.2538 84.5186 66.3726 84.3655 66.4144L83.0791 65.1868C83.0922 64.7997 83.1032 64.4147 83.1163 64.0275C83.1557 63.8999 83.195 63.7701 83.2366 63.6425C83.2541 63.5523 83.2738 63.4643 83.2913 63.3741L83.4948 62.855L84.1511 61.403L84.3414 61.0753C84.8927 60.3669 85.3718 59.5837 86.0128 58.97C87.1066 57.9272 88.4673 57.3971 89.9506 57.1815C90.2831 57.1331 90.6069 57.0209 90.9328 56.9395L91.1363 57.2255L91.1822 57.1969Z" fill="#29170E"/>
<path d="M96.6952 61.6494L96.623 61.1786C96.5596 61.073 96.4962 60.9586 96.4305 60.8618C96.4174 60.7804 96.4021 60.699 96.3868 60.6176C96.6055 60.7826 96.9271 60.9014 97.065 61.1258C97.9615 62.531 98.5002 64.1365 98.6335 65.8006C98.8151 68.3722 98.4038 70.7569 96.7762 72.8204C95.9202 73.8833 94.8975 74.7988 93.7484 75.5306C92.0136 76.6702 90.1103 76.943 88.1327 76.7208C87.2117 76.6174 86.295 76.2808 85.6606 75.48C85.3959 75.139 85.0809 74.8377 84.7855 74.5187C84.9806 74.5899 85.1706 74.6745 85.3543 74.7717C86.3672 75.3854 87.3867 75.9156 88.6227 75.9816C89.8587 76.0476 91.0073 75.5834 92.1011 75.1369C94.8554 74.0171 96.4393 71.8128 97.159 68.9772C97.4046 67.9875 97.5439 66.9741 97.5747 65.9546C97.5754 65.0107 97.5008 64.0683 97.3515 63.1365C97.3209 62.8901 97.1 62.6679 96.9643 62.4325L96.8856 61.9662C96.8156 61.8606 96.7521 61.755 96.6952 61.6494Z" fill="#922B30"/>
<path d="M96.9577 62.4325C97.0933 62.6679 97.3143 62.8901 97.3449 63.1365C97.4926 64.0684 97.5658 65.0108 97.5637 65.9545C97.5329 66.9741 97.3936 67.9874 97.148 68.9772C96.4283 71.8128 94.8444 74.0171 92.0901 75.1368C90.9963 75.5768 89.8718 76.0498 88.6095 75.9816C87.3472 75.9134 86.354 75.3854 85.3411 74.7716C85.1574 74.6744 84.9674 74.5899 84.7723 74.5187L84.5076 74.1183L83.8513 72.6906C85.2777 74.3449 87.041 75.0202 89.2177 74.6704C90.514 74.4606 91.7464 73.959 92.823 73.2031C94.7 71.8832 96.1045 70.1079 96.6755 67.7584C97.0605 66.1767 97.3318 64.6214 96.9205 63.0089C96.9053 62.816 96.9179 62.6219 96.9577 62.4325Z" fill="#A0505A"/>
<path d="M78.4741 50.9536C78.4741 51.7302 78.4894 52.5089 78.4981 53.2855C78.299 53.5671 78.0824 53.8376 77.9031 54.1302C77.3868 54.9706 76.6714 55.0784 75.9626 54.4096C74.8053 53.3097 75.4376 50.5092 76.9689 50.0802C77.2249 50.0076 77.5902 50.1616 77.844 50.3112C78.0823 50.4953 78.2943 50.7115 78.4741 50.9536Z" fill="#FB8F8A"/>
<path d="M81.2043 59.4825C81.8825 59.3901 82.7138 59.6079 83.042 58.7324C83.287 58.0724 83.4686 57.4124 83.7202 56.6007C84.0718 57.7139 84.0794 58.9082 83.742 60.0259C83.6815 60.1899 83.5642 60.3266 83.4117 60.4109C82.7292 60.7914 81.4428 60.2591 81.2043 59.4825Z" fill="#671722"/>
<path d="M84.8643 55.9583C85.3434 55.9869 85.9297 56.3851 86.2447 55.7801C86.4635 55.3511 86.5575 54.854 86.7785 54.1698C86.936 54.6098 87.087 54.8584 87.1132 55.1268C87.1746 55.5811 87.1701 56.042 87.1001 56.4951C87.0683 56.6476 87.0047 56.7916 86.9134 56.9175C86.8222 57.0434 86.7053 57.1484 86.5707 57.2254C86.3388 57.3134 85.9516 57.1726 85.7087 57.0055C85.3773 56.7496 85.0685 56.4655 84.7855 56.1563L84.8643 55.9583Z" fill="#671722"/>
<path d="M109.699 76.36C109.699 76.5338 109.699 76.7098 109.699 76.8836C109.694 76.7098 109.697 76.5338 109.699 76.36Z" fill="#AF3D29"/>
<path d="M83.5035 62.8571L83.3 63.3763L83.5035 62.8571Z" fill="#44121F"/>
<path d="M108.765 85.6633L108.533 86.0769L108.765 85.6633Z" fill="#AF3D29"/>
<path d="M96.3889 60.6243L96.1483 60.2261L96.3889 60.6243Z" fill="#922B30"/>
<path d="M83.2453 63.6447C83.2038 63.7722 83.1644 63.902 83.125 64.0296L83.2453 63.6447Z" fill="#44121F"/>
<path d="M108.918 84.1014C108.876 84.2356 108.835 84.3698 108.795 84.504C108.835 84.3698 108.876 84.2356 108.918 84.1014Z" fill="#AF3D29"/>
<path d="M109.546 79.7588C109.506 79.8952 109.469 80.0294 109.43 80.1636C109.467 80.0294 109.506 79.8952 109.546 79.7588Z" fill="#AF3D29"/>
<path d="M109.679 77.7943L109.561 78.1969L109.679 77.7943Z" fill="#AF3D29"/>
<path d="M84.5208 74.1227L84.7855 74.5231L84.5208 74.1227Z" fill="#922B30"/>
<path d="M109.176 82.2755C109.176 82.3613 109.176 82.4493 109.176 82.5373C109.165 82.4383 109.165 82.3503 109.176 82.2755Z" fill="#AF3D29"/>
<path d="M91.1517 57.2277L90.9482 56.9417L91.1517 57.2277Z" fill="#A0505A"/>
<path d="M108.397 87.1152C108.358 87.2054 108.316 87.2956 108.277 87.388C108.316 87.3 108.358 87.2098 108.397 87.1152Z" fill="#AF3D29"/>
<path d="M84.3523 61.0774L84.162 61.4052L84.3523 61.0774Z" fill="#44121F"/>
<path d="M73.1712 126.979C73.0071 126.407 72.854 125.835 72.6768 125.268C72.5543 124.88 72.4011 124.502 72.2611 124.119C72.2372 123.909 72.1842 123.703 72.1036 123.508C71.4911 122.467 70.8982 121.413 70.22 120.428C69.1262 118.824 67.6714 117.858 65.6434 117.955C64.7763 118.008 63.9066 118.003 63.0401 117.94C62.5726 117.912 62.1236 117.746 61.7494 117.463C60.8407 116.661 59.9739 115.813 59.1526 114.922C58.7151 114.46 58.4066 113.892 58.0391 113.382C59.0016 114.345 60.2267 114.545 61.4978 114.541C62.4259 114.534 63.3517 114.447 64.2652 114.281C66.0883 113.937 67.797 113.14 69.2356 111.963C70.2407 111.143 71.1632 110.225 71.9899 109.224C72.9087 108.142 73.6787 106.929 74.5516 105.805C74.8426 105.431 75.2561 105.159 75.6148 104.84C75.6258 105.412 75.6389 105.984 75.6498 106.556C75.6498 106.819 75.6498 107.081 75.6498 107.343C75.6498 107.605 75.6498 107.862 75.6498 108.12L75.8839 108.793L75.9123 110.874C75.9123 111.138 75.9123 111.4 75.9123 111.661C75.9123 111.881 75.9123 112.101 75.9123 112.321V113.006C75.7439 113.327 75.6411 113.718 75.3939 113.958C74.8076 114.528 74.6435 115.236 74.556 115.993L74.3372 116.525L74.1863 117.185L74.0725 117.977V120.342L74.3154 121.662L74.3285 122.051L74.5779 122.843C74.5779 122.929 74.5779 123.015 74.5888 123.103C74.6282 123.235 74.6654 123.367 74.7048 123.501L75.1204 125.067L75.2517 125.331C75.4332 125.864 75.6126 126.398 75.7942 126.933L75.5011 126.946C75.4754 126.927 75.4435 126.917 75.4114 126.92L75.2495 126.944C75.2138 126.942 75.178 126.942 75.1423 126.944L74.0835 126.907L73.8166 127.012L73.1712 126.979Z" fill="#792616"/>
<path d="M82.3047 126.755L79.8261 126.867L79.5658 126.88L79.1917 126.913L78.5222 127.017H77.9972L77.8813 126.874C77.7956 126.449 77.6861 126.03 77.5531 125.617C76.8611 123.853 76.571 121.955 76.7043 120.063C76.7693 118.682 77.3692 117.381 78.3757 116.44C79.8173 115.093 82.4163 114.552 83.7464 115.978C83.8273 116.072 83.9061 116.167 83.987 116.259L86.2294 120.175C86.3038 120.272 86.376 120.371 86.4482 120.47L86.6319 121.35C86.7435 121.539 86.8507 121.726 86.9688 121.913C87.0192 122.133 87.0717 122.335 87.1242 122.544C87.1679 122.808 87.2117 123.072 87.2576 123.334L87.5201 124.245L86.8835 126.324L86.6166 126.357L86.2075 126.464L84.7834 126.592L83.7377 126.621L83.2301 126.645L82.3047 126.755Z" fill="#7B2919"/>
<path d="M83.7464 115.978C82.4163 114.552 79.8086 115.098 78.3757 116.44C77.3692 117.381 76.7693 118.682 76.7043 120.063C76.5717 121.953 76.8617 123.85 77.5531 125.613C77.6861 126.025 77.7956 126.445 77.8813 126.869L77.3475 127.01L75.7986 126.898C75.617 126.363 75.4376 125.829 75.2561 125.296L75.1248 125.032L74.7091 123.466C74.6698 123.332 74.6326 123.2 74.5932 123.068C74.5932 122.98 74.5932 122.894 74.5823 122.808L74.3329 122.016L74.3197 121.627L74.0769 120.307V117.949C74.1141 117.685 74.1535 117.421 74.1907 117.157L74.3416 116.497L74.5604 115.964C74.6479 115.208 74.812 114.499 75.3983 113.93C75.6455 113.69 75.7483 113.298 75.9167 112.977L76.1661 112.698C76.4855 112.524 76.8596 112.409 77.1156 112.167C78.2969 111.05 79.7649 110.779 81.2897 110.581C82.2479 110.456 83.182 110.401 84.0483 110.861C84.573 111.178 85.0779 111.527 85.56 111.906L85.816 112.17L86.0894 112.83C86.349 113.658 86.6101 114.488 86.8726 115.318L87.1111 115.595L87.3758 117.034V117.295C87.3758 117.597 87.3758 117.9 87.3758 118.204L87.612 118.745C87.612 119.877 87.612 121.009 87.612 122.142L87.2883 122.667L87.122 122.544C87.0695 122.335 87.017 122.124 86.9667 121.913C86.8551 121.726 86.7479 121.539 86.6298 121.35L86.446 120.47C86.3738 120.371 86.2994 120.272 86.2272 120.175L83.9849 116.259L83.7464 115.978Z" fill="#CE4A31"/>
<path d="M108.493 125.661L106.172 125.692L104.621 125.56C103.952 124.133 103.792 122.621 103.81 121.059C103.838 118.562 104.542 116.389 106.435 114.658C107.356 113.813 109.968 113.052 111.16 113.74C111.493 113.934 111.832 114.114 112.169 114.301L112.694 115.062C112.646 115.703 112.637 116.347 112.543 116.981C112.126 119.586 111.251 122.097 109.959 124.394C109.806 124.725 109.677 125.066 109.572 125.415L108.493 125.661Z" fill="#7B2919"/>
<path d="M112.169 114.301C111.832 114.114 111.493 113.934 111.16 113.74C109.968 113.052 107.356 113.813 106.435 114.658C104.542 116.389 103.838 118.562 103.81 121.059C103.792 122.621 103.952 124.139 104.621 125.56L104.481 125.701L103.04 125.833H102.781H100.438C100.392 125.741 100.344 125.648 100.296 125.556C100.248 125.298 100.198 125.043 100.15 124.786L99.9308 124.491C99.8805 124.361 99.828 124.232 99.7755 124.104C99.6442 122.634 99.3817 121.165 99.4211 119.704C99.4517 118.628 99.8127 117.544 100.139 116.497C100.55 115.237 101.246 114.091 102.173 113.149C103.204 112.066 104.315 111.076 105.787 110.61C105.978 110.55 106.137 110.357 106.328 110.322C106.729 110.233 107.14 110.195 107.55 110.207C107.922 110.262 108.288 110.35 108.644 110.471C109.92 110.911 110.777 111.912 111.609 112.891C111.917 113.265 111.989 113.828 112.169 114.301Z" fill="#CE4A31"/>
<path d="M100.152 124.793C100.2 125.05 100.25 125.305 100.298 125.562C100.257 125.681 100.213 125.802 100.171 125.923L99.7821 125.956C99.6276 125.896 99.4657 125.857 99.3008 125.84C97.9422 125.87 96.5837 125.917 95.2252 125.958C93.9322 125.958 92.6393 125.945 91.3442 125.958C91.1561 125.958 90.9701 126.123 90.782 126.211H90.3904C90.2591 125.51 90.1366 124.808 89.9988 124.108C89.6313 122.225 89.3425 120.322 88.8546 118.472C88.4723 117.146 87.9752 115.855 87.3692 114.616C87.0673 113.956 86.5313 113.417 86.1004 112.821L85.8269 112.161H86.2185C88.0019 113.585 89.3774 115.459 90.2044 117.592C90.5345 118.435 90.8114 119.297 91.0336 120.175C91.3661 121.438 92.0836 122.335 93.1644 123.079C94.2451 123.822 95.3739 123.996 96.5618 124.086C97.6316 124.166 98.7123 124.086 99.7865 124.086C99.839 124.214 99.8915 124.344 99.9418 124.474L100.152 124.793Z" fill="#83232B"/>
<path d="M109.572 125.415C109.677 125.066 109.806 124.725 109.959 124.394C111.251 122.097 112.125 119.586 112.543 116.981C112.637 116.347 112.646 115.703 112.694 115.062C113.195 115.929 113.788 116.754 114.173 117.672C114.744 119.057 115.19 120.498 115.636 121.935C115.883 122.731 116.026 123.563 116.214 124.379C116.172 124.599 116.131 124.819 116.087 125.039L115.056 125.193L114.267 125.173C113.851 125.032 113.429 124.808 113.081 125.298L111.786 125.415L110.351 125.457L109.972 125.472L109.572 125.415Z" fill="#671722"/>
<path d="M86.1003 112.83C86.5379 113.426 87.0673 113.969 87.3692 114.625C87.9752 115.864 88.4722 117.155 88.8546 118.481C89.3425 120.331 89.6312 122.234 89.9988 124.117C90.1366 124.817 90.2591 125.518 90.3904 126.22L89.0778 126.464H88.8196L87.8855 126.324C87.7615 125.631 87.6383 124.938 87.5158 124.243L87.2532 123.332C87.3801 122.936 87.5048 122.538 87.6317 122.139C87.6317 121.007 87.6317 119.875 87.6317 118.743L87.3954 118.202C87.3954 117.898 87.3954 117.595 87.3954 117.293V117.031C87.3079 116.552 87.2182 116.072 87.1307 115.593L86.8923 115.315C86.6268 114.487 86.3629 113.658 86.1003 112.83Z" fill="#922B30"/>
<path d="M116.087 125.037C116.131 124.817 116.172 124.597 116.214 124.377L118.303 121.363C118.732 120.751 119.161 120.141 119.591 119.53C119.661 119.431 119.742 119.341 119.81 119.249C120.123 119.724 119.935 120.177 119.71 120.6C119.04 121.862 118.307 123.088 117.238 124.06C116.872 124.403 116.474 124.713 116.087 125.037Z" fill="#8B3C47"/>
<path d="M55.4335 127.386L55.5713 127.402C55.5713 127.494 55.5713 127.586 55.5713 127.679L51.0012 127.791L49.8286 127.811L47.7416 127.916C47.6957 127.872 47.6519 127.828 47.6082 127.782C47.6082 127.655 47.6082 127.527 47.6082 127.399H53.9962L55.4335 127.386Z" fill="#8A342C"/>
<path d="M47.6103 127.399C47.6103 127.527 47.6103 127.655 47.6103 127.782L46.7002 127.795L46.3043 127.908H43.9569C44.0794 127.736 44.1888 127.428 44.3244 127.417C45.3461 127.336 46.3721 127.307 47.3981 127.272C47.4725 127.278 47.5381 127.358 47.6103 127.399Z" fill="#792616"/>
<path d="M57.6495 127.373C57.7852 127.252 57.9164 127.03 58.0543 127.028C59.3669 127.001 60.6795 127.003 61.9811 127.028C62.1058 127.028 62.2283 127.193 62.3508 127.283L60.1282 127.399C59.8845 127.342 59.6364 127.306 59.3865 127.292C58.8068 127.289 58.2293 127.336 57.6495 127.373Z" fill="#792616"/>
<path d="M95.2251 125.958C96.5836 125.917 97.9421 125.87 99.3007 125.84C99.4656 125.857 99.6275 125.896 99.782 125.956C99.6792 126.042 99.5785 126.198 99.4713 126.203C98.1587 126.264 96.833 126.304 95.5117 126.341C95.4083 126.324 95.3085 126.29 95.2163 126.24C95.2185 126.145 95.2229 126.053 95.2251 125.958Z" fill="#A0505A"/>
<path d="M57.6496 127.373C58.2293 127.342 58.8069 127.296 59.3866 127.287C59.6365 127.302 59.8846 127.338 60.1282 127.395C60.032 127.483 59.9357 127.646 59.8351 127.65C58.4897 127.71 57.1421 127.749 55.7966 127.787C55.7223 127.787 55.6457 127.721 55.5779 127.685C55.5779 127.593 55.5779 127.501 55.5779 127.408L57.6496 127.373Z" fill="#A0505A"/>
<path d="M28.1751 128.053C29.0808 128.011 29.9865 127.949 30.8943 127.938C31.1131 127.938 31.345 128.099 31.5703 128.187C31.5703 128.266 31.5572 128.348 31.5484 128.427L30.5202 128.442L29.4789 128.462L28.0394 128.438C28.0854 128.31 28.1291 128.183 28.1751 128.053Z" fill="#8A342C"/>
<path d="M34.3005 128.174C34.3859 128.048 34.469 127.82 34.5609 127.813C35.6831 127.749 36.8076 127.718 37.9299 127.685C37.9824 127.685 38.0349 127.754 38.0874 127.791L37.1708 128.172L34.3005 128.174Z" fill="#792616"/>
<path d="M95.2251 125.958C95.2251 126.053 95.2251 126.145 95.2251 126.24L91.5738 126.346L90.7906 126.22C90.9788 126.132 91.1647 125.969 91.3529 125.967C92.6392 125.945 93.9322 125.958 95.2251 125.958Z" fill="#922B30"/>
<path d="M28.175 128.053C28.129 128.183 28.0853 128.31 28.0393 128.438C27.383 128.438 26.7092 128.469 26.0442 128.438C25.8535 128.391 25.6727 128.311 25.5104 128.2L28.175 128.053Z" fill="#792616"/>
<path d="M37.1708 128.172L38.0874 127.791L40.3079 127.925C40.3079 127.976 40.3079 128.026 40.3079 128.077L39.2578 128.18L38.2165 128.2L37.1708 128.172Z" fill="#8A342C"/>
<path d="M69.3887 127.078C69.4105 126.997 69.404 126.88 69.4565 126.841C69.7628 126.621 71.4254 126.739 71.7404 127.001L69.3887 127.078Z" fill="#792616"/>
<path d="M90.7885 126.22L91.5717 126.346L89.0844 126.467L90.397 126.22H90.7885Z" fill="#A0505A"/>
<path d="M87.892 126.326L88.8262 126.467L86.6013 126.502C86.6013 126.453 86.6013 126.405 86.6188 126.357L86.8835 126.324L87.892 126.326Z" fill="#A0505A"/>
<path d="M104.481 125.701L104.621 125.56L106.172 125.692C105.61 125.833 105.048 126.095 104.481 125.701Z" fill="#A0505A"/>
<path d="M63.6614 127.245C63.8561 126.764 64.3177 126.72 64.8296 127.131C64.8296 127.177 64.8296 127.223 64.8296 127.27L63.6614 127.245Z" fill="#792616"/>
<path d="M110.351 125.455L111.786 125.413L110.351 125.455Z" fill="#A0505A"/>
<path d="M109.572 125.415L109.972 125.47L108.493 125.661L109.572 125.415Z" fill="#A0505A"/>
<path d="M40.3101 128.077C40.3101 128.026 40.3101 127.976 40.3101 127.925L41.743 128.035L40.3101 128.077Z" fill="#A0505A"/>
<path d="M113.081 125.296C113.429 124.806 113.851 125.03 114.267 125.171C114.267 125.221 114.267 125.27 114.267 125.32L113.081 125.296Z" fill="#83232B"/>
<path d="M64.8274 127.27C64.8274 127.223 64.8274 127.177 64.8274 127.131L66.024 127.109C66.024 127.153 66.0241 127.197 66.0131 127.241L64.8274 127.27Z" fill="#A0505A"/>
<path d="M49.8265 127.813L50.9991 127.793L49.8265 127.813Z" fill="#A0505A"/>
<path d="M29.4789 128.473L30.5202 128.453L29.4789 128.473Z" fill="#A0505A"/>
<path d="M83.7397 126.621L84.7854 126.592L83.7397 126.621Z" fill="#A0505A"/>
<path d="M31.5485 128.427C31.5485 128.348 31.5638 128.266 31.5703 128.187L32.627 128.227L31.5485 128.427Z" fill="#A0505A"/>
<path d="M38.2188 128.2L39.2601 128.18L38.2188 128.2Z" fill="#A0505A"/>
<path d="M46.6959 127.795L47.606 127.782C47.6497 127.828 47.6935 127.872 47.7394 127.916L46.6959 127.941V127.795Z" fill="#A0505A"/>
<path d="M74.0877 126.88L75.1466 126.918L74.0856 127.019L74.0877 126.88Z" fill="#A0505A"/>
<path d="M66.0043 127.241C66.0043 127.197 66.0043 127.153 66.0152 127.109L66.9056 127.12L66.0043 127.241Z" fill="#792616"/>
<path d="M82.3047 126.755L83.2323 126.645L82.3047 126.755Z" fill="#A0505A"/>
<path d="M114.264 125.321C114.264 125.27 114.264 125.222 114.264 125.171L115.054 125.191L114.264 125.321Z" fill="#A0505A"/>
<path d="M78.5222 127.017L79.1916 126.913L78.5222 127.017Z" fill="#A0505A"/>
<path d="M77.3474 127.014L77.8812 126.874L77.9972 127.017L77.3474 127.014Z" fill="#A0505A"/>
<path d="M86.6188 126.357C86.6188 126.405 86.6079 126.453 86.6013 126.502L86.2097 126.464L86.6188 126.357Z" fill="#922B30"/>
<path d="M46.6959 127.795V127.941L46.2999 127.908L46.6959 127.795Z" fill="#8A342C"/>
<path d="M100.172 125.923C100.213 125.802 100.257 125.681 100.298 125.562C100.346 125.655 100.395 125.747 100.441 125.84L100.172 125.923Z" fill="#922B30"/>
<path d="M74.0878 126.88V127.019L73.8231 126.986L74.0878 126.88Z" fill="#8A342C"/>
<path d="M79.5657 126.88L79.826 126.867L79.5657 126.88Z" fill="#A0505A"/>
<path d="M75.4158 126.889C75.4481 126.886 75.4803 126.896 75.5061 126.916C75.4977 126.935 75.4851 126.953 75.4691 126.967C75.453 126.981 75.4341 126.992 75.4136 126.997C75.4077 126.961 75.4085 126.925 75.4158 126.889Z" fill="#CE4A31"/>
<path d="M75.4158 126.889C75.4092 126.925 75.4092 126.961 75.4158 126.997L75.2561 126.913L75.4158 126.889Z" fill="#A0505A"/>
<path d="M49.0739 39.0963C49.5377 38.3461 49.9621 37.5696 50.4718 36.8546C51.0165 36.0912 51.6335 35.3807 52.2373 34.6547C52.3357 34.5403 52.5414 34.5183 52.6989 34.4567C52.6989 35.1563 52.7339 35.858 52.6814 36.5532C52.5944 37.7762 52.814 39.0016 53.3202 40.117C54.3046 42.3301 55.9826 43.9294 58.0981 45.0711C58.3577 45.1737 58.6092 45.2958 58.8506 45.4363C60.1413 46.4263 61.5983 46.3559 62.9788 45.8873C64.683 45.3087 65.9255 44.0658 66.8662 42.5193C67.1124 42.1825 67.3885 41.8688 67.691 41.5821C68.2673 43.2494 68.3867 45.042 68.0367 46.7716C67.9229 47.3634 67.8026 47.9552 67.6866 48.5448C67.236 49.2817 66.8116 50.0385 66.3281 50.7446C65.8785 51.41 65.3905 52.0483 64.8667 52.6563C64.3067 53.3031 63.7729 54.0268 63.0684 54.4822C61.8237 55.294 60.3382 55.4964 58.8878 55.4568C57.0698 55.4062 55.346 55.0168 53.7643 53.9169C52.256 52.893 51.0186 51.515 50.159 49.9021C49.0914 47.9068 48.6561 45.6849 48.6648 43.419C48.6648 42.1431 48.8639 40.8672 48.9711 39.5912L49.0455 39.3427L49.0739 39.0963ZM54.3353 45.6959C54.2827 45.5881 54.2281 45.4759 54.1734 45.3725C53.8613 44.7214 53.5499 44.0702 53.2392 43.419L53.1255 43.144L52.9745 42.3697L52.7689 41.5623C52.7492 41.3423 52.7317 41.1378 52.712 40.9266C52.6923 40.7154 52.6486 40.5658 52.6157 40.3854C52.6048 40.26 52.5917 40.1324 52.5785 40.007L52.5545 39.0127L52.2241 39.0303C52.2395 39.3427 52.2526 39.6572 52.2679 39.9718L52.3007 42.3763L52.3882 42.7877L52.4276 43.0318L52.4867 43.3178L52.6245 43.9052L52.7579 44.3672L52.8104 44.6092L52.9417 44.8776L53.1342 45.3571L53.2655 45.6849L53.8036 46.7849L53.9852 47.1038L55.451 48.261L56.0044 48.6173L56.9845 48.7185C57.258 49.0419 57.5293 49.0463 57.8005 48.7185L59.3516 48.5492L59.9838 48.2632L61.0098 47.9816L62.4406 47.4514L62.3596 47.183L60.6292 47.6846L59.2181 47.7616H58.8309L57.678 47.6978L57.3958 47.623L55.9366 47.128L55.5954 46.8266L54.3353 45.6959Z" fill="#C17164"/>
<path d="M62.4778 34.3731C64.4315 35.6469 65.9775 37.4612 66.9298 39.5978C66.2216 40.947 65.1455 42.065 63.8276 42.8207C62.7338 43.4806 61.3884 43.3376 60.1699 42.9725C58.9054 42.5941 57.8487 41.8527 56.8774 40.9244C55.3592 39.4724 54.9807 37.6619 55.0901 35.7129C55.1448 34.7339 55.4839 33.7726 55.6961 32.8024L57.6431 32.7122L58.0391 32.809L58.5575 32.831L58.9535 32.9388L61.384 33.612C61.524 33.6516 61.664 33.7 61.804 33.744L62.4778 34.3731Z" fill="#29170E"/>
<path d="M49.0543 39.3536C49.028 39.4372 49.004 39.5208 48.9799 39.6022C48.8554 39.742 48.7515 39.8991 48.6715 40.0686C48.3827 41.0079 48.1595 41.9715 47.8358 42.8998C47.3851 44.1824 47.4617 45.5265 47.7045 46.765C48.1297 48.9048 49.0727 50.9063 50.45 52.5925C51.5222 53.9147 52.833 55.0216 54.3135 55.8549C55.0674 56.2505 55.8618 56.5625 56.6827 56.7855C57.3267 56.976 57.9853 57.1129 58.6516 57.1946C59.3648 57.2958 60.0277 57.0011 60.7146 56.8603C62.3694 56.5246 63.8465 55.5958 64.8712 54.2468C65.7288 53.1469 66.3413 51.8599 67.0589 50.6566C67.1704 50.4718 67.2995 50.2958 67.422 50.1154C67.0567 51.3188 66.7657 52.5507 66.3085 53.7166C65.6629 55.4018 64.6689 56.9299 63.3923 58.2C62.5457 59.0359 61.5394 59.4187 60.4455 59.6937C60.1611 59.7663 59.8811 59.8587 59.5945 59.9137C59.3829 59.9619 59.1646 59.9731 58.9491 59.9467C57.4506 59.6959 55.928 59.5265 54.4666 59.1327C53.3837 58.8402 52.3599 58.2924 51.3492 57.782C49.9491 57.0759 48.899 55.9517 48.083 54.634C47.2363 53.2701 46.8601 51.7346 46.6719 50.144C46.3749 47.5658 46.5981 44.9538 47.3282 42.4643C47.6345 41.3951 48.1836 40.3964 48.6233 39.3646L49.0543 39.3536Z" fill="#630906"/>
<path d="M67.4439 50.1154C67.3213 50.2958 67.1923 50.4718 67.0807 50.6566C66.3544 51.8599 65.7418 53.1491 64.893 54.2468C63.8683 55.5958 62.3912 56.5245 60.7364 56.8603C60.0495 57.0011 59.3866 57.3002 58.6735 57.1946C58.0071 57.1129 57.3486 56.976 56.7046 56.7855C55.8836 56.5625 55.0892 56.2505 54.3353 55.8549C52.8548 55.0216 51.5441 53.9147 50.4719 52.5925C49.0945 50.9063 48.1515 48.9048 47.7263 46.765C47.4835 45.5265 47.4069 44.1824 47.8576 42.8998C48.1814 41.9715 48.4045 41.0079 48.6933 40.0686C48.7733 39.899 48.8772 39.742 49.0017 39.6022C48.8945 40.8781 48.702 42.1541 48.6955 43.43C48.6955 45.6959 49.1221 47.9178 50.1897 49.913C51.0493 51.5259 52.2867 52.9039 53.7949 53.9278C55.3766 55.0146 57.1005 55.4127 58.9185 55.4677C60.3689 55.5073 61.8543 55.3049 63.0991 54.4932C63.7992 54.0378 64.3374 53.3141 64.8974 52.6673C65.4212 52.0593 65.9092 51.421 66.3588 50.7556C66.8422 50.0428 67.2667 49.2861 67.7173 48.5557C67.7902 48.5851 67.8598 48.6219 67.9251 48.6657C67.7567 49.1453 67.5992 49.6293 67.4439 50.1154Z" fill="#8A2227"/>
<path d="M67.691 41.5909C67.3885 41.8776 67.1125 42.1912 66.8663 42.5281C65.9256 44.068 64.6786 45.3175 62.9788 45.8961C61.5984 46.3646 60.1348 46.435 58.8507 45.4451C58.6093 45.3046 58.3577 45.1825 58.0981 45.0799C55.9826 43.9382 54.3047 42.3389 53.3202 40.1258C52.8141 39.0103 52.5944 37.785 52.6814 36.562C52.7339 35.8668 52.6945 35.1651 52.6989 34.4655C52.855 34.1523 53.0969 33.8905 53.3962 33.7112C53.6955 33.5319 54.0396 33.4425 54.3878 33.4536C54.358 33.5801 54.3215 33.7049 54.2784 33.8275C53.1999 36.5158 53.7446 39.0346 55.2847 41.3071C56.6148 43.276 58.8025 43.8414 61.0011 44.1956C62.3925 44.4155 63.6876 43.9448 64.9389 43.3904C65.3111 43.2178 65.6317 42.95 65.8687 42.6138C66.35 41.9077 66.7438 41.1421 67.1813 40.4008L67.691 41.5909Z" fill="#8B3C47"/>
<path d="M67.1769 40.4096C66.7394 41.1509 66.3456 41.9165 65.8643 42.6226C65.6273 42.9588 65.3067 43.2266 64.9346 43.3992C63.6876 43.9536 62.3925 44.4309 60.9967 44.2043C58.8091 43.8502 56.6214 43.2848 55.2803 41.3159C53.749 39.0346 53.1955 36.5158 54.274 33.8363C54.3171 33.7137 54.3536 33.5889 54.3834 33.4623L55.696 32.8024C55.4772 33.7725 55.1447 34.7339 55.09 35.7128C54.9806 37.6619 55.3591 39.4724 56.8773 40.9243C57.8487 41.8527 58.9053 42.594 60.1698 42.9724C61.3883 43.3376 62.7294 43.4784 63.8276 42.8206C65.1454 42.0649 66.2216 40.9469 66.9297 39.5978C67.0128 39.8684 67.0938 40.139 67.1769 40.4096Z" fill="#44121F"/>
<path d="M53.2196 20.0783C53.2351 20.0494 53.2413 20.0163 53.2371 19.9837C54.495 19.2468 55.5648 19.6823 56.081 21.1123C56.5038 22.2383 56.4676 23.4865 55.9804 24.5859C55.7463 25.1534 55.4313 25.3096 54.9238 24.9114C54.5234 24.2163 54.0596 23.5497 53.7424 22.8194C53.3793 21.9592 52.8542 21.0969 53.2196 20.0783Z" fill="#FB8F8A"/>
<path d="M66.5053 24.9246L66.6628 24.7178L67.4022 24.7002L67.7063 24.874L68.1111 25.1776C68.1745 25.2788 68.2401 25.3778 68.3057 25.479L68.787 26.4821C68.8352 26.6339 68.8855 26.7835 68.9358 26.9331C68.9467 27.0541 68.9599 27.1729 68.973 27.2939C68.973 27.8593 68.973 28.4268 68.973 28.9922C68.9599 29.111 68.9446 29.2298 68.9314 29.3486L68.7477 29.7885L67.9623 30.8643L67.5991 31.2383L67.3344 31.4121C67.2143 31.2561 67.1218 31.0804 67.061 30.8929C66.8706 29.4608 66.6869 28.033 66.5403 26.5877C66.4725 26.0377 66.5162 25.479 66.5053 24.9246Z" fill="#FB8F8A"/>
<path d="M66.5054 24.9246C66.5054 25.479 66.4638 26.0378 66.5207 26.5855C66.6673 28.0243 66.851 29.4586 67.0414 30.8907C67.1022 31.0782 67.1947 31.2539 67.3148 31.4099L67.1595 31.6299C66.7657 31.6299 66.2582 31.7926 66.0044 31.6057C65.7506 31.4187 65.6762 30.8819 65.5515 30.4925C65.1534 29.2672 64.799 28 65.2715 26.7527C65.534 26.0774 66.0941 25.5186 66.5054 24.9246Z" fill="#B14D5A"/>
<path d="M53.2195 20.0783C52.8541 21.0968 53.3814 21.9592 53.7533 22.8193C54.0705 23.5497 54.5343 24.2162 54.9346 24.9114H54.2914L53.867 24.6628L53.6351 24.6518C52.5916 23.3803 52.305 21.9746 52.9154 20.4215C52.9679 20.2917 53.1145 20.1949 53.2195 20.0783Z" fill="#B14D5A"/>
<path d="M57.6474 30.1757C57.6014 29.8699 57.5577 29.5619 57.5139 29.2562L57.8924 29.2694C58.0149 30.2417 58.925 30.7389 59.9466 30.3913C60.1522 30.3231 60.3535 30.2439 60.557 30.1713L60.7757 30.4463L60.0013 30.9655L59.7432 31.2383C58.6209 31.5198 58.4306 31.4363 57.8377 30.4353C57.7796 30.3449 57.7161 30.2582 57.6474 30.1757Z" fill="#44121F"/>
<path d="M61.6924 32.2766C61.7164 31.8762 61.7405 31.4759 61.7711 30.9369C62.073 31.4935 62.1956 32.0368 62.5281 32.2568C62.8606 32.4768 63.3703 32.2986 63.8757 32.2986C64.0463 32.7584 63.5475 32.9256 63.2719 33.2138C62.4865 33.3326 61.9965 32.9608 61.6924 32.2766Z" fill="#44121F"/>
<path d="M61.6924 32.2766C62.0008 32.9608 62.4909 33.3326 63.2719 33.205C63.1034 33.4117 62.924 33.6097 62.7709 33.8297C62.6631 34.0044 62.5666 34.1859 62.4821 34.3731L61.8083 33.7439C61.7974 33.5987 61.7843 33.4557 61.7733 33.304C61.7405 32.9652 61.7143 32.6198 61.6924 32.2766Z" fill="#721B24"/>
<path d="M57.6473 30.1757C57.7158 30.2554 57.7793 30.3391 57.8377 30.4265C58.4283 31.4274 58.6209 31.511 59.7431 31.2295C59.4369 31.808 58.879 32.0434 58.3518 31.8212C58.0302 31.6892 57.853 31.1613 57.6648 30.7719C57.5861 30.6091 57.6495 30.3759 57.6473 30.1757Z" fill="#671722"/>
<path d="M68.9796 28.9922C68.9796 28.4268 68.9796 27.8593 68.9796 27.2939C68.9818 27.8593 68.9796 28.4268 68.9796 28.9922Z" fill="#B14D5A"/>
<path d="M57.8924 29.2694L57.5139 29.2584C57.4702 29.1176 57.4242 28.979 57.3805 28.8382L57.5402 28.7568L57.8924 29.2694Z" fill="#671722"/>
<path d="M67.5991 31.2383L67.9798 30.8643L67.5991 31.2383Z" fill="#B14D5A"/>
<path d="M53.8672 24.6694L54.2916 24.918L53.8672 24.6694Z" fill="#762029"/>
<path d="M68.9445 26.9331C68.8942 26.7835 68.8439 26.6339 68.7958 26.4821C68.8439 26.6339 68.8942 26.7835 68.9445 26.9331Z" fill="#B14D5A"/>
<path d="M68.7543 29.7863L68.938 29.3464L68.7543 29.7863Z" fill="#B14D5A"/>
<path d="M58.0389 32.809L57.6429 32.7122L58.0389 32.809Z" fill="#44121F"/>
<path d="M58.9535 32.9388L58.5575 32.831L58.9535 32.9388Z" fill="#44121F"/>
<path d="M49.0543 39.3537H48.6539L49.074 39.0875L49.0543 39.3537Z" fill="#8A2227"/>
<path d="M59.7432 31.2383L59.9969 30.9721L59.7432 31.2383Z" fill="#671722"/>
<path d="M67.7151 24.874L67.411 24.7002L67.7151 24.874Z" fill="#B14D5A"/>
<path d="M68.3145 25.479C68.2488 25.3778 68.1832 25.2788 68.1198 25.1776L68.3145 25.479Z" fill="#B14D5A"/>
<path d="M73.3046 99.4521C73.7421 99.5379 73.9127 99.8327 74.1424 100.224C74.6347 101.054 75.21 101.907 75.9473 102.508C78.5725 104.644 81.5412 106.144 84.7308 107.286C86.0846 107.779 87.4967 108.091 88.9311 108.214C89.7088 108.272 90.4906 108.227 91.2566 108.08C93.5295 107.689 95.7226 106.923 97.7475 105.814C99.4622 104.887 101.053 103.745 102.482 102.415C103.708 101.248 104.755 99.9038 105.588 98.427C107.185 95.6067 108.213 92.5621 108.959 89.4405C109.469 87.2005 109.834 84.93 110.053 82.6428C110.243 80.8499 110.169 79.0284 110.213 77.2179C110.213 76.9518 110.119 76.6042 110.589 76.6328L110.602 78.2035V78.4653C110.644 79.2396 110.712 80.0052 110.725 80.7883C110.744 81.8883 110.725 82.9882 110.725 84.1058L110.6 84.6315C110.558 85.1991 110.517 85.7689 110.473 86.3364C110.473 86.4244 110.473 86.5124 110.473 86.6004V86.992L110.348 87.388L110.211 88.8267C110.169 88.9169 110.13 89.0049 110.088 89.0929C109.677 90.7538 109.294 92.4235 108.848 94.0756C108.075 96.9223 106.715 99.5137 105.091 101.934C104.199 103.267 103.024 104.435 101.854 105.55C100.94 106.46 99.9042 107.235 98.7757 107.853C96.9412 108.84 94.8853 109.335 92.8055 109.292C91.2938 109.239 89.7581 109.268 88.2814 108.995C86.4796 108.685 84.7133 108.193 83.0091 107.528C81.1102 106.758 79.3163 105.713 77.518 104.714C76.8377 104.336 76.2711 103.753 75.6541 103.262C75.3858 102.961 75.1374 102.642 74.9103 102.308C74.3546 101.362 73.8362 100.402 73.3046 99.4521Z" fill="#83232B"/>
<path d="M118.303 121.365L116.214 124.379C116.025 123.563 115.883 122.731 115.636 121.935C115.199 120.498 114.743 119.057 114.172 117.672C113.794 116.754 113.195 115.929 112.694 115.062L112.169 114.301C111.989 113.828 111.917 113.265 111.611 112.9C110.779 111.917 109.922 110.92 108.646 110.48L107.852 109.994L109.694 109.431C109.843 109.558 109.99 109.792 110.132 109.798C111.882 109.866 113.181 110.72 114.387 111.941C115.453 113.021 116.314 114.289 116.927 115.681C117.561 117.122 118.001 118.653 118.458 120.168C118.572 120.52 118.364 120.963 118.303 121.365Z" fill="#91292E"/>
<path d="M75.6148 104.82C75.2561 105.139 74.8426 105.412 74.5516 105.786C73.6766 106.91 72.9087 108.122 71.9899 109.204C71.1632 110.206 70.2407 111.123 69.2356 111.943C67.797 113.121 66.0883 113.918 64.2652 114.262C63.3517 114.427 62.4259 114.514 61.4978 114.521C60.2355 114.521 59.0016 114.326 58.0391 113.362C58.0391 113.274 58.0391 113.186 58.0391 113.098C58.3009 112.993 58.5699 112.907 58.8441 112.841C60.1567 112.621 61.5065 112.546 62.7819 112.181C64.1383 111.793 65.4268 111.156 66.7198 110.584C66.9604 110.48 67.1113 110.17 67.3039 109.957C68.8659 109.536 70.091 108.538 71.3467 107.587C71.432 107.499 71.5195 107.411 71.6048 107.321C71.7452 107.275 71.879 107.21 72.003 107.13C72.9502 106.316 73.88 105.48 74.847 104.679C75.0884 104.525 75.3487 104.403 75.6214 104.316L75.6148 104.82Z" fill="#671722"/>
<path d="M75.6148 104.316C75.3422 104.403 75.0818 104.525 74.8404 104.679C73.8822 105.48 72.9524 106.316 71.9964 107.13C71.8724 107.21 71.7386 107.275 71.5983 107.321C71.9789 106.835 72.3355 106.327 72.7468 105.863C73.4206 105.101 74.1185 104.36 74.8273 103.634C74.9989 103.518 75.1902 103.435 75.3917 103.388V103.641L75.628 104.05L75.6148 104.316Z" fill="#792616"/>
<path d="M86.2184 112.176H85.8268L85.5708 111.912C86.0171 111.426 86.0215 112.042 86.2184 112.176Z" fill="#922B30"/>
<path d="M75.6586 107.323C75.6586 107.061 75.6586 106.8 75.6586 106.536C75.652 106.8 75.6542 107.061 75.6586 107.323Z" fill="#902E1D"/>
<path d="M76.177 112.706L75.9276 112.986V112.302L76.177 112.706Z" fill="#902E1D"/>
<path d="M75.8969 108.773L75.6628 108.1L75.8969 108.773Z" fill="#902E1D"/>
<path d="M110.607 84.6249L110.731 84.0992L110.607 84.6249Z" fill="#91292E"/>
<path d="M110.346 87.3814L110.471 86.9854L110.346 87.3814Z" fill="#91292E"/>
<path d="M75.6367 104.054L75.4004 103.645L75.6367 104.054Z" fill="#902E1D"/>
<path d="M110.611 78.4587V78.1969C110.609 78.2849 110.609 78.3729 110.611 78.4587Z" fill="#91292E"/>
<path d="M110.086 89.0951C110.127 89.0071 110.167 88.9191 110.208 88.8289C110.167 88.9103 110.127 88.9983 110.086 89.0951Z" fill="#91292E"/>
<path d="M58.039 113.362C58.4065 113.881 58.7215 114.449 59.1525 114.902C59.9738 115.793 60.8406 116.641 61.7493 117.443C62.1236 117.726 62.5725 117.892 63.04 117.92C63.9065 117.983 64.7762 117.989 65.6433 117.935C67.6713 117.839 69.1283 118.815 70.2199 120.408C70.8981 121.405 71.491 122.458 72.1035 123.488C72.1841 123.683 72.2371 123.889 72.261 124.1C72.0073 123.807 71.6726 123.554 71.5172 123.22C71.1475 122.41 70.4234 122.172 69.6883 122.027C69.0583 121.904 68.3976 121.935 67.7544 121.864C67.3803 121.825 67.0172 121.708 66.6453 121.644C66.4533 121.62 66.2589 121.623 66.0677 121.653C65.5668 121.719 65.0723 121.847 64.5692 121.873C61.6202 122.093 58.6625 122.3 55.7178 122.533C53.7489 122.689 51.7603 122.859 49.7871 123.072C48.7064 123.189 47.641 123.435 46.5624 123.58C45.0879 123.778 43.6091 123.939 42.1302 124.111C40.9314 124.247 39.7238 124.355 38.5315 124.515C37.453 124.66 36.381 124.861 35.309 125.037C33.6052 125.327 31.8546 125.125 30.2599 124.456C27.9606 123.514 26.2499 121.924 24.7382 120.001C23.3687 118.259 22.3777 116.327 21.4829 114.323C21.4196 114.211 21.3464 114.105 21.2642 114.006C21.1417 112.83 21.8395 111.932 22.358 111.019C23.3184 109.365 24.3991 107.779 25.447 106.179C26.5222 104.537 27.8516 103.079 29.3848 101.859C29.7615 101.578 30.1223 101.276 30.4655 100.955C30.5924 100.825 30.5902 100.567 30.6471 100.367C30.8728 100.223 31.1082 100.096 31.3515 99.9845C32.5613 99.5445 33.758 98.9923 34.9984 98.6953C36.3211 98.3897 37.6696 98.2107 39.0259 98.1608C40.9029 98.0816 42.6793 98.5898 44.3813 99.3949C45.6764 100.004 46.7134 100.935 47.7328 101.901C49.2642 103.333 50.8175 104.732 52.2088 106.285C54.1405 108.443 55.9279 110.731 57.7765 112.964L58.0346 113.36L58.039 113.362Z" fill="#902E1D"/>
<path d="M57.7809 112.966C55.9323 110.733 54.145 108.445 52.2133 106.287C50.8219 104.734 49.2577 103.335 47.7373 101.903C46.7178 100.944 45.6809 100.006 44.3858 99.3971C42.6838 98.592 40.9074 98.0772 39.0304 98.163C37.6741 98.2129 36.3256 98.3919 35.0028 98.6976C33.7559 98.9945 32.5658 99.5379 31.356 99.9867C31.1127 100.098 30.8773 100.226 30.6516 100.369C30.1943 99.5467 29.6671 98.7548 29.2952 97.8946C28.6447 96.4757 28.269 94.9452 28.1882 93.3849C28.1532 92.2343 28.2407 91.0772 28.3173 89.9267C28.3581 89.4973 28.459 89.0759 28.617 88.6749C28.6608 88.5517 28.9233 88.5099 29.0852 88.4307C29.2121 88.9235 29.2558 89.4603 29.4768 89.9068C30.0064 91.0007 30.8234 91.928 31.8395 92.5885C32.6314 93.1077 33.3949 93.6488 34.3159 93.9084C35.6745 94.278 37.033 94.652 38.3981 94.9908C39.6954 95.3119 41.0605 95.3163 42.244 96.1193C42.8872 96.5593 43.7645 96.6341 44.4317 97.0455C46.1447 98.1102 47.8182 99.2453 49.4634 100.402C50.5572 101.172 51.6204 102 52.6464 102.862C53.8825 103.9 55.0529 105.011 56.2714 106.078C57.2121 106.905 58.1375 107.754 59.1263 108.52C60.0342 109.224 60.9552 109.976 61.99 110.43C62.7338 110.753 63.6723 110.636 64.5277 110.685C65.5231 110.744 66.3938 110.269 67.3017 109.965C67.1091 110.185 66.9582 110.489 66.7176 110.592C65.4181 111.164 64.1295 111.802 62.7797 112.189C61.5109 112.555 60.1545 112.629 58.8419 112.849C58.5677 112.915 58.2987 113.001 58.0369 113.107L57.7809 112.966Z" fill="#721B24"/>
<path d="M55.4334 127.386H53.9983C54.1954 127.208 54.451 127.11 54.7158 127.11C54.9807 127.11 55.2363 127.208 55.4334 127.386Z" fill="#792616"/>
<path d="M71.607 107.321C71.5217 107.411 71.4342 107.499 71.3489 107.587C71.4342 107.499 71.5217 107.411 71.607 107.321Z" fill="#792616"/>
<path d="M91.3026 58.651L91.3551 57.8326C91.5935 58.4464 91.9807 59.0447 92.0398 59.6739C92.1951 61.304 92.1448 62.9451 91.5454 64.5136C91.0729 65.75 90.4275 66.9335 89.1543 67.4329C87.6076 68.0313 86.0259 68.0687 84.6674 66.8367C84.6002 66.7547 84.5436 66.6646 84.4989 66.5683C85.4177 66.6409 86.354 66.8631 87.2466 66.7443C88.0889 66.6299 89.058 66.3505 89.6684 65.8028C91.1669 64.4564 91.7029 62.6349 91.5301 60.6155C91.5301 60.1403 91.5221 59.6636 91.506 59.1855L91.3026 58.651Z" fill="#A0505A"/>
<path d="M87.6207 69.1026C88.277 69.1026 88.9705 69.1576 89.6509 69.0894C90.8935 68.9684 91.6023 68.0907 92.0136 67.0369C92.3155 66.2626 92.3745 65.3914 92.5386 64.5621C92.5634 64.3725 92.6165 64.1879 92.6961 64.0143C92.9565 65.6246 92.9958 67.2085 92.018 68.623C91.3616 69.569 89.6312 69.9825 88.463 69.503C88.1633 69.3864 87.857 69.2192 87.6207 69.1026Z" fill="#44121F"/>
<path d="M91.53 60.6089C91.7029 62.6283 91.1669 64.4498 89.6683 65.7962C89.058 66.3439 88.0888 66.6233 87.2466 66.7377C86.354 66.8565 85.4177 66.6343 84.4988 66.5617L84.3741 66.4165C84.5273 66.3747 84.7132 66.2559 84.8292 66.3043C86.0499 66.8103 87.2356 66.5507 88.2835 65.9502C89.299 65.3465 90.0827 64.4166 90.5084 63.3103C90.8344 62.5052 91.0466 61.6538 91.32 60.8244C91.3485 60.7386 91.4579 60.6793 91.53 60.6089Z" fill="#44121F"/>
<path d="M96.4261 60.8618C96.4918 60.9674 96.5552 61.0818 96.6187 61.1786C96.5552 61.073 96.4918 60.9674 96.4261 60.8618Z" fill="#A0505A"/>
<path d="M96.6952 61.6494C96.7564 61.755 96.8199 61.8694 96.8833 61.9662C96.8155 61.8606 96.7521 61.755 96.6952 61.6494Z" fill="#A0505A"/>
<path d="M91.3026 58.651L91.5061 59.179L91.3026 58.651Z" fill="#44121F"/>
<path d="M74.0769 120.314L74.3197 121.633L74.0769 120.314Z" fill="#902E1D"/>
<path d="M74.1907 117.157C74.1535 117.421 74.1141 117.685 74.0769 117.949C74.1141 117.694 74.1622 117.421 74.1907 117.157Z" fill="#902E1D"/>
<path d="M74.3328 122.021L74.5822 122.813L74.3328 122.021Z" fill="#902E1D"/>
<path d="M74.5713 115.973L74.3525 116.506L74.5713 115.973Z" fill="#902E1D"/>
<path d="M74.5997 123.072C74.6391 123.204 74.6763 123.336 74.7157 123.47C74.6697 123.336 74.6325 123.204 74.5997 123.072Z" fill="#902E1D"/>
<path d="M75.1248 125.037L75.256 125.301L75.1248 125.037Z" fill="#902E1D"/>
<path d="M87.8919 126.326H86.8834C87.0978 125.634 87.3107 124.941 87.5222 124.247C87.6447 124.941 87.768 125.634 87.8919 126.326Z" fill="#671722"/>
<path d="M87.6382 122.142C87.5113 122.54 87.3867 122.938 87.2598 123.334C87.2138 123.072 87.1701 122.808 87.1263 122.544L87.2926 122.667L87.6382 122.142Z" fill="#AF3D29"/>
<path d="M86.6318 121.35C86.7434 121.539 86.8506 121.726 86.9687 121.913C86.8506 121.726 86.7456 121.539 86.6318 121.35Z" fill="#AF3D29"/>
<path d="M83.7463 115.978L83.987 116.259C83.906 116.167 83.8273 116.072 83.7463 115.978Z" fill="#AF3D29"/>
<path d="M86.2294 120.175C86.3038 120.272 86.3781 120.371 86.4481 120.47C86.3759 120.371 86.3038 120.272 86.2294 120.175Z" fill="#AF3D29"/>
<path d="M87.4042 118.204L87.6404 118.745L87.4042 118.204Z" fill="#AF3D29"/>
<path d="M86.8834 115.318L87.1219 115.595L86.8834 115.318Z" fill="#AF3D29"/>
<path d="M100.152 124.793L99.933 124.498L100.152 124.793Z" fill="#AF3D29"/>
<path d="M56.9824 48.7185L56.0045 48.6173L55.451 48.2675L53.9853 47.1104L53.8037 46.7914L53.2655 45.6915L53.1343 45.3637C53.0708 45.2031 53.0052 45.0425 52.9418 44.8841C52.898 44.7939 52.8564 44.7059 52.8127 44.6179L52.7602 44.376C52.7164 44.222 52.6705 44.068 52.6267 43.914C52.5808 43.7182 52.5349 43.5224 52.4911 43.3266C52.4714 43.232 52.4495 43.1374 52.4298 43.0406C52.4102 42.9438 52.4036 42.8778 52.3927 42.7942C52.362 42.6578 52.3336 42.5215 52.303 42.3851L52.2701 39.9806L52.5808 40.0158C52.5939 40.1412 52.607 40.2688 52.618 40.3942C52.6508 40.5746 52.6814 40.7549 52.7142 40.9353C52.7471 41.1157 52.7514 41.3577 52.7711 41.5711C52.8389 41.8395 52.9068 42.1101 52.9768 42.3785L53.1277 43.1528C53.1649 43.2452 53.2043 43.3354 53.2415 43.4278C53.5521 44.079 53.8635 44.7301 54.1756 45.3813L54.3375 45.7047L55.5954 46.8266L55.9367 47.128L57.3959 47.623L57.6781 47.6978L58.831 47.7616H59.2182L60.6293 47.6868L61.0099 47.9816L59.9839 48.2631L59.3516 48.5491L57.8006 48.7185H56.9824Z" fill="#29170E"/>
<path d="M61.0077 47.9816L60.6271 47.6868L62.3575 47.183L62.4385 47.4514L61.0077 47.9816Z" fill="#8B3C47"/>
<path d="M52.5787 40.0114L52.268 39.9762C52.2527 39.6616 52.2396 39.347 52.2242 39.0346L52.5546 39.017L52.5787 40.0114Z" fill="#8B3C47"/>
<path d="M56.9823 48.7185H57.7983C57.5358 49.0573 57.2558 49.0419 56.9823 48.7185Z" fill="#8B3C47"/>
<path d="M59.3495 48.5491L59.9817 48.2631L59.3495 48.5491Z" fill="#8B3C47"/>
<path d="M52.9746 42.3741C52.9046 42.1057 52.8367 41.8351 52.7689 41.5667L52.9746 42.3741Z" fill="#8B3C47"/>
<path d="M55.4487 48.2675L56.0044 48.6173L55.4487 48.2675Z" fill="#8B3C47"/>
<path d="M52.723 40.9309C52.6902 40.7506 52.6595 40.5702 52.6267 40.3898C52.6486 40.5702 52.6792 40.7506 52.723 40.9309Z" fill="#8B3C47"/>
<path d="M55.9345 47.1236L55.5933 46.8222L55.9345 47.1236Z" fill="#8B3C47"/>
<path d="M52.3008 42.3806C52.3314 42.517 52.3598 42.6534 52.3905 42.7898C52.3598 42.6534 52.3314 42.517 52.3008 42.3806Z" fill="#8B3C47"/>
<path d="M52.6245 43.9096C52.6683 44.0636 52.7142 44.2176 52.758 44.3716C52.723 44.2176 52.6683 44.0636 52.6245 43.9096Z" fill="#8B3C47"/>
<path d="M54.3354 45.7003L54.1735 45.3769C54.2282 45.4847 54.2828 45.5925 54.3354 45.7003Z" fill="#8B3C47"/>
<path d="M53.1321 45.3593L53.2633 45.6871L53.1321 45.3593Z" fill="#8B3C47"/>
<path d="M53.8014 46.7914L53.983 47.1104L53.8014 46.7914Z" fill="#8B3C47"/>
<path d="M52.8104 44.6135C52.8542 44.7015 52.8957 44.7895 52.9395 44.8797C52.8957 44.7895 52.8542 44.7015 52.8104 44.6135Z" fill="#8B3C47"/>
<path d="M53.2392 43.4234C53.2021 43.331 53.1627 43.2408 53.1255 43.1484C53.1605 43.2386 53.2021 43.3376 53.2392 43.4234Z" fill="#8B3C47"/>
<path d="M52.4276 43.0362C52.4473 43.133 52.4692 43.2276 52.4889 43.3222C52.467 43.2276 52.4473 43.133 52.4276 43.0362Z" fill="#8B3C47"/>
<path d="M57.6758 47.6934L57.3936 47.6186L57.6758 47.6934Z" fill="#8B3C47"/>
<path d="M57.7809 112.966L58.0412 113.098C58.0412 113.186 58.0412 113.274 58.0412 113.362C57.9537 113.23 57.8684 113.098 57.7809 112.966Z" fill="#792616"/>
</svg>
