<svg width="339" height="374" viewBox="0 0 339 374" fill="none" xmlns="http://www.w3.org/2000/svg">
<path d="M186.904 219.929H187.315C187.483 219.697 187.646 219.464 187.809 219.227C188.359 219.118 188.891 218.93 189.387 218.668C191.107 217.439 192.774 216.131 194.463 214.86C196.693 213.178 198.928 211.501 201.148 209.808C201.242 209.734 201.237 209.528 201.311 209.28L199.449 208.289C195.241 207.292 191.875 204.992 188.756 202.092C186.053 199.578 183.812 196.607 182.134 193.316C179.38 188.008 177.627 182.237 176.964 176.291C176.37 171.326 176.08 166.329 176.096 161.328C176.217 155.492 177.266 149.713 179.204 144.209C180.088 141.625 181.156 139.103 182.055 136.524C182.117 136.272 182.12 136.009 182.064 135.756C182.007 135.502 181.892 135.265 181.729 135.064C175.943 129.789 177.889 120.919 182.255 116.768C183.791 115.302 185.29 113.893 187.625 115.096C187.997 117.459 188.368 119.823 188.74 122.19C188.309 121.609 187.802 121.091 187.231 120.65C186.615 120.291 185.737 119.922 185.127 120.096C181.445 121.151 179.925 127.854 182.707 130.475C184.411 132.057 186.131 131.82 187.373 129.805C187.804 129.104 188.325 128.455 188.803 127.78C190.076 126.307 191.347 124.837 192.617 123.371C192.869 123.329 193.185 123.371 193.369 123.244C196.335 121.024 199.154 118.614 202.268 116.589C205.086 114.641 208.105 113.004 211.273 111.705C214.334 110.544 217.7 110.191 220.935 109.479C221.813 109.289 222.702 108.888 223.565 108.952C228.135 109.157 232.654 109.964 236.714 112.116C242.296 114.977 247.113 119.136 250.763 124.246C250.682 124.592 250.659 124.948 250.694 125.301C251.394 127.743 252.272 130.138 252.835 132.611C253.508 135.596 253.887 138.65 254.445 141.667C255.138 145.799 254.975 150.031 253.966 154.098C252.94 158.475 250.81 162.536 248.485 166.386C246.818 169.145 245.051 171.85 243.226 174.503C240.517 178.427 237.724 182.303 234.926 186.169C233.737 187.81 232.438 189.376 231.191 190.974L231.523 191.275C232.638 190.383 233.79 189.529 234.863 188.59C237.892 185.927 240.869 183.205 243.909 180.552C245.945 178.775 248.059 177.098 250.111 175.342C254.276 171.766 258.431 168.176 262.576 164.572C262.886 165.099 263.444 165.627 263.481 166.154C263.681 169.319 263.76 172.483 263.881 175.616C263.881 178.126 263.868 180.633 263.844 183.137C263.844 183.553 263.844 183.975 263.844 184.392C263.844 185.12 263.844 185.848 263.844 186.575L263.56 187.541C263.56 188.785 263.56 190.035 263.523 191.285C263.428 191.612 263.334 191.934 263.244 192.256C263.144 192.783 263.05 193.31 262.95 193.838V194.465L262.65 197.298C262.65 197.503 262.65 197.714 262.65 197.925L262.05 201.701C261.95 202.023 261.85 202.345 261.756 202.667C261.756 203.595 261.703 204.518 261.682 205.446L261.124 206.438C261.014 207.271 260.909 208.104 260.798 208.937C260.704 209.154 260.604 209.37 260.509 209.591C259.673 213.22 258.978 216.891 257.953 220.461C257.07 223.279 256.039 226.048 254.865 228.757C252.446 234.765 249.053 239.944 243.326 243.44C239.273 245.92 234.849 247.731 230.224 248.804C224.78 250.065 219.21 250.312 213.613 250.165C206.586 249.98 199.717 249.168 192.974 246.911C188.54 245.429 184.869 242.881 181.071 240.381C179.536 239.374 177.774 238.715 176.111 237.897C174.623 237.017 173.908 233.019 174.981 231.299C175.854 229.912 176.816 228.583 177.742 227.228C178.083 227.152 178.411 227.026 178.715 226.853C181.313 224.775 183.88 222.671 186.463 220.572L186.904 219.929ZM203.846 178.691C204.551 179.455 205.308 180.178 205.95 180.995C207.475 182.931 209.679 183.722 211.893 183.97C216.627 184.497 221.224 183.849 225.395 181.117C228.158 179.347 230.613 177.136 232.664 174.572C236.577 169.625 237.566 163.907 237.13 157.742C236.809 153.753 235.514 149.903 233.358 146.535C233.027 146.007 232.306 145.712 231.728 145.316L231.149 144.362C230.955 144.193 230.697 144.061 230.581 143.834C228.083 139.383 224.464 136.857 219.21 137.094L219.136 137.152L218.647 136.466C217.863 136.662 217.069 136.931 216.285 137.047C212.709 137.574 209.448 138.835 206.818 141.334C205.277 142.806 204.125 144.683 202.799 146.382L202.342 147.168L200.764 150.648L200.275 151.893C200.233 152.109 200.185 152.32 200.143 152.537L199.854 153.46L199.764 156.239C199.483 156.704 199.282 157.214 199.17 157.747C199.033 160.31 199.033 162.879 199.17 165.442C199.423 168.501 199.791 171.592 201.621 174.234L203.199 177.657L203.846 178.691ZM195.236 142.632C195.809 144.494 198.918 145.77 200.543 144.858C200.91 144.656 201.192 144.328 201.337 143.935C202.148 141.255 202.13 138.392 201.285 135.723C200.68 137.648 200.233 139.272 199.654 140.833C198.865 142.927 196.866 142.4 195.236 142.605V142.632ZM204.035 134.193L203.846 134.689C204.526 135.43 205.269 136.111 206.066 136.725C206.649 137.105 207.58 137.442 208.138 137.252C208.462 137.067 208.743 136.816 208.962 136.514C209.181 136.212 209.334 135.867 209.411 135.501C209.579 134.415 209.59 133.31 209.442 132.221C209.379 131.577 209.016 130.966 208.638 129.927C208.112 131.567 207.891 132.759 207.354 133.787C206.597 135.18 205.187 134.225 204.035 134.156V134.193Z" fill="#CF4A32"/>
<path d="M290.063 282.769C289.785 283.655 289.537 284.541 289.227 285.406C288.891 286.429 289.227 286.92 290.311 287.141C296.864 288.518 303.46 289.81 309.945 291.398C313.353 292.22 316.674 293.366 319.865 294.82C323.161 296.374 326.315 298.215 329.29 300.321C332.031 302.241 332.883 305.922 330.127 308.66C327.06 311.708 323.405 313.638 319.46 315.02C314.895 316.602 310.256 318.026 305.58 319.239C300.904 320.452 296.181 321.518 291.42 322.351C284.525 323.569 277.582 324.54 270.65 325.579C265.716 326.317 260.777 327.04 255.828 327.688C253.151 328.031 250.447 328.179 247.754 328.385C242.316 328.806 236.881 329.216 231.449 329.613C230.876 329.656 230.297 329.613 229.724 329.656C223.749 330.051 217.774 330.494 211.793 330.848C208.411 331.048 205.024 331.18 201.637 331.201C184.978 331.327 168.322 331.421 151.669 331.48C146.61 331.48 141.55 331.333 136.495 331.18C131.441 331.027 126.502 330.884 121.51 330.542C115.956 330.162 110.423 329.529 104.868 329.075C101.397 328.791 97.9098 328.68 94.4384 328.395C90.2306 328.052 86.0702 327.599 81.8887 327.198C80.4949 327.061 79.0905 327.003 77.6809 326.808C73.7151 326.28 69.7545 325.637 65.7887 325.078C62.3015 324.592 58.7985 324.192 55.3113 323.67C53.8123 323.448 52.3448 322.989 50.8563 322.699C46.4855 321.845 42.0726 321.185 37.7438 320.141C33.5045 319.123 29.3282 317.821 25.1731 316.449C22.4433 315.553 19.6556 314.609 17.1888 313.179C14.6378 311.708 11.887 310.411 10.0408 307.863C8.19466 305.316 9.04674 302.383 11.6556 300.195C13.8498 298.293 16.3745 296.813 19.1033 295.828C22.5485 294.62 25.941 293.222 29.4387 292.215C34.0252 290.891 38.6906 289.847 43.3296 288.718C45.7123 288.143 48.1107 287.663 50.5092 287.136C51.377 286.957 51.9135 286.545 51.8557 285.585C52.0326 285.946 52.1718 286.325 52.2712 286.714C52.3501 287.242 52.187 287.853 52.3343 288.365C54.0876 294.479 56.4671 300.394 59.4349 306.017C59.7084 306.545 60.3606 306.866 60.8393 307.288L61.3179 307.373C61.7081 307.638 62.1428 307.831 62.6013 307.942C64.1792 307.995 65.7992 307.942 67.3982 307.942L70.8591 308L73.3627 307.953L75.8347 307.916L78.4278 307.441L82.4515 307.309H89.3523L91.8717 307.378L94.3753 307.33L96.9 307.083L100.34 306.982L105.657 306.698H111.301L112.253 306.777L114.762 306.719L119.78 306.466L122.599 306.418L133.587 306.149C133.771 306.233 133.955 306.397 134.113 306.392C137.347 306.302 140.587 306.207 143.822 306.065C144.064 306.065 144.295 305.664 144.527 305.453L149.871 305.173L152.995 305.11L155.825 305.168L158.654 305.1L160.821 304.809L166.791 304.709L172.445 304.525L175.885 304.472H177.463L178.1 304.551L180.651 304.308C180.736 304.303 180.823 304.303 180.908 304.308L181.292 304.509C181.341 304.495 181.387 304.47 181.425 304.436C181.463 304.403 181.493 304.361 181.513 304.314L182.218 304.282L185.942 304.551H188.766L190.376 304.308L191.275 304.224L191.901 304.192L197.86 303.923L200.091 303.66L201.311 303.602L203.825 303.533L207.249 303.227L208.191 303.322L213.54 303.233H214.145L220.125 302.942L228.903 302.689C229.125 302.809 229.365 302.891 229.613 302.932C232.769 302.842 235.962 302.747 239.134 302.6C239.391 302.6 239.633 302.215 239.88 302.009L240.817 301.93L241.464 301.729H247.097H247.717L251.178 301.429C252.541 302.373 253.892 301.766 255.244 301.429L260.825 301.355L264.385 300.896L265.29 300.859L268.741 300.759L271.854 300.479L274.7 300.537L276.604 300.226L279.081 299.857C280.012 299.082 280.969 298.338 281.869 297.521C284.441 295.19 286.203 292.247 287.812 289.225C288.338 288.212 288.806 287.115 288.054 285.986L290.063 282.769Z" fill="#AF7280"/>
<path d="M72.7788 93.4355C74.3147 89.9335 75.6138 86.3049 77.4284 82.9559C80.6632 76.9909 85.2707 72.1757 90.704 68.1094C94.2438 65.4723 97.8835 63.041 101.986 61.4008C105.841 59.8555 109.707 58.3365 113.61 56.9389C115.062 56.4115 116.645 56.2744 118.17 55.9579C119.199 56.4299 120.252 56.8454 121.326 57.2026C123.851 57.8988 126.402 58.4842 128.937 59.1171L129.494 59.1435L130.515 59.7394H132.061C133.281 60.694 134.039 60.3196 134.602 58.9589C135.778 56.3253 135.871 53.3327 134.859 50.6311C133.592 47.203 131.02 46.1587 128.022 47.9255C127.654 45.4098 129.226 43.7063 130.489 41.8392C134.444 42.008 137.095 44.2495 139.325 47.2874C140.909 49.3624 141.826 51.8713 141.955 54.4812C142.078 57.1963 141.453 59.8929 140.151 62.2762C139.73 63.0515 139.756 63.4893 140.582 63.8848C141.308 64.2329 141.981 64.7023 142.686 65.1137L152.153 70.6937C152.206 70.8888 152.195 71.1525 152.322 71.2685C155.127 73.8634 157.957 76.4442 160.811 79.0109C161.165 79.2599 161.537 79.4804 161.926 79.6701C161.773 78.1776 161.647 77.0015 161.526 75.8306L161.9 75.3032L162.526 74.8918L163.441 74.0005L165.329 71.4162L165.771 70.3614L165.871 69.507C165.871 68.1516 165.871 66.7909 165.871 65.4354L165.781 64.5705C165.66 64.2118 165.539 63.8532 165.424 63.4893L164.267 61.0843L163.798 60.3618L162.825 59.6339L162.094 59.2173L160.316 59.2595C160.017 56.1952 162.42 54.7185 164.082 52.8146C166.53 53.9342 168.581 55.7735 169.963 58.0887C172.324 61.9967 173.792 66.1949 173.029 70.8202C172.783 72.4594 172.14 74.0131 171.157 75.3454C169.395 77.5552 167.475 79.7281 164.745 80.8779C163.756 81.2945 163.804 81.9327 164.251 82.766C166.355 86.5264 168.664 90.1761 170.389 94.0894C171.8 97.4983 172.898 101.029 173.671 104.638C174.67 108.883 175.428 113.192 176.059 117.512C176.97 124.196 177.168 130.959 176.648 137.685C176.351 143.149 175.361 148.552 173.702 153.766C172.633 156.85 171.359 159.859 169.889 162.774C168.921 164.757 167.533 166.534 166.407 168.443C166.178 168.987 166.026 169.561 165.955 170.147C165.429 170.405 164.866 170.632 164.377 170.933C163.888 171.233 163.325 171.682 162.773 172.061C160.669 172.652 158.591 173.264 156.493 173.839C153.226 174.725 149.997 175.99 146.673 176.354C141.897 176.882 137.095 177.478 132.214 176.84C127.48 176.228 122.746 176.022 118.254 174.203C115.072 172.921 111.811 171.808 108.708 170.363C105.95 169.065 103.281 167.585 100.719 165.933C95.8048 162.738 91.3353 158.904 87.4272 154.53C84.8853 151.858 82.7577 148.817 81.1155 145.512C79.7953 142.711 78.2858 140 77.0918 137.152C76.2085 135.001 75.5048 132.78 74.9879 130.512C74.3725 127.944 73.936 125.328 73.5573 122.707C73.1102 119.626 72.5684 116.525 72.5053 113.419C72.3475 107.09 72.1897 100.761 73.3364 94.5114C73.3837 94.1844 72.9734 93.7888 72.7788 93.4355ZM143.638 74.8918L144.248 74.2537L146.11 73.009L145.584 72.3497C145.095 72.529 144.611 72.7189 144.117 72.8771C141.66 73.7104 139.472 72.5185 139.178 70.1873L138.331 68.9374L137.947 69.1325L138.268 70.1399C138.373 70.873 138.478 71.6114 138.589 72.3445C138.589 72.8244 138.441 73.3993 138.631 73.7737C139.083 74.6914 139.509 75.973 140.282 76.2895C141.55 76.8169 142.912 76.2578 143.627 74.8707L143.638 74.8918ZM148.314 77.4023C148.377 78.225 148.44 79.0531 148.508 79.8811C148.508 80.2292 148.566 80.572 148.593 80.9359C148.256 80.8304 147.919 80.7144 147.583 80.6195L141.739 79.0056L140.787 78.7524L139.541 78.6944L138.589 78.4624L133.907 78.6786L130.752 80.2608C129.915 80.2345 129.088 80.4483 128.369 80.8772C127.65 81.306 127.067 81.9321 126.691 82.6816C126.312 82.8346 125.818 82.8873 125.581 83.1616C124.13 84.8809 122.646 86.5844 121.337 88.4356C120.111 90.1497 119.091 92.0114 117.976 93.8099L116.966 94.4481C115.914 96.9216 114.588 99.316 113.852 101.879C112.097 107.848 111.56 114.11 112.274 120.291C112.726 124.104 113.631 127.785 115.667 131.055C117.629 134.22 120.153 136.91 123.519 138.603C125.949 139.826 128.411 141.139 131.015 141.841C134.528 142.785 138.189 143.191 141.792 143.792C142.31 143.855 142.835 143.829 143.343 143.713C144.032 143.587 144.706 143.365 145.389 143.186C148.019 142.526 150.439 141.604 152.474 139.605C155.544 136.56 157.933 132.896 159.485 128.856C160.579 126.061 161.284 123.107 162.163 120.222C162.536 119.057 162.915 117.897 163.267 116.72C163.11 116.615 162.943 116.527 162.768 116.457C163.046 115.043 163.336 113.625 163.609 112.206C164.44 108.064 164.146 103.774 162.757 99.7854L161.521 96.9532C161.321 96.3045 161.126 95.6558 160.927 95.0071C158.637 89.8848 154.92 85.535 150.223 82.4812C150.426 82.0324 150.658 81.5972 150.917 81.1785C151.286 80.6511 151.717 80.1764 152.122 79.6807C152.785 78.9898 153.984 78.589 153.574 77.4867C152.359 77.4867 151.08 77.8611 150.334 77.3865C149.587 76.9118 149.239 75.5775 148.514 74.222C148.429 75.4614 148.372 76.4213 148.324 77.3812L148.314 77.4023Z" fill="#902E1D"/>
<path d="M263.781 175.547C263.66 172.383 263.581 169.219 263.381 166.086C263.344 165.558 262.787 165.031 262.476 164.504C262.787 163.818 263.276 163.159 263.381 162.447C263.607 160.817 263.649 159.161 263.77 157.515C265.427 160.68 267.126 163.844 268.725 167.009C270.255 170.068 271.67 173.19 273.148 176.281C274.989 180.12 276.877 183.938 278.681 187.799C280.827 192.393 283 196.987 284.993 201.649C287.57 207.693 289.979 213.779 292.457 219.887C292.512 220.081 292.545 220.281 292.557 220.482C292.414 220.967 292.325 221.466 292.288 221.97C292.341 223.425 292.583 224.876 292.567 226.326C292.515 231.073 292.567 235.819 292.236 240.566C291.889 246.009 291.378 251.447 290.658 256.847C290.248 259.848 289.637 262.949 288.407 265.687C286.655 269.579 284.067 271.588 279.249 269.257C277.146 268.229 275.384 266.425 273.464 264.98C272.8 264.425 272.096 263.919 271.36 263.466C268.972 262.142 266.363 262.237 263.754 262.343L259.305 263.703L261.203 264.853C260.348 264.563 259.467 264.351 258.573 264.22C257.586 264.191 256.599 264.283 255.633 264.495C255.176 264.579 254.792 265.022 254.334 265.185C250.794 266.304 248.122 268.677 245.645 271.272C243.417 273.531 241.742 276.279 240.754 279.299C239.97 281.809 239.102 284.409 239.028 286.988C238.934 290.496 239.554 294.019 239.88 297.537C237.298 297.537 234.7 297.705 232.128 297.537C229.272 297.32 226.5 296.867 223.959 295.121C221.419 293.375 219.636 291.187 218.836 288.159C218.302 286.055 217.636 283.987 216.843 281.968C214.854 276.853 211.547 272.359 207.26 268.946C206.786 268.624 206.776 267.147 205.682 268.318C204.522 267.409 203.309 266.573 202.047 265.813C199.943 264.711 197.718 264.843 195.415 265.143C191.733 265.618 188.219 266.267 185.379 268.946C184.764 269.526 183.864 269.8 183.096 270.217L182.513 269.231C182.513 268.703 182.513 268.176 182.513 267.68C182.513 267.052 182.513 266.425 182.513 265.792L182.481 260.776L181.918 259.162C181.918 258.545 181.918 257.923 181.918 257.301C181.918 256.678 181.918 256.046 181.918 255.413C181.918 254.041 181.86 252.67 181.834 251.299V250.091L181.887 249.453L181.319 248.472V247.881L181.923 247.565C183.407 248.741 184.769 250.139 186.405 251.046C190.728 253.44 195.041 255.945 199.607 257.791C203.704 259.386 207.951 260.565 212.283 261.309C215.833 261.963 219.525 261.894 223.16 262.021C228.16 262.125 233.103 260.937 237.514 258.572C240.227 257.089 242.718 255.23 244.914 253.05C247.728 250.376 250.552 247.575 252.698 244.379C256.601 238.578 259.873 232.365 261.729 225.54C262.781 221.579 263.723 217.576 264.712 213.595C264.812 213.384 264.906 213.173 265.006 212.956L265.337 209.507L265.637 208.558V207.619V206.986L265.942 202.899L266.242 201.638C266.242 199.001 266.295 196.364 266.242 193.685C266.211 191.828 266.048 189.993 265.948 188.116C265.948 187.91 265.948 187.699 265.948 187.488L265.916 183.722C265.6 181.323 265.332 178.918 264.927 176.534C264.843 176.154 264.17 175.869 263.781 175.547Z" fill="#AF3D29"/>
<path d="M49.9201 274.605C48.4211 268.445 46.8221 262.311 45.4651 256.146C44.5026 251.779 43.7452 247.359 43.1245 242.96C42.5249 238.741 42.0252 234.464 41.8359 230.203C41.6045 224.828 41.4993 219.422 41.7675 214.053C42.041 208.6 42.7353 203.157 43.4348 197.73C43.9871 193.453 44.6761 189.176 45.565 184.956C46.9957 178.188 48.5508 171.449 50.2304 164.741C52.0187 157.579 53.8596 150.422 55.953 143.344C58.1831 135.781 60.6867 128.302 63.1641 120.808C64.5158 116.683 65.9833 112.601 67.4034 108.503C67.3035 112.754 67.0405 117.01 67.151 121.256C67.2772 125.881 67.4297 130.549 68.1556 135.101C69.1339 141.292 70.6276 147.405 71.9846 153.533C72.6922 157.04 73.8966 160.427 75.5613 163.591C78.3963 168.77 82.2779 173.084 86.6067 177.003C87.1427 177.544 87.6467 178.117 88.1162 178.717C87.6168 179.067 87.089 179.374 86.5383 179.635C80.9683 181.808 77.2444 186.043 74.5198 191.085C72.5355 194.909 71.155 199.019 70.4278 203.268C69.8755 206.205 69.2706 209.069 69.9018 212.054C69.5126 212.244 68.8814 212.345 68.7762 212.64C68.3964 213.601 68.1538 214.611 68.0556 215.641C67.8715 218.399 67.6611 221.173 67.7453 223.932C67.9395 227.672 68.8428 231.342 70.4067 234.744C71.3009 236.806 72.5685 238.704 73.6678 240.677C73.531 241.157 73.5363 241.774 73.2312 242.085C72.406 242.856 71.5386 243.579 70.6329 244.253C66.9466 247.177 63.7504 250.674 61.1654 254.611C58.646 258.456 56.0477 262.258 53.7386 266.214C52.4711 268.403 50.7932 270.554 51.1088 273.376L49.9201 274.605Z" fill="#792616"/>
<path d="M186.279 220.498C183.696 222.608 181.129 224.717 178.531 226.78C178.227 226.952 177.899 227.078 177.558 227.154C175.993 225.58 173.939 224.588 171.735 224.343C167.365 223.684 162.925 223.425 158.586 222.645C153.432 221.722 148.351 220.356 143.212 219.312C137.978 218.257 133.182 216.036 128.432 213.758C123.468 211.299 118.85 208.192 114.699 204.518C112.681 202.88 110.75 201.137 108.913 199.296C106.404 196.612 104.064 193.764 101.765 190.895C100.151 188.885 98.7251 186.723 97.2208 184.629C98.1202 185.067 98.9934 185.558 99.9243 185.921C103.906 187.504 107.856 189.16 111.911 190.515C116.153 192.026 120.595 192.893 125.092 193.089C131.257 193.247 137.384 193.284 143.396 191.153C147.909 189.571 152.017 187.562 155.725 184.476C159.376 181.459 162.378 177.731 164.551 173.517C165.05 172.557 165.697 171.671 166.276 170.748C169.321 176.391 172.666 181.892 175.333 187.709C178.184 193.927 180.545 200.367 182.828 206.849C184.259 210.884 185.153 215.103 186.284 219.243C186.284 219.67 186.279 220.082 186.279 220.498Z" fill="#792616"/>
<path d="M49.9201 274.605L51.1193 273.339C51.3169 273.576 51.493 273.83 51.6453 274.099C53.7965 278.903 56.1792 283.534 59.4717 287.711C63.1062 292.32 67.2193 296.149 72.7473 298.391C76.5814 299.996 80.7903 300.478 84.8867 299.783C87.464 299.361 90.0413 298.881 92.6343 298.533C95.5114 298.148 98.42 297.89 101.287 297.563C104.842 297.152 108.398 296.766 111.943 296.292C114.536 295.944 117.097 295.353 119.696 295.074C124.429 294.546 129.2 294.156 133.955 293.781C141.05 293.222 148.156 292.727 155.236 292.199C156.445 292.11 157.634 291.804 158.839 291.672C159.303 291.618 159.772 291.631 160.232 291.709C161.127 291.851 162 292.131 162.899 292.236C164.445 292.405 166.055 292.331 167.549 292.626C169.337 292.974 171.057 293.544 171.946 295.485C172.319 296.297 173.124 296.904 173.734 297.595C174.071 298.512 174.439 299.419 174.733 300.348C175.159 301.708 175.528 303.08 175.922 304.451L172.482 304.504C171.72 303.876 167.748 303.575 166.991 304.119C166.865 304.213 166.881 304.493 166.828 304.688L160.858 304.788L158.718 304.762L155.84 304.815C154.604 303.828 153.5 303.934 153.032 305.089L149.908 305.152C149.613 304.936 149.318 304.546 149.019 304.54C145.863 304.493 142.707 304.488 139.577 304.54C139.246 304.54 138.93 305.068 138.604 305.369L133.608 305.453L133.276 305.416C132.802 304.989 132.188 304.753 131.551 304.753C130.914 304.753 130.3 304.989 129.826 305.416H114.467C114.294 305.316 114.115 305.126 113.941 305.131C111.475 305.216 109.008 305.284 106.552 305.479C106.225 305.479 105.962 306.244 105.668 306.655L100.356 306.951L96.9105 306.687L91.5719 306.365C91.4456 306.276 91.3194 306.107 91.1932 306.112C88.4949 306.191 85.7914 306.265 83.0932 306.418C82.8723 306.418 82.6724 306.982 82.4673 307.283L78.4436 307.41L75.9031 307.315C75.3772 307.104 74.8196 306.713 74.2779 306.719C72.0951 306.719 69.9176 306.893 67.74 306.993L61.3337 307.367L60.8551 307.283C60.8656 307.125 60.8513 306.967 60.813 306.814C59.0615 302.753 57.2311 298.718 55.5532 294.62C54.4329 291.867 53.1706 289.145 52.9234 286.097C52.876 285.57 52.2501 285.121 51.8714 284.636L51.8399 284.32C52.592 283.386 52.3238 282.78 51.2455 282.432L51.1351 281.161C51.1789 281.132 51.2142 281.091 51.2373 281.044C51.2605 280.997 51.2706 280.944 51.2666 280.892L51.6032 280.496L50.9562 280.227L50.1515 275.554L49.9516 275.238L49.9201 274.605Z" fill="#721B24"/>
<path d="M166.276 170.759C165.697 171.681 165.05 172.568 164.551 173.527C162.379 177.737 159.378 181.462 155.73 184.476C152.022 187.562 147.914 189.55 143.401 191.153C137.389 193.263 131.262 193.263 125.097 193.089C120.601 192.893 116.158 192.026 111.917 190.515C107.861 189.16 103.911 187.488 99.9296 185.921C98.9986 185.558 98.1255 185.067 97.2261 184.629C95.4746 183.39 93.7494 182.103 91.9664 180.937C90.7356 180.12 89.4101 179.434 88.1268 178.691C87.6572 178.09 87.1532 177.518 86.6172 176.977C82.2832 173.042 78.4015 168.744 75.5718 163.565C73.9071 160.4 72.7027 157.014 71.9952 153.507C70.6382 147.379 69.1444 141.266 68.1661 135.074C67.4402 130.523 67.2877 125.855 67.1615 121.23C67.051 116.984 67.314 112.728 67.414 108.477L69.4495 102.57C69.8176 102.085 70.1858 101.594 70.7591 100.845C70.8067 101.299 70.8313 101.755 70.8328 102.211C70.5435 105.582 70.028 108.946 70.0017 112.311C69.9649 116.109 70.3015 119.911 70.5908 123.709C70.7221 126.095 71.0209 128.469 71.485 130.813C72.4002 134.969 73.3574 139.14 74.6671 143.186C75.8675 147.04 77.3876 150.787 79.2115 154.388C81.0512 157.829 83.2083 161.091 85.6547 164.129C87.9507 167.071 90.526 169.782 93.3444 172.225C95.9192 174.411 98.7591 176.263 101.797 177.736C105.822 179.762 110.027 181.406 114.357 182.646C118.039 183.627 121.963 183.511 125.755 184.054C130.194 184.687 134.581 184.229 138.952 183.648C141.838 183.339 144.686 182.736 147.451 181.85C151.396 180.473 155.283 178.801 158.597 176.149C160.106 174.941 161.379 173.438 162.757 172.066C163.283 171.687 163.809 171.275 164.361 170.938C164.914 170.6 165.413 170.41 165.939 170.152L166.276 170.759Z" fill="#671722"/>
<path d="M162.757 172.061C161.379 173.432 160.127 174.936 158.597 176.143C155.283 178.78 151.396 180.468 147.451 181.845C144.686 182.731 141.838 183.333 138.952 183.643C134.581 184.223 130.194 184.698 125.755 184.049C121.963 183.522 118.018 183.622 114.357 182.641C110.027 181.402 105.822 179.76 101.797 177.736C98.7546 176.259 95.9111 174.402 93.3339 172.209C90.5155 169.766 87.9401 167.055 85.6442 164.113C83.1978 161.075 81.0407 157.814 79.201 154.372C77.3771 150.772 75.857 147.024 74.6566 143.17C73.3469 139.125 72.3897 134.953 71.4745 130.797C71.0104 128.453 70.7116 126.079 70.5803 123.693C70.291 119.895 69.9544 116.093 69.9912 112.295C70.0175 108.931 70.5172 105.566 70.8222 102.196C70.8208 101.739 70.7962 101.283 70.7486 100.83C70.1753 101.579 69.8071 102.069 69.4389 102.554C69.9123 101.093 70.3436 99.6113 70.8748 98.1715C71.4639 96.5892 72.1424 95.007 72.7789 93.4248C72.9735 93.7782 73.3837 94.1737 73.3048 94.4796C72.1582 100.745 72.316 107.079 72.4738 113.387C72.5527 116.494 73.0945 119.595 73.5258 122.675C73.9097 125.312 74.341 127.912 74.9564 130.48C75.4733 132.748 76.177 134.969 77.0603 137.12C78.2543 139.968 79.7638 142.679 81.084 145.48C82.7261 148.786 84.8537 151.826 87.3957 154.499C91.2969 158.882 95.7611 162.727 100.671 165.933C103.234 167.584 105.903 169.064 108.661 170.363C111.764 171.808 115.025 172.921 118.207 174.202C122.694 176.006 127.454 176.212 132.166 176.839C137.047 177.478 141.85 176.882 146.625 176.354C149.95 175.99 153.179 174.725 156.445 173.839C158.576 173.264 160.664 172.652 162.757 172.061Z" fill="#721B24"/>
<path d="M263.77 157.515C263.649 159.161 263.607 160.817 263.381 162.447C263.276 163.159 262.787 163.818 262.476 164.504C258.321 168.093 254.166 171.683 250.011 175.273C247.959 177.029 245.845 178.707 243.809 180.484C240.769 183.121 237.792 185.858 234.763 188.522C233.711 189.46 232.538 190.315 231.423 191.206L231.091 190.905C232.338 189.323 233.637 187.741 234.826 186.101C237.624 182.235 240.417 178.358 243.126 174.435C244.956 171.798 246.723 169.076 248.385 166.318C250.715 162.457 252.84 158.407 253.866 154.029C254.875 149.962 255.038 145.731 254.345 141.598C253.819 138.581 253.408 135.528 252.735 132.543C252.178 130.069 251.294 127.675 250.594 125.233C250.559 124.88 250.582 124.523 250.663 124.178C253.624 127.284 255.781 130.929 257.811 134.679C261.103 140.832 262.995 147.641 263.349 154.615C263.418 155.585 263.628 156.545 263.77 157.515Z" fill="#922B30"/>
<path d="M263.744 262.358C266.374 262.253 268.961 262.158 271.349 263.482C272.086 263.935 272.789 264.441 273.453 264.995C275.378 266.441 277.135 268.244 279.239 269.273C284.057 271.604 286.645 269.594 288.396 265.702C289.627 262.965 290.237 259.864 290.647 256.863C291.384 251.462 291.894 246.025 292.225 240.582C292.53 235.835 292.504 231.088 292.557 226.342C292.557 224.891 292.33 223.441 292.278 221.985C292.314 221.482 292.404 220.983 292.546 220.498L293.493 222.708L293.677 223.399C293.756 223.668 293.829 223.926 293.903 224.211L294.376 225.266L294.487 225.851C293.903 226.7 294.213 227.307 295.013 227.782L295.108 228.367C295.213 229.506 295.302 230.64 295.423 231.774C295.87 235.798 296.433 239.812 296.738 243.846C296.938 246.531 296.738 249.237 296.775 251.937C296.775 253.725 296.885 255.518 296.948 257.311C296.948 257.506 296.912 257.707 296.896 257.907C296.707 258.756 296.517 259.605 296.323 260.455L295.881 263.223L295.686 263.914L290.605 281.171L290.279 281.999C290.206 282.263 290.127 282.526 290.053 282.78L288.065 285.907C287.881 286.129 287.686 286.345 287.539 286.582C286.487 288.041 285.454 289.506 284.441 290.976C284.588 290.01 285.083 288.95 284.83 288.106C283.778 284.473 282.695 280.802 281.148 277.347C279.674 274.011 277.605 270.972 275.042 268.381C272.144 265.454 269.014 263.408 264.811 263.244C264.454 263.223 264.101 262.649 263.744 262.358Z" fill="#83242D"/>
<path d="M128.953 59.117C126.418 58.4841 123.867 57.8987 121.342 57.2025C120.268 56.8454 119.215 56.4299 118.186 55.9579C118.002 54.9558 117.897 53.9379 117.623 52.9569C117.306 51.847 117.285 50.673 117.562 49.5522C117.838 48.4314 118.404 47.4031 119.201 46.57C122.02 43.4689 125.513 41.4489 129.931 41.5913C130.119 41.6371 130.297 41.7157 130.457 41.8234C129.195 43.6746 127.622 45.3939 127.99 47.9096C128 47.9878 127.986 48.0671 127.948 48.1364C127.696 48.4159 127.343 48.6638 127.217 48.975C125.755 52.6985 126.444 56.0686 128.953 59.117Z" fill="#762029"/>
<path d="M164.061 52.8145C162.389 54.7185 159.996 56.1952 160.296 59.2594L159.917 59.7552C158.907 61.2003 157.56 62.5188 156.95 64.1169C155.814 67.1125 156.666 70.1504 157.624 73.0828C157.923 74.0163 158.055 75.261 158.712 75.7515C159.37 76.242 160.543 75.82 161.489 75.8095C161.61 76.9803 161.737 78.1564 161.889 79.649C161.501 79.4592 161.128 79.2388 160.774 78.9897C157.934 76.423 155.104 73.8422 152.285 71.2474C152.159 71.1314 152.169 70.8677 152.117 70.6725C153.005 70.4721 152.643 69.9447 152.543 69.3593C151.975 66.6062 151.491 63.8479 152.127 61.021C152.737 58.384 153.768 55.9737 156.114 54.402C157.2 53.6701 158.327 53.0027 159.491 52.4032C161.069 51.6068 162.589 52.0973 164.061 52.8145Z" fill="#762029"/>
<path d="M188.672 122.158C188.297 119.795 187.925 117.431 187.557 115.064C189.661 115.66 190.244 117.643 191.128 119.257C191.807 120.502 192.085 121.968 192.543 123.339C191.27 124.806 189.999 126.275 188.73 127.748C188.709 125.887 188.693 124.02 188.672 122.158Z" fill="#922B30"/>
<path d="M296.959 257.301C296.896 255.507 296.801 253.714 296.785 251.926C296.754 249.226 296.948 246.52 296.749 243.836C296.444 239.801 295.881 235.788 295.434 231.764C295.313 230.63 295.223 229.496 295.118 228.357C295.592 229.422 295.987 230.52 296.302 231.642C297.517 237.497 298.595 243.393 298.19 249.411C298.011 252.053 297.38 254.669 296.959 257.301Z" fill="#AF7280"/>
<path d="M51.8925 284.642C52.2501 285.127 52.876 285.591 52.9444 286.102C53.2074 289.151 54.4697 291.872 55.5743 294.625C57.2364 298.723 59.0667 302.758 60.834 306.819C60.8724 306.972 60.8866 307.131 60.8761 307.288C60.3974 306.867 59.7452 306.54 59.4717 306.017C56.4978 300.392 54.113 294.473 52.3553 288.355C52.2081 287.827 52.3553 287.247 52.2922 286.704C52.1928 286.314 52.0536 285.936 51.8767 285.575C51.8662 285.264 51.8767 284.953 51.8925 284.642Z" fill="#8B3C47"/>
<path d="M199.407 208.257L201.269 209.249C201.195 209.507 201.2 209.713 201.106 209.776C198.886 211.469 196.651 213.146 194.421 214.829C192.732 216.1 191.065 217.408 189.345 218.636C188.849 218.899 188.317 219.087 187.767 219.196C189.95 217.376 192.127 215.546 194.321 213.737C195.867 212.455 197.477 211.237 198.96 209.882C199.344 209.576 199.275 208.816 199.407 208.257Z" fill="#AF3D29"/>
<path d="M51.2666 282.437C52.3185 282.785 52.6131 283.391 51.8609 284.325C51.6611 283.697 51.4664 283.064 51.2666 282.437Z" fill="#8B3C47"/>
<path d="M296.333 260.444C296.528 259.595 296.717 258.746 296.906 257.897C296.717 258.746 296.528 259.595 296.333 260.444Z" fill="#AF7280"/>
<path d="M295.023 227.771C294.224 227.297 293.914 226.716 294.497 225.841C294.671 226.484 294.845 227.128 295.023 227.771Z" fill="#AF7280"/>
<path d="M186.279 220.498C186.279 220.082 186.279 219.67 186.279 219.254L186.899 219.902L186.279 220.498Z" fill="#AF3D29"/>
<path d="M50.9773 280.232L51.6242 280.501L51.2876 280.897L50.951 280.844L50.9773 280.232Z" fill="#8B3C47"/>
<path d="M294.387 225.255L293.914 224.201L294.387 225.255Z" fill="#AF7280"/>
<path d="M295.697 263.904L295.891 263.213C295.823 263.445 295.76 263.672 295.697 263.904Z" fill="#AF7280"/>
<path d="M293.687 223.394C293.63 223.162 293.566 222.935 293.503 222.703C293.566 222.935 293.63 223.162 293.687 223.394Z" fill="#AF7280"/>
<path d="M290.29 281.989L290.616 281.161L290.29 281.989Z" fill="#AF7280"/>
<path d="M187.809 219.185C187.646 219.422 187.483 219.654 187.315 219.886C187.483 219.654 187.646 219.401 187.809 219.185Z" fill="#AF3D29"/>
<path d="M50.951 280.844L51.2876 280.897C51.2916 280.949 51.2815 281.002 51.2584 281.049C51.2353 281.097 51.2 281.137 51.1561 281.166L50.951 280.844Z" fill="#AF7280"/>
<path d="M224.759 66.3636C224.724 66.2952 224.695 66.2247 224.669 66.1526C224.669 66.1526 224.732 66.0999 224.769 66.0735C224.8 66.1162 224.815 66.1678 224.813 66.2203C224.811 66.2728 224.792 66.3232 224.759 66.3636Z" fill="#C64F69"/>
<path d="M49.9674 275.243L50.1673 275.56L49.9674 275.243Z" fill="#792616"/>
<path d="M88.1215 178.67C89.4049 179.413 90.7513 180.099 91.9611 180.916C93.7494 182.103 95.4746 183.39 97.2208 184.608C98.7251 186.718 100.15 188.864 101.765 190.874C104.064 193.743 106.404 196.591 108.913 199.275C110.75 201.116 112.681 202.859 114.699 204.497C118.85 208.171 123.468 211.278 128.432 213.737C133.166 216.015 137.978 218.225 143.212 219.291C148.351 220.345 153.432 221.701 158.586 222.624C162.936 223.404 167.375 223.679 171.735 224.322C173.939 224.567 175.993 225.559 177.558 227.133C176.632 228.489 175.67 229.818 174.797 231.205C173.745 232.924 174.439 236.922 175.927 237.803L176.243 238.409C177.521 240.687 178.768 242.987 180.098 245.239C180.644 246.04 181.242 246.805 181.887 247.528L181.282 247.844C180.797 247.957 180.337 248.157 179.925 248.435C178.221 250.175 176.543 251.953 174.923 253.778C173.934 254.891 173.077 256.109 172.161 257.274C171.956 257.491 171.746 257.702 171.541 257.913C168.522 260.191 165.576 262.585 161.821 263.593C159.638 264.321 157.545 265.46 155.151 265.317C153.095 265.201 150.838 265.481 149.05 264.706C146.562 263.619 144.348 261.815 142.165 260.128C139.788 258.292 137.563 256.256 135.301 254.273C132.387 251.716 129.558 249.052 126.586 246.563C124.119 244.495 121.568 242.512 118.933 240.666C114.962 237.892 110.938 235.171 106.836 232.618C105.258 231.632 103.154 231.442 101.576 230.398C98.7303 228.473 95.4483 228.462 92.3293 227.692C89.0472 226.88 85.7809 225.983 82.5146 225.097C80.3003 224.496 78.4646 223.199 76.5606 221.933C74.1178 220.349 72.1534 218.126 70.8801 215.504C70.3541 214.449 70.2437 213.146 69.9386 211.96C69.3074 208.985 69.9123 206.116 70.4646 203.178C71.1918 198.929 72.5723 194.819 74.5566 190.995C77.2812 185.953 81.0051 181.718 86.5751 179.545C87.1135 179.296 87.6307 179.003 88.1215 178.67Z" fill="#902E1D"/>
<path d="M201.626 174.282C199.801 171.644 199.433 168.549 199.181 165.49C199.044 162.927 199.044 160.358 199.181 157.795C199.292 157.262 199.493 156.752 199.775 156.286L202.868 159.229L203.168 159.577C203.275 159.808 203.411 160.024 203.572 160.221C206.839 163.174 210.642 163.085 214.36 161.65C217.421 160.463 218.973 157.615 220.109 154.651C221.55 150.907 221.687 146.972 221.298 143.048C221.156 141.54 220.246 140.106 219.652 138.634L219.225 137.126C224.485 136.888 228.099 139.415 230.597 143.866C230.713 144.072 230.97 144.204 231.165 144.393L231.744 145.348C231.78 145.543 231.817 145.738 231.849 145.933L232.312 146.693L232.485 147.822L232.938 148.581L233.127 149.699C233.04 150.16 233.021 150.63 233.069 151.097C234.053 154.963 233.406 158.691 232.48 162.483C231.102 168.116 227.746 172.362 223.218 175.537C220.629 177.349 217.666 178.551 214.55 179.055C209.3 179.846 205.061 178.263 201.626 174.282ZM210.663 165.669C211.231 165.948 211.941 166.349 212.688 166.65C215.496 167.779 219.662 166.787 221.235 164.54C223.586 161.149 223.491 157.352 222.865 153.491C222.674 153.907 222.546 154.35 222.487 154.804C222.092 156.793 221.961 158.881 221.224 160.738C220.235 163.264 218.531 165.368 215.544 165.658C213.908 165.801 212.251 165.669 210.663 165.669Z" fill="#E59589"/>
<path d="M176.243 238.43L175.927 237.823C177.589 238.641 179.351 239.3 180.887 240.308C184.685 242.807 188.356 245.355 192.79 246.837C199.533 249.094 206.402 249.906 213.429 250.091C219.026 250.239 224.596 249.991 230.039 248.73C234.665 247.657 239.089 245.846 243.141 243.366C248.869 239.87 252.262 234.691 254.681 228.683C255.855 225.975 256.886 223.205 257.769 220.387C258.794 216.817 259.489 213.146 260.325 209.518C260.42 209.296 260.52 209.08 260.614 208.864C260.725 208.03 260.83 207.197 260.94 206.364L261.498 205.372C261.498 204.444 261.545 203.521 261.572 202.593C261.666 202.271 261.766 201.949 261.866 201.628L262.466 197.851C262.466 197.64 262.466 197.429 262.466 197.224L262.765 194.392V193.764C262.865 193.236 262.96 192.709 263.06 192.182C263.155 191.86 263.244 191.538 263.339 191.211C263.339 189.961 263.339 188.711 263.376 187.467L263.66 186.501C263.66 185.774 263.66 185.046 263.66 184.318C263.66 183.901 263.66 183.479 263.66 183.063C263.66 180.559 263.672 178.052 263.696 175.542C264.086 175.864 264.748 176.133 264.822 176.512C265.227 178.896 265.495 181.301 265.811 183.701C264.68 183.632 264.922 184.466 264.906 185.104C264.801 189.444 264.98 193.811 264.522 198.11C263.995 203.593 263.117 209.036 261.892 214.407C260.094 221.89 257.627 229.174 253.787 235.951C251.783 239.492 249.266 242.714 246.318 245.513C242.908 248.704 239.108 251.449 235.01 253.683C230.143 256.348 224.87 258.188 219.404 259.131C217.563 259.482 215.683 259.591 213.813 259.452C210.364 259.156 206.969 258.408 203.715 257.227C196.046 254.489 188.898 250.898 182.597 245.771C180.824 244.332 179.441 242.285 178.257 240.297C177.705 239.342 177.305 238.636 176.243 238.43Z" fill="#91292E"/>
<path d="M219.225 137.126C219.362 137.653 219.499 138.133 219.641 138.634L219.515 140.596L220.004 141.862C220.025 143.005 220.044 144.147 220.062 145.29C219.888 145.459 219.625 145.601 219.536 145.818C218.878 147.806 218.368 149.847 217.584 151.777C216.561 154.429 214.677 156.659 212.235 158.106C209.716 159.546 206.865 160.168 203.93 158.955C203.651 158.839 203.204 159.124 202.836 159.224L199.743 156.281C199.775 155.353 199.801 154.43 199.833 153.502C199.928 153.196 200.022 152.885 200.122 152.579C200.164 152.363 200.212 152.152 200.254 151.935L200.743 150.691L202.321 147.21L202.778 146.424C204.104 144.726 205.256 142.848 206.797 141.377C209.427 138.877 212.698 137.606 216.264 137.089C217.064 136.973 217.842 136.704 218.626 136.509L219.115 137.194L219.225 137.126Z" fill="#29170E"/>
<path d="M232.48 147.8L232.306 146.672C232.154 146.419 232.001 146.144 231.844 145.912C231.812 145.717 231.775 145.522 231.738 145.327C232.264 145.722 233.038 146.007 233.369 146.545C235.524 149.914 236.819 153.763 237.14 157.753C237.577 163.918 236.588 169.635 232.675 174.582C230.617 177.131 228.158 179.325 225.395 181.08C221.224 183.812 216.648 184.466 211.893 183.933C209.679 183.685 207.475 182.878 205.95 180.959C205.313 180.141 204.556 179.418 203.846 178.654C204.315 178.825 204.772 179.027 205.214 179.26C207.649 180.732 210.1 182.003 213.072 182.161C216.043 182.319 218.805 181.206 221.435 180.136C228.057 177.451 231.865 172.167 233.595 165.368C234.185 162.996 234.521 160.566 234.594 158.122C234.596 155.859 234.417 153.6 234.058 151.366C233.984 150.775 233.453 150.242 233.127 149.678L232.938 148.56C232.769 148.307 232.617 148.054 232.48 147.8Z" fill="#922B30"/>
<path d="M233.111 149.678C233.437 150.242 233.968 150.775 234.042 151.366C234.397 153.6 234.573 155.859 234.568 158.122C234.494 160.566 234.159 162.996 233.569 165.368C231.838 172.167 228.03 177.451 221.408 180.136C218.778 181.191 216.075 182.324 213.04 182.161C210.005 181.997 207.617 180.732 205.182 179.26C204.74 179.027 204.283 178.825 203.814 178.654L203.178 177.694L201.6 174.271C205.029 178.237 209.269 179.856 214.502 179.018C217.619 178.514 220.582 177.312 223.17 175.5C227.683 172.335 231.06 168.079 232.433 162.447C233.358 158.654 234.011 154.926 233.022 151.06C232.985 150.597 233.015 150.132 233.111 149.678Z" fill="#A0505A"/>
<path d="M188.672 122.158C188.672 124.02 188.709 125.887 188.73 127.749C188.251 128.424 187.73 129.072 187.299 129.774C186.058 131.788 184.338 132.047 182.634 130.444C179.851 127.807 181.371 121.093 185.053 120.064C185.668 119.89 186.547 120.259 187.157 120.618C187.73 121.059 188.24 121.578 188.672 122.158Z" fill="#FB8F8A"/>
<path d="M195.236 142.606C196.866 142.384 198.865 142.906 199.654 140.807C200.243 139.225 200.68 137.643 201.285 135.697C202.13 138.365 202.148 141.229 201.337 143.908C201.192 144.302 200.91 144.629 200.543 144.831C198.902 145.744 195.809 144.467 195.236 142.606Z" fill="#671722"/>
<path d="M204.035 134.156C205.187 134.225 206.597 135.18 207.354 133.729C207.88 132.701 208.106 131.509 208.638 129.869C209.016 130.923 209.379 131.519 209.442 132.163C209.59 133.252 209.579 134.357 209.411 135.443C209.334 135.809 209.181 136.154 208.962 136.456C208.743 136.758 208.462 137.01 208.138 137.194C207.58 137.405 206.649 137.068 206.066 136.667C205.269 136.053 204.526 135.372 203.846 134.631L204.035 134.156Z" fill="#671722"/>
<path d="M263.744 183.068C263.744 183.485 263.744 183.907 263.744 184.323C263.733 183.907 263.739 183.485 263.744 183.068Z" fill="#AF3D29"/>
<path d="M200.764 150.696L200.275 151.941L200.764 150.696Z" fill="#44121F"/>
<path d="M261.498 205.372L260.94 206.364L261.498 205.372Z" fill="#AF3D29"/>
<path d="M231.744 145.343L231.165 144.388L231.744 145.343Z" fill="#922B30"/>
<path d="M200.143 152.584C200.043 152.89 199.949 153.201 199.854 153.507L200.143 152.584Z" fill="#44121F"/>
<path d="M261.866 201.628C261.766 201.949 261.666 202.271 261.572 202.593C261.666 202.271 261.766 201.949 261.866 201.628Z" fill="#AF3D29"/>
<path d="M263.376 191.217C263.281 191.544 263.192 191.865 263.097 192.187C263.186 191.865 263.281 191.544 263.376 191.217Z" fill="#AF3D29"/>
<path d="M263.696 186.507L263.412 187.472L263.696 186.507Z" fill="#AF3D29"/>
<path d="M203.21 177.704L203.846 178.664L203.21 177.704Z" fill="#922B30"/>
<path d="M262.487 197.25C262.487 197.456 262.487 197.667 262.487 197.878C262.46 197.64 262.46 197.429 262.487 197.25Z" fill="#AF3D29"/>
<path d="M219.152 137.2L218.663 136.514L219.152 137.2Z" fill="#A0505A"/>
<path d="M260.614 208.853C260.52 209.069 260.42 209.285 260.325 209.507C260.42 209.296 260.52 209.08 260.614 208.853Z" fill="#AF3D29"/>
<path d="M202.805 146.429L202.347 147.215L202.805 146.429Z" fill="#44121F"/>
<path d="M175.922 304.424C175.528 303.053 175.159 301.682 174.733 300.321C174.439 299.393 174.071 298.486 173.734 297.568C173.677 297.064 173.549 296.571 173.355 296.102C171.883 293.607 170.457 291.081 168.827 288.718C166.197 284.873 162.699 282.558 157.823 282.79C155.739 282.918 153.648 282.905 151.564 282.753C150.44 282.686 149.361 282.288 148.461 281.609C146.276 279.688 144.192 277.655 142.218 275.517C141.166 274.41 140.424 273.049 139.541 271.825C141.855 274.135 144.8 274.615 147.856 274.605C150.088 274.587 152.314 274.379 154.51 273.982C158.893 273.158 163.001 271.247 166.46 268.424C168.876 266.458 171.094 264.258 173.082 261.857C175.291 259.263 177.142 256.357 179.241 253.662C179.941 252.765 180.935 252.111 181.797 251.346C181.824 252.717 181.855 254.089 181.881 255.46C181.881 256.093 181.881 256.72 181.881 257.348C181.881 257.976 181.881 258.593 181.881 259.21L182.444 260.824L182.513 265.813C182.513 266.446 182.513 267.073 182.513 267.701C182.513 268.228 182.513 268.756 182.513 269.283V270.924C182.108 271.694 181.86 272.632 181.266 273.207C179.856 274.573 179.462 276.271 179.252 278.086L178.726 279.362L178.363 280.944L178.089 282.843V288.513L178.673 291.677L178.705 292.61L179.304 294.509C179.304 294.715 179.304 294.921 179.33 295.132C179.425 295.448 179.515 295.764 179.609 296.086L180.609 299.841L180.924 300.474C181.361 301.75 181.792 303.032 182.229 304.314L181.524 304.345C181.462 304.298 181.385 304.276 181.308 304.282L180.919 304.34C180.833 304.335 180.747 304.335 180.661 304.34L178.115 304.25L177.474 304.504L175.922 304.424Z" fill="#792616"/>
<path d="M197.881 303.887L191.922 304.156L191.296 304.187L190.397 304.266L188.787 304.514H187.525L187.246 304.171C187.04 303.153 186.777 302.148 186.457 301.16C184.794 296.929 184.096 292.379 184.417 287.843C184.573 284.532 186.015 281.414 188.435 279.156C191.901 275.929 198.15 274.631 201.348 278.049C201.542 278.276 201.732 278.502 201.926 278.724L207.317 288.112C207.496 288.344 207.67 288.581 207.843 288.819L208.285 290.928C208.553 291.382 208.811 291.83 209.095 292.278C209.216 292.806 209.342 293.291 209.469 293.792C209.574 294.425 209.679 295.058 209.79 295.685L210.421 297.869L208.89 302.853L208.248 302.932L207.265 303.19L203.841 303.496L201.327 303.565L200.106 303.623L197.881 303.887Z" fill="#7B2919"/>
<path d="M201.348 278.049C198.15 274.631 191.88 275.939 188.435 279.156C186.015 281.414 184.573 284.532 184.417 287.843C184.098 292.375 184.795 296.922 186.457 301.149C186.777 302.137 187.04 303.143 187.246 304.161L185.963 304.498L182.239 304.229C181.802 302.948 181.371 301.666 180.935 300.39L180.619 299.757L179.62 296.002C179.525 295.68 179.436 295.364 179.341 295.047C179.341 294.836 179.341 294.631 179.315 294.425L178.715 292.526L178.683 291.593L178.1 288.428V282.774C178.189 282.142 178.284 281.509 178.373 280.876L178.736 279.294L179.262 278.017C179.472 276.203 179.867 274.505 181.277 273.139C181.871 272.564 182.118 271.625 182.523 270.855L183.123 270.185C183.891 269.769 184.79 269.494 185.405 268.914C188.246 266.235 191.775 265.586 195.441 265.112C197.745 264.811 199.991 264.679 202.073 265.781C203.335 266.541 204.549 267.378 205.708 268.287L206.323 268.919L206.981 270.502C207.605 272.488 208.233 274.477 208.864 276.467L209.437 277.131L210.074 280.58V281.208C210.074 281.931 210.074 282.658 210.074 283.386L210.642 284.684C210.642 287.398 210.642 290.112 210.642 292.827L209.863 294.087L209.463 293.792C209.337 293.291 209.211 292.785 209.09 292.278C208.822 291.83 208.564 291.382 208.28 290.928L207.838 288.819C207.665 288.581 207.486 288.344 207.312 288.112L201.921 278.724L201.348 278.049Z" fill="#CE4A31"/>
<path d="M260.846 301.265L255.265 301.339L251.536 301.023C249.926 297.6 249.543 293.977 249.585 290.232C249.653 284.246 251.347 279.035 255.896 274.884C258.111 272.859 264.391 271.034 267.257 272.685C268.057 273.149 268.872 273.582 269.682 274.03L270.944 275.855C270.829 277.39 270.808 278.935 270.581 280.454C269.578 286.701 267.475 292.719 264.37 298.227C264.002 299.02 263.691 299.838 263.439 300.675L260.846 301.265Z" fill="#7B2919"/>
<path d="M269.682 274.03C268.872 273.582 268.057 273.149 267.257 272.685C264.391 271.034 258.111 272.859 255.896 274.884C251.347 279.035 249.653 284.246 249.585 290.232C249.543 293.976 249.926 297.616 251.536 301.023L251.199 301.36L247.733 301.677H247.113H241.479C241.369 301.455 241.253 301.234 241.138 301.012C241.022 300.395 240.901 299.783 240.785 299.166L240.259 298.459C240.138 298.148 240.012 297.837 239.886 297.531C239.57 294.008 238.939 290.485 239.034 286.983C239.107 284.404 239.975 281.804 240.759 279.293C241.747 276.274 243.422 273.526 245.65 271.266C248.128 268.672 250.8 266.298 254.339 265.18C254.797 265.038 255.181 264.574 255.639 264.489C256.604 264.278 257.591 264.186 258.579 264.215C259.473 264.346 260.353 264.558 261.209 264.848C264.275 265.903 266.337 268.302 268.336 270.649C269.077 271.546 269.251 272.896 269.682 274.03Z" fill="#CE4A31"/>
<path d="M240.79 299.182C240.906 299.799 241.027 300.411 241.143 301.028C241.043 301.313 240.938 301.603 240.838 301.893L239.901 301.972C239.53 301.827 239.141 301.733 238.744 301.693C235.478 301.766 232.212 301.877 228.945 301.977C225.837 301.977 222.728 301.946 219.615 301.977C219.162 301.977 218.715 302.373 218.263 302.584H217.321C217.006 300.901 216.711 299.219 216.38 297.542C215.496 293.027 214.802 288.465 213.629 284.03C212.71 280.849 211.515 277.756 210.058 274.784C209.332 273.202 208.043 271.91 207.007 270.481L206.35 268.898H207.291C211.579 272.312 214.886 276.805 216.874 281.92C217.668 283.94 218.334 286.008 218.868 288.112C219.667 291.139 221.392 293.291 223.991 295.074C226.589 296.856 229.303 297.273 232.159 297.489C234.731 297.679 237.329 297.489 239.912 297.489C240.038 297.795 240.164 298.106 240.285 298.417L240.79 299.182Z" fill="#83232B"/>
<path d="M263.439 300.675C263.691 299.838 264.002 299.02 264.37 298.227C267.475 292.719 269.578 286.701 270.581 280.454C270.808 278.935 270.829 277.389 270.944 275.855C272.149 277.933 273.574 279.911 274.5 282.11C275.873 285.432 276.946 288.887 278.019 292.331C278.613 294.24 278.955 296.234 279.407 298.19C279.307 298.718 279.207 299.245 279.102 299.773L276.625 300.142L274.726 300.094C273.727 299.757 272.712 299.219 271.875 300.395L268.762 300.675L265.311 300.775L264.401 300.812L263.439 300.675Z" fill="#671722"/>
<path d="M207.007 270.502C208.059 271.931 209.332 273.234 210.058 274.805C211.515 277.777 212.71 280.87 213.629 284.051C214.802 288.486 215.496 293.048 216.38 297.563C216.711 299.24 217.006 300.923 217.321 302.605L214.166 303.19H213.545L211.299 302.853C211.001 301.193 210.705 299.53 210.41 297.864L209.779 295.68C210.084 294.731 210.384 293.776 210.689 292.822C210.689 290.107 210.689 287.393 210.689 284.678L210.121 283.381C210.121 282.653 210.121 281.925 210.121 281.203V280.575C209.91 279.425 209.695 278.276 209.484 277.126L208.911 276.461C208.273 274.475 207.638 272.488 207.007 270.502Z" fill="#922B30"/>
<path d="M279.102 299.767C279.207 299.24 279.307 298.713 279.407 298.185L284.43 290.96C285.461 289.494 286.494 288.029 287.528 286.566C287.697 286.329 287.891 286.113 288.054 285.891C288.806 287.031 288.354 288.117 287.812 289.13C286.203 292.157 284.441 295.095 281.869 297.426C280.99 298.248 280.033 298.992 279.102 299.767Z" fill="#8B3C47"/>
<path d="M133.276 305.4L133.608 305.437C133.608 305.659 133.608 305.88 133.608 306.102L122.62 306.371L119.801 306.418L114.783 306.671C114.673 306.566 114.567 306.46 114.462 306.349C114.462 306.044 114.462 305.738 114.462 305.432H129.821L133.276 305.4Z" fill="#8A342C"/>
<path d="M114.467 305.432C114.467 305.738 114.467 306.044 114.467 306.35L112.279 306.381L111.327 306.65H105.684C105.978 306.239 106.241 305.5 106.567 305.474C109.024 305.279 111.49 305.21 113.957 305.126C114.136 305.142 114.294 305.332 114.467 305.432Z" fill="#792616"/>
<path d="M138.604 305.369C138.93 305.078 139.246 304.546 139.577 304.541C142.733 304.477 145.889 304.482 149.019 304.541C149.318 304.541 149.613 304.936 149.908 305.152L144.564 305.432C143.978 305.294 143.381 305.208 142.781 305.173C141.387 305.168 139.998 305.279 138.604 305.369Z" fill="#792616"/>
<path d="M228.945 301.977C232.212 301.877 235.478 301.766 238.744 301.693C239.141 301.733 239.53 301.827 239.901 301.972C239.654 302.178 239.412 302.552 239.155 302.563C235.999 302.71 232.811 302.805 229.634 302.895C229.386 302.854 229.146 302.772 228.924 302.652C228.93 302.426 228.94 302.204 228.945 301.977Z" fill="#A0505A"/>
<path d="M138.604 305.369C139.998 305.295 141.387 305.184 142.781 305.163C143.381 305.197 143.978 305.284 144.564 305.421C144.332 305.632 144.101 306.023 143.859 306.033C140.624 306.175 137.384 306.27 134.149 306.36C133.971 306.36 133.786 306.202 133.623 306.117C133.623 305.896 133.623 305.674 133.623 305.453L138.604 305.369Z" fill="#A0505A"/>
<path d="M67.74 306.998C69.9176 306.898 72.0951 306.75 74.2779 306.724C74.8038 306.724 75.3614 307.109 75.9031 307.32C75.9031 307.51 75.8716 307.705 75.8505 307.895L73.3785 307.932L70.8748 307.979L67.4139 307.921C67.5244 307.615 67.6296 307.309 67.74 306.998Z" fill="#8A342C"/>
<path d="M82.4673 307.288C82.6724 306.988 82.8723 306.439 83.0932 306.423C85.7914 306.271 88.4949 306.197 91.1932 306.118C91.3194 306.118 91.4456 306.281 91.5719 306.371L89.368 307.283L82.4673 307.288Z" fill="#792616"/>
<path d="M228.945 301.977C228.945 302.204 228.945 302.426 228.945 302.652L220.167 302.906L218.284 302.605C218.736 302.394 219.183 302.004 219.636 301.998C222.728 301.946 225.837 301.977 228.945 301.977Z" fill="#922B30"/>
<path d="M67.74 306.998C67.6296 307.309 67.5244 307.615 67.4139 307.921C65.836 307.921 64.216 307.995 62.6171 307.921C62.1586 307.81 61.7239 307.617 61.3337 307.352L67.74 306.998Z" fill="#792616"/>
<path d="M89.368 307.283L91.5718 306.371L96.9105 306.692C96.9105 306.814 96.9105 306.935 96.9105 307.056L94.3858 307.304L91.8822 307.352L89.368 307.283Z" fill="#8A342C"/>
<path d="M166.828 304.662C166.881 304.467 166.865 304.187 166.991 304.092C167.727 303.565 171.725 303.85 172.482 304.477L166.828 304.662Z" fill="#792616"/>
<path d="M218.279 302.605L220.162 302.906L214.181 303.196L217.337 302.605H218.279Z" fill="#A0505A"/>
<path d="M211.315 302.858L213.561 303.196L208.212 303.28C208.212 303.164 208.212 303.048 208.254 302.932L208.89 302.853L211.315 302.858Z" fill="#A0505A"/>
<path d="M251.199 301.36L251.536 301.023L255.265 301.339C253.913 301.677 252.562 302.304 251.199 301.36Z" fill="#A0505A"/>
<path d="M153.058 305.063C153.526 303.908 154.636 303.802 155.867 304.788C155.867 304.899 155.867 305.01 155.867 305.121L153.058 305.063Z" fill="#792616"/>
<path d="M265.311 300.77L268.762 300.669L265.311 300.77Z" fill="#A0505A"/>
<path d="M263.439 300.675L264.401 300.806L260.846 301.265L263.439 300.675Z" fill="#A0505A"/>
<path d="M96.9158 307.056C96.9158 306.935 96.9158 306.814 96.9158 306.692L100.361 306.956L96.9158 307.056Z" fill="#A0505A"/>
<path d="M271.875 300.39C272.712 299.214 273.727 299.752 274.726 300.089C274.726 300.21 274.726 300.326 274.726 300.448L271.875 300.39Z" fill="#83232B"/>
<path d="M155.862 305.121C155.862 305.01 155.862 304.899 155.862 304.788L158.739 304.736C158.739 304.841 158.739 304.947 158.712 305.052L155.862 305.121Z" fill="#A0505A"/>
<path d="M119.796 306.423L122.615 306.376L119.796 306.423Z" fill="#A0505A"/>
<path d="M70.8748 308.006L73.3785 307.958L70.8748 308.006Z" fill="#A0505A"/>
<path d="M201.332 303.565L203.846 303.496L201.332 303.565Z" fill="#A0505A"/>
<path d="M75.8505 307.895C75.8505 307.705 75.8873 307.51 75.9031 307.32L78.4436 307.415L75.8505 307.895Z" fill="#A0505A"/>
<path d="M91.8875 307.352L94.3911 307.304L91.8875 307.352Z" fill="#A0505A"/>
<path d="M112.269 306.381L114.457 306.349C114.562 306.46 114.667 306.566 114.778 306.671L112.269 306.729V306.381Z" fill="#A0505A"/>
<path d="M178.126 304.187L180.672 304.277L178.121 304.519L178.126 304.187Z" fill="#A0505A"/>
<path d="M158.691 305.052C158.691 304.947 158.691 304.841 158.718 304.736L160.858 304.762L158.691 305.052Z" fill="#792616"/>
<path d="M197.881 303.887L200.112 303.623L197.881 303.887Z" fill="#A0505A"/>
<path d="M274.721 300.448C274.721 300.326 274.721 300.21 274.721 300.089L276.62 300.137L274.721 300.448Z" fill="#A0505A"/>
<path d="M188.787 304.514L190.397 304.266L188.787 304.514Z" fill="#A0505A"/>
<path d="M185.963 304.509L187.246 304.171L187.525 304.514L185.963 304.509Z" fill="#A0505A"/>
<path d="M208.254 302.932C208.254 303.048 208.227 303.164 208.212 303.28L207.27 303.19L208.254 302.932Z" fill="#922B30"/>
<path d="M112.269 306.381V306.729L111.317 306.65L112.269 306.381Z" fill="#8A342C"/>
<path d="M240.838 301.893C240.938 301.603 241.043 301.313 241.143 301.028C241.258 301.25 241.374 301.471 241.485 301.693L240.838 301.893Z" fill="#922B30"/>
<path d="M178.126 304.187V304.519L177.49 304.44L178.126 304.187Z" fill="#8A342C"/>
<path d="M191.296 304.187L191.922 304.156L191.296 304.187Z" fill="#A0505A"/>
<path d="M181.319 304.208C181.396 304.202 181.473 304.225 181.534 304.272C181.514 304.319 181.484 304.36 181.446 304.394C181.408 304.428 181.362 304.453 181.313 304.467C181.299 304.381 181.301 304.293 181.319 304.208Z" fill="#CE4A31"/>
<path d="M181.319 304.208C181.303 304.294 181.303 304.381 181.319 304.467L180.935 304.266L181.319 304.208Z" fill="#A0505A"/>
<path d="M117.986 93.7308C119.101 91.9323 120.122 90.0706 121.347 88.3565C122.657 86.5264 124.14 84.8229 125.592 83.0825C125.828 82.8082 126.323 82.7555 126.702 82.6078C126.702 84.2849 126.786 85.9674 126.66 87.634C126.45 90.566 126.978 93.5037 128.195 96.178C130.562 101.484 134.596 105.318 139.683 108.055C140.307 108.301 140.912 108.594 141.492 108.931C144.595 111.304 148.098 111.135 151.417 110.012C155.514 108.625 158.502 105.645 160.764 101.937C161.355 101.13 162.019 100.378 162.747 99.6905C164.132 103.688 164.419 107.985 163.578 112.132C163.304 113.551 163.015 114.969 162.736 116.383C161.652 118.15 160.632 119.964 159.47 121.657C158.389 123.252 157.216 124.783 155.956 126.24C154.61 127.791 153.326 129.526 151.633 130.618C148.64 132.564 145.069 133.049 141.581 132.954C137.211 132.833 133.066 131.899 129.263 129.262C125.637 126.807 122.662 123.504 120.595 119.637C118.028 114.853 116.982 109.527 117.003 104.094C117.003 101.035 117.481 97.9764 117.739 94.9175L117.918 94.3215L117.986 93.7308ZM130.636 109.553C130.51 109.295 130.378 109.026 130.247 108.778C129.496 107.217 128.748 105.655 128.001 104.094L127.727 103.435L127.364 101.579L126.87 99.643C126.823 99.1156 126.78 98.6251 126.733 98.1188C126.686 97.6125 126.581 97.2539 126.502 96.8214C126.475 96.5208 126.444 96.2149 126.412 95.9143L126.354 93.5304L125.56 93.5726C125.597 94.3215 125.629 95.0757 125.665 95.8299L125.744 101.594L125.955 102.581L126.049 103.166L126.191 103.852L126.523 105.26L126.844 106.367L126.97 106.948L127.285 107.591L127.748 108.741L128.064 109.527L129.358 112.164L129.794 112.928L133.318 115.703L134.649 116.557L137.005 116.8C137.663 117.575 138.315 117.585 138.967 116.8L142.696 116.393L144.216 115.708L146.683 115.033L150.123 113.762L149.929 113.118L145.768 114.321L142.376 114.505H141.445L138.673 114.352L137.994 114.173L134.486 112.986L133.665 112.264L130.636 109.553Z" fill="#C17164"/>
<path d="M150.213 82.4073C154.91 85.4611 158.627 89.8109 160.916 94.9332C159.214 98.1677 156.626 100.848 153.458 102.66C150.828 104.242 147.593 103.899 144.664 103.024C141.623 102.117 139.083 100.339 136.748 98.1135C133.097 94.6326 132.187 90.2921 132.45 85.6192C132.582 83.2723 133.397 80.9675 133.907 78.6416L138.589 78.4254L139.541 78.6575L140.787 78.7102L141.739 78.9686L147.583 80.5825C147.919 80.6774 148.256 80.7935 148.593 80.899L150.213 82.4073Z" fill="#29170E"/>
<path d="M117.939 94.3478C117.876 94.5482 117.818 94.7486 117.76 94.9437C117.461 95.2788 117.211 95.6554 117.018 96.0619C116.324 98.3139 115.788 100.624 115.009 102.85C113.926 105.924 114.11 109.147 114.694 112.116C115.716 117.246 117.983 122.045 121.295 126.087C123.872 129.257 127.024 131.911 130.583 133.909C132.396 134.857 134.306 135.605 136.28 136.139C137.828 136.596 139.411 136.924 141.013 137.12C142.728 137.363 144.322 136.656 145.973 136.319C149.952 135.514 153.503 133.287 155.967 130.053C158.029 127.416 159.501 124.331 161.226 121.446C161.495 121.003 161.805 120.581 162.1 120.149C161.221 123.033 160.522 125.987 159.422 128.782C157.87 132.822 155.48 136.486 152.411 139.531C150.376 141.535 147.956 142.453 145.326 143.112C144.643 143.286 143.969 143.507 143.28 143.639C142.771 143.755 142.247 143.782 141.729 143.718C138.126 143.117 134.465 142.711 130.951 141.767C128.348 141.065 125.886 139.752 123.456 138.529C120.09 136.836 117.565 134.141 115.604 130.981C113.568 127.712 112.663 124.03 112.211 120.217C111.497 114.036 112.034 107.774 113.789 101.805C114.525 99.2421 115.846 96.8477 116.903 94.3741L117.939 94.3478Z" fill="#630906"/>
<path d="M162.152 120.148C161.858 120.581 161.547 121.003 161.279 121.446C159.533 124.331 158.06 127.421 156.019 130.053C153.556 133.287 150.004 135.514 146.026 136.319C144.374 136.656 142.781 137.374 141.066 137.12C139.464 136.924 137.881 136.596 136.332 136.139C134.358 135.605 132.448 134.857 130.636 133.909C127.076 131.911 123.925 129.257 121.347 126.087C118.036 122.045 115.768 117.246 114.746 112.116C114.162 109.147 113.978 105.924 115.062 102.85C115.84 100.624 116.377 98.3139 117.071 96.0618C117.263 95.6554 117.513 95.2788 117.813 94.9437C117.555 98.0027 117.092 101.062 117.076 104.121C117.076 109.553 118.102 114.88 120.669 119.663C122.735 123.53 125.711 126.834 129.337 129.288C133.14 131.894 137.284 132.848 141.655 132.98C145.142 133.075 148.714 132.59 151.706 130.644C153.389 129.552 154.683 127.817 156.03 126.266C157.289 124.809 158.462 123.278 159.543 121.683C160.706 119.974 161.726 118.16 162.81 116.409C162.985 116.48 163.152 116.568 163.309 116.673C162.904 117.823 162.526 118.983 162.152 120.148Z" fill="#8A2227"/>
<path d="M162.747 99.7115C162.019 100.399 161.355 101.151 160.764 101.958C158.502 105.65 155.504 108.646 151.417 110.033C148.098 111.156 144.579 111.325 141.492 108.952C140.912 108.615 140.307 108.322 139.683 108.076C134.596 105.339 130.562 101.505 128.195 96.199C126.978 93.5248 126.45 90.587 126.66 87.655C126.786 85.9884 126.691 84.306 126.702 82.6288C127.077 81.8779 127.659 81.2504 128.378 80.8205C129.098 80.3906 129.925 80.1762 130.762 80.2028C130.69 80.5061 130.603 80.8054 130.499 81.0993C127.906 87.5443 129.216 93.5831 132.919 99.0312C136.117 103.751 141.376 105.107 146.662 105.956C150.007 106.483 153.121 105.355 156.13 104.026C157.024 103.612 157.795 102.97 158.365 102.164C159.522 100.471 160.469 98.6356 161.521 96.8583L162.747 99.7115Z" fill="#8B3C47"/>
<path d="M161.51 96.8793C160.459 98.6567 159.512 100.492 158.355 102.185C157.785 102.991 157.014 103.633 156.119 104.047C153.121 105.376 150.007 106.52 146.652 105.977C141.392 105.128 136.132 103.773 132.908 99.0523C129.226 93.583 127.896 87.5442 130.489 81.1204C130.592 80.8265 130.68 80.5272 130.752 80.2238L133.907 78.6416C133.381 80.9675 132.582 83.2722 132.45 85.6192C132.187 90.292 133.097 94.6326 136.748 98.1135C139.083 100.339 141.623 102.116 144.664 103.024C147.593 103.899 150.817 104.237 153.458 102.66C156.626 100.848 159.214 98.1677 160.916 94.9332C161.116 95.5819 161.311 96.2306 161.51 96.8793Z" fill="#44121F"/>
<path d="M127.953 48.1365C127.991 48.0672 128.006 47.9879 127.995 47.9097C131.02 46.1429 133.592 47.1872 134.833 50.6153C135.849 53.3149 135.763 56.3075 134.591 58.9431C134.028 60.3038 133.271 60.6782 132.051 59.7236C131.088 58.057 129.973 56.459 129.21 54.708C128.337 52.6458 127.075 50.5784 127.953 48.1365Z" fill="#FB8F8A"/>
<path d="M159.896 59.7552L160.274 59.2595L162.052 59.2173L162.783 59.6339L163.756 60.3618C163.909 60.6044 164.067 60.8417 164.224 61.0843L165.382 63.4893C165.497 63.8532 165.618 64.2118 165.739 64.5705C165.766 64.8605 165.797 65.1453 165.829 65.4354C165.829 66.7909 165.829 68.1516 165.829 69.507C165.797 69.7918 165.76 70.0766 165.729 70.3614L165.287 71.4162L163.399 73.9952L162.526 74.8918L161.889 75.3085C161.6 74.9344 161.378 74.5134 161.232 74.0638C160.774 70.6304 160.332 67.2075 159.98 63.7424C159.817 62.4239 159.922 61.0843 159.896 59.7552Z" fill="#FB8F8A"/>
<path d="M159.896 59.7551C159.896 61.0842 159.796 62.4238 159.933 63.7371C160.285 67.1863 160.727 70.625 161.184 74.0584C161.331 74.508 161.553 74.9291 161.842 75.3031L161.468 75.8305C160.522 75.8305 159.301 76.2208 158.691 75.7725C158.081 75.3242 157.902 74.0373 157.603 73.1038C156.645 70.1661 155.793 67.1283 156.929 64.1379C157.56 62.5187 158.907 61.1791 159.896 59.7551Z" fill="#B14D5A"/>
<path d="M127.953 48.1364C127.075 50.5782 128.343 52.6457 129.237 54.7078C129.999 56.4588 131.114 58.0569 132.077 59.7235H130.531L129.51 59.1275L128.953 59.1011C126.444 56.0527 125.755 52.6826 127.222 48.9591C127.349 48.6479 127.701 48.4159 127.953 48.1364Z" fill="#B14D5A"/>
<path d="M138.599 72.3443C138.489 71.6112 138.383 70.8729 138.278 70.1398L139.188 70.1714C139.483 72.5026 141.671 73.6945 144.127 72.8612C144.621 72.6977 145.105 72.5078 145.595 72.3338L146.121 72.993L144.259 74.2377L143.638 74.8917C140.94 75.5668 140.482 75.3664 139.057 72.9667C138.917 72.75 138.764 72.5421 138.599 72.3443Z" fill="#44121F"/>
<path d="M148.324 77.3811C148.382 76.4212 148.44 75.4613 148.514 74.1692C149.24 75.5035 149.534 76.8062 150.334 77.3336C151.133 77.861 152.359 77.4338 153.574 77.4338C153.984 78.5361 152.785 78.9369 152.122 79.6279C150.234 79.9127 149.055 79.0213 148.324 77.3811Z" fill="#44121F"/>
<path d="M148.324 77.3811C149.066 79.0213 150.244 79.9127 152.122 79.6068C151.717 80.1025 151.286 80.5772 150.917 81.1046C150.658 81.5233 150.426 81.9585 150.223 82.4073L148.603 80.8989C148.577 80.5508 148.545 80.208 148.519 79.8441C148.44 79.0319 148.377 78.2039 148.324 77.3811Z" fill="#721B24"/>
<path d="M138.599 72.3444C138.764 72.5353 138.916 72.7361 139.057 72.9456C140.477 75.3453 140.94 75.5457 143.638 74.8706C142.902 76.2577 141.56 76.822 140.293 76.2893C139.52 75.9729 139.093 74.7071 138.641 73.7736C138.452 73.3833 138.604 72.8243 138.599 72.3444Z" fill="#671722"/>
<path d="M165.844 69.5069C165.844 68.1514 165.844 66.7907 165.844 65.4353C165.85 66.7907 165.844 68.1514 165.844 69.5069Z" fill="#B14D5A"/>
<path d="M139.188 70.1715L138.278 70.1451C138.173 69.8076 138.063 69.4753 137.957 69.1378L138.341 68.9426L139.188 70.1715Z" fill="#671722"/>
<path d="M162.526 74.8917L163.441 73.9951L162.526 74.8917Z" fill="#B14D5A"/>
<path d="M129.51 59.1434L130.531 59.7394L129.51 59.1434Z" fill="#762029"/>
<path d="M165.76 64.5704C165.639 64.2118 165.518 63.8532 165.403 63.4893C165.518 63.8532 165.639 64.2118 165.76 64.5704Z" fill="#B14D5A"/>
<path d="M165.303 71.4109L165.745 70.3561L165.303 71.4109Z" fill="#B14D5A"/>
<path d="M139.541 78.6575L138.589 78.4254L139.541 78.6575Z" fill="#44121F"/>
<path d="M141.739 78.9687L140.787 78.7102L141.739 78.9687Z" fill="#44121F"/>
<path d="M117.939 94.3479H116.976L117.986 93.7097L117.939 94.3479Z" fill="#8A2227"/>
<path d="M143.638 74.8917L144.248 74.2535L143.638 74.8917Z" fill="#671722"/>
<path d="M162.804 59.6339L162.073 59.2173L162.804 59.6339Z" fill="#B14D5A"/>
<path d="M164.246 61.0844C164.088 60.8418 163.93 60.6044 163.777 60.3618L164.246 61.0844Z" fill="#B14D5A"/>
<path d="M176.243 238.43C177.295 238.636 177.705 239.342 178.257 240.281C179.441 242.27 180.824 244.316 182.597 245.756C188.908 250.877 196.046 254.474 203.715 257.211C206.969 258.392 210.364 259.14 213.813 259.437C215.683 259.575 217.563 259.467 219.404 259.115C224.869 258.178 230.142 256.342 235.01 253.683C239.133 251.46 242.957 248.722 246.392 245.534C249.34 242.735 251.857 239.513 253.861 235.972C257.7 229.211 260.172 221.912 261.966 214.428C263.19 209.058 264.069 203.614 264.596 198.131C265.053 193.833 264.875 189.466 264.98 185.125C264.98 184.487 264.754 183.654 265.885 183.722L265.916 187.488V188.115C266.016 189.972 266.179 191.807 266.211 193.685C266.258 196.322 266.211 198.959 266.211 201.638L265.911 202.899C265.811 204.259 265.711 205.625 265.606 206.986C265.606 207.197 265.606 207.408 265.606 207.619V208.558L265.306 209.507L264.975 212.956C264.875 213.173 264.78 213.383 264.68 213.594C263.691 217.576 262.771 221.579 261.698 225.54C259.841 232.365 256.57 238.578 252.667 244.379C250.521 247.575 247.696 250.376 244.882 253.05C242.687 255.23 240.195 257.089 237.482 258.572C233.072 260.937 228.129 262.125 223.128 262.021C219.494 261.894 215.801 261.963 212.251 261.309C207.919 260.564 203.672 259.386 199.575 257.791C195.01 255.945 190.697 253.44 186.373 251.046C184.737 250.138 183.375 248.741 181.892 247.565C181.247 246.841 180.65 246.077 180.104 245.276C178.768 243.008 177.521 240.708 176.243 238.43Z" fill="#83232B"/>
<path d="M284.43 290.965L279.407 298.191C278.955 296.234 278.613 294.24 278.019 292.331C276.967 288.887 275.873 285.433 274.5 282.11C273.59 279.911 272.149 277.933 270.944 275.855L269.682 274.03C269.251 272.896 269.077 271.546 268.341 270.67C266.342 268.313 264.28 265.924 261.214 264.869L259.305 263.703L263.733 262.353C264.091 262.659 264.443 263.218 264.785 263.234C268.993 263.398 272.117 265.444 275.015 268.371C277.578 270.962 279.648 274 281.122 277.337C282.647 280.791 283.704 284.462 284.804 288.096C285.077 288.94 284.578 290 284.43 290.965Z" fill="#91292E"/>
<path d="M181.797 251.299C180.935 252.064 179.941 252.718 179.241 253.614C177.137 256.309 175.291 259.215 173.082 261.81C171.094 264.211 168.876 266.41 166.46 268.376C163.001 271.199 158.893 273.11 154.51 273.935C152.314 274.332 150.088 274.54 147.856 274.557C144.821 274.557 141.855 274.088 139.541 271.778C139.541 271.567 139.541 271.356 139.541 271.145C140.17 270.893 140.817 270.686 141.476 270.528C144.632 270.001 147.877 269.821 150.944 268.946C154.205 268.018 157.303 266.488 160.411 265.117C160.99 264.869 161.353 264.125 161.816 263.614C165.571 262.606 168.516 260.212 171.536 257.934C171.741 257.723 171.951 257.512 172.156 257.295C172.494 257.184 172.815 257.03 173.113 256.837C175.391 254.885 177.626 252.881 179.951 250.961C180.532 250.592 181.157 250.299 181.813 250.091L181.797 251.299Z" fill="#671722"/>
<path d="M181.797 250.091C181.142 250.299 180.516 250.592 179.935 250.961C177.632 252.881 175.396 254.885 173.098 256.837C172.8 257.03 172.478 257.184 172.14 257.295C173.056 256.13 173.913 254.911 174.902 253.799C176.522 251.974 178.2 250.197 179.904 248.456C180.316 248.178 180.776 247.978 181.261 247.865V248.472L181.829 249.453L181.797 250.091Z" fill="#792616"/>
<path d="M207.291 268.935H206.35L205.734 268.302C206.807 267.137 206.818 268.614 207.291 268.935Z" fill="#922B30"/>
<path d="M181.902 257.301C181.902 256.673 181.902 256.045 181.902 255.413C181.887 256.045 181.892 256.673 181.902 257.301Z" fill="#902E1D"/>
<path d="M183.149 270.206L182.549 270.876V269.236L183.149 270.206Z" fill="#902E1D"/>
<path d="M182.476 260.776L181.913 259.162L182.476 260.776Z" fill="#902E1D"/>
<path d="M265.927 202.883L266.226 201.622L265.927 202.883Z" fill="#91292E"/>
<path d="M265.301 209.491L265.6 208.542L265.301 209.491Z" fill="#91292E"/>
<path d="M181.85 249.463L181.282 248.482L181.85 249.463Z" fill="#902E1D"/>
<path d="M265.937 188.1V187.472C265.932 187.683 265.932 187.894 265.937 188.1Z" fill="#91292E"/>
<path d="M264.675 213.6C264.775 213.389 264.869 213.178 264.969 212.962C264.869 213.157 264.775 213.368 264.675 213.6Z" fill="#91292E"/>
<path d="M139.541 271.778C140.424 273.023 141.182 274.383 142.218 275.47C144.192 277.607 146.276 279.641 148.461 281.561C149.361 282.24 150.44 282.638 151.564 282.706C153.648 282.858 155.739 282.87 157.823 282.743C162.699 282.511 166.202 284.852 168.827 288.671C170.457 291.06 171.883 293.586 173.355 296.055C173.549 296.523 173.677 297.017 173.734 297.521C173.124 296.819 172.319 296.213 171.946 295.411C171.057 293.47 169.316 292.901 167.549 292.553C166.034 292.257 164.445 292.331 162.899 292.162C162 292.067 161.127 291.788 160.232 291.635C159.771 291.577 159.303 291.584 158.844 291.656C157.639 291.814 156.451 292.12 155.241 292.183C148.151 292.711 141.04 293.207 133.96 293.766C129.226 294.14 124.445 294.546 119.701 295.058C117.103 295.337 114.541 295.928 111.948 296.276C108.403 296.751 104.847 297.136 101.292 297.547C98.4095 297.874 95.5061 298.133 92.6396 298.518C90.0465 298.866 87.4693 299.346 84.892 299.767C80.7956 300.463 76.5866 299.98 72.7526 298.375C67.2246 296.118 63.1115 292.305 59.477 287.695C56.1844 283.518 53.8018 278.887 51.6505 274.083C51.4982 273.814 51.3222 273.56 51.1245 273.323C50.83 270.502 52.5079 268.35 53.7544 266.161C56.0634 262.195 58.6617 258.392 61.1811 254.558C63.7662 250.621 66.9624 247.125 70.6487 244.2C71.5544 243.526 72.4218 242.803 73.247 242.032C73.552 241.721 73.5468 241.104 73.6835 240.624C74.2262 240.279 74.7921 239.973 75.3771 239.706C78.2858 238.652 81.1629 237.328 84.1451 236.616C87.3253 235.883 90.5675 235.454 93.8283 235.334C98.3411 235.144 102.612 236.363 106.704 238.293C109.818 239.754 112.311 241.985 114.762 244.3C118.444 247.734 122.178 251.088 125.523 254.811C130.168 259.985 134.465 265.47 138.909 270.823L139.53 271.773L139.541 271.778Z" fill="#902E1D"/>
<path d="M138.92 270.829C134.475 265.475 130.178 259.99 125.534 254.817C122.189 251.093 118.428 247.739 114.773 244.305C112.321 242.006 109.828 239.759 106.715 238.298C102.623 236.368 98.3517 235.134 93.8388 235.339C90.578 235.459 87.3358 235.888 84.1557 236.621C81.1576 237.333 78.2963 238.636 75.3877 239.712C74.8026 239.978 74.2367 240.285 73.694 240.629C72.5948 238.657 71.3272 236.758 70.433 234.696C68.8691 231.294 67.9658 227.625 67.7716 223.884C67.6874 221.126 67.8978 218.352 68.0819 215.593C68.1801 214.564 68.4227 213.554 68.8025 212.592C68.9077 212.297 69.5389 212.197 69.9281 212.007C70.2332 213.188 70.3383 214.475 70.8696 215.546C72.1429 218.168 74.1073 220.391 76.5501 221.975C78.4541 223.22 80.2897 224.517 82.5041 225.139C85.7704 226.025 89.0367 226.922 92.3187 227.734C95.4378 228.504 98.7198 228.515 101.565 230.44C103.112 231.495 105.221 231.674 106.825 232.66C110.943 235.213 114.967 237.934 118.922 240.708C121.552 242.554 124.109 244.537 126.575 246.605C129.547 249.094 132.361 251.758 135.291 254.316C137.552 256.299 139.777 258.334 142.155 260.17C144.337 261.857 146.552 263.661 149.04 264.748C150.828 265.523 153.084 265.243 155.141 265.359C157.534 265.502 159.627 264.363 161.81 263.635C161.347 264.162 160.984 264.89 160.406 265.138C157.282 266.509 154.184 268.039 150.938 268.967C147.888 269.842 144.627 270.022 141.471 270.549C140.812 270.708 140.165 270.914 139.535 271.166L138.92 270.829Z" fill="#721B24"/>
<path d="M133.276 305.4H129.826C130.3 304.974 130.914 304.738 131.551 304.738C132.188 304.738 132.802 304.974 133.276 305.4Z" fill="#792616"/>
<path d="M172.161 257.295C171.956 257.512 171.746 257.723 171.541 257.934C171.746 257.723 171.956 257.512 172.161 257.295Z" fill="#792616"/>
<path d="M219.515 140.612L219.641 138.65C220.214 140.121 221.145 141.556 221.287 143.064C221.661 146.973 221.54 150.907 220.099 154.667C218.962 157.631 217.411 160.469 214.35 161.666C210.631 163.101 206.828 163.19 203.562 160.237C203.401 160.04 203.265 159.824 203.157 159.593C205.366 159.767 207.617 160.3 209.763 160.015C211.788 159.741 214.118 159.071 215.586 157.758C219.189 154.53 220.477 150.163 220.062 145.322C220.062 144.183 220.042 143.04 220.004 141.894L219.515 140.612Z" fill="#A0505A"/>
<path d="M210.663 165.669C212.241 165.669 213.908 165.801 215.544 165.637C218.531 165.347 220.235 163.243 221.224 160.717C221.95 158.86 222.092 156.772 222.487 154.783C222.546 154.329 222.674 153.886 222.865 153.47C223.491 157.331 223.586 161.128 221.235 164.519C219.657 166.787 215.496 167.779 212.688 166.629C211.967 166.349 211.231 165.949 210.663 165.669Z" fill="#44121F"/>
<path d="M220.062 145.306C220.477 150.147 219.189 154.514 215.586 157.742C214.118 159.055 211.788 159.725 209.763 159.999C207.617 160.284 205.366 159.752 203.157 159.578L202.857 159.229C203.225 159.129 203.672 158.844 203.951 158.96C206.886 160.173 209.737 159.551 212.256 158.111C214.698 156.664 216.582 154.435 217.605 151.782C218.389 149.852 218.899 147.811 219.557 145.823C219.625 145.617 219.888 145.475 220.062 145.306Z" fill="#44121F"/>
<path d="M231.833 145.912C231.991 146.166 232.143 146.44 232.296 146.672C232.143 146.419 231.991 146.166 231.833 145.912Z" fill="#A0505A"/>
<path d="M232.48 147.801C232.627 148.054 232.78 148.328 232.932 148.56C232.769 148.307 232.617 148.054 232.48 147.801Z" fill="#A0505A"/>
<path d="M219.515 140.612L220.004 141.878L219.515 140.612Z" fill="#44121F"/>
<path d="M178.1 288.444L178.683 291.609L178.1 288.444Z" fill="#902E1D"/>
<path d="M178.373 280.876C178.284 281.509 178.189 282.141 178.1 282.774C178.189 282.163 178.305 281.509 178.373 280.876Z" fill="#902E1D"/>
<path d="M178.715 292.537L179.315 294.435L178.715 292.537Z" fill="#902E1D"/>
<path d="M179.288 278.038L178.762 279.315L179.288 278.038Z" fill="#902E1D"/>
<path d="M179.357 295.058C179.451 295.374 179.541 295.691 179.635 296.012C179.525 295.691 179.436 295.374 179.357 295.058Z" fill="#902E1D"/>
<path d="M180.619 299.767L180.935 300.4L180.619 299.767Z" fill="#902E1D"/>
<path d="M211.315 302.858H208.89C209.406 301.198 209.917 299.537 210.426 297.874C210.72 299.537 211.017 301.198 211.315 302.858Z" fill="#671722"/>
<path d="M210.705 292.827C210.4 293.781 210.1 294.736 209.795 295.685C209.684 295.058 209.579 294.425 209.474 293.792L209.874 294.087L210.705 292.827Z" fill="#AF3D29"/>
<path d="M208.285 290.928C208.553 291.382 208.811 291.83 209.095 292.278C208.811 291.83 208.559 291.382 208.285 290.928Z" fill="#AF3D29"/>
<path d="M201.348 278.049L201.926 278.724C201.732 278.503 201.542 278.276 201.348 278.049Z" fill="#AF3D29"/>
<path d="M207.317 288.112C207.496 288.344 207.675 288.581 207.843 288.818C207.67 288.581 207.496 288.344 207.317 288.112Z" fill="#AF3D29"/>
<path d="M210.142 283.386L210.71 284.684L210.142 283.386Z" fill="#AF3D29"/>
<path d="M208.89 276.467L209.463 277.131L208.89 276.467Z" fill="#AF3D29"/>
<path d="M240.79 299.182L240.264 298.475L240.79 299.182Z" fill="#AF3D29"/>
<path d="M137 116.8L134.649 116.557L133.318 115.718L129.794 112.944L129.358 112.179L128.064 109.542L127.748 108.757C127.596 108.372 127.438 107.987 127.285 107.607C127.18 107.391 127.08 107.18 126.975 106.969L126.849 106.389C126.744 106.019 126.633 105.65 126.528 105.281C126.418 104.812 126.307 104.342 126.202 103.873C126.155 103.646 126.102 103.419 126.055 103.187C126.007 102.955 125.991 102.797 125.965 102.596C125.892 102.27 125.823 101.943 125.75 101.616L125.671 95.851L126.418 95.9353C126.449 96.236 126.481 96.5419 126.507 96.8425C126.586 97.275 126.659 97.7074 126.738 98.1399C126.817 98.5724 126.828 99.1525 126.875 99.6641C127.038 100.308 127.201 100.956 127.37 101.6L127.732 103.456C127.822 103.678 127.917 103.894 128.006 104.115C128.753 105.677 129.502 107.238 130.252 108.799L130.641 109.574L133.665 112.264L134.486 112.986L137.994 114.173L138.673 114.352L141.445 114.505H142.376L145.768 114.326L146.683 115.033L144.216 115.708L142.696 116.393L138.967 116.8H137Z" fill="#29170E"/>
<path d="M146.678 115.033L145.763 114.326L149.923 113.118L150.118 113.762L146.678 115.033Z" fill="#8B3C47"/>
<path d="M126.412 95.9248L125.665 95.8404C125.629 95.0862 125.597 94.332 125.56 93.5831L126.354 93.5409L126.412 95.9248Z" fill="#8B3C47"/>
<path d="M137 116.8H138.962C138.331 117.612 137.658 117.575 137 116.8Z" fill="#8B3C47"/>
<path d="M142.691 116.393L144.211 115.708L142.691 116.393Z" fill="#8B3C47"/>
<path d="M127.364 101.589C127.196 100.946 127.033 100.297 126.87 99.6536L127.364 101.589Z" fill="#8B3C47"/>
<path d="M133.313 115.718L134.649 116.557L133.313 115.718Z" fill="#8B3C47"/>
<path d="M126.759 98.1293C126.681 97.6969 126.607 97.2644 126.528 96.8319C126.581 97.2644 126.654 97.6969 126.759 98.1293Z" fill="#8B3C47"/>
<path d="M134.481 112.976L133.66 112.253L134.481 112.976Z" fill="#8B3C47"/>
<path d="M125.744 101.605C125.818 101.932 125.886 102.259 125.96 102.586C125.886 102.259 125.818 101.932 125.744 101.605Z" fill="#8B3C47"/>
<path d="M126.523 105.27C126.628 105.64 126.738 106.009 126.844 106.378C126.759 106.009 126.628 105.64 126.523 105.27Z" fill="#8B3C47"/>
<path d="M130.636 109.563L130.247 108.788C130.378 109.047 130.51 109.305 130.636 109.563Z" fill="#8B3C47"/>
<path d="M127.743 108.746L128.059 109.532L127.743 108.746Z" fill="#8B3C47"/>
<path d="M129.352 112.179L129.789 112.944L129.352 112.179Z" fill="#8B3C47"/>
<path d="M126.97 106.958C127.075 107.169 127.175 107.38 127.28 107.596C127.175 107.38 127.075 107.169 126.97 106.958Z" fill="#8B3C47"/>
<path d="M128.001 104.105C127.911 103.883 127.817 103.667 127.727 103.446C127.811 103.662 127.911 103.899 128.001 104.105Z" fill="#8B3C47"/>
<path d="M126.049 103.177C126.097 103.409 126.149 103.635 126.197 103.862C126.144 103.635 126.097 103.409 126.049 103.177Z" fill="#8B3C47"/>
<path d="M138.667 114.342L137.989 114.162L138.667 114.342Z" fill="#8B3C47"/>
<path d="M138.92 270.829L139.546 271.145C139.546 271.356 139.546 271.567 139.546 271.778C139.335 271.461 139.13 271.145 138.92 270.829Z" fill="#792616"/>
</svg>
