<svg width="190" height="190" viewBox="0 0 190 190" fill="none" xmlns="http://www.w3.org/2000/svg">
<path d="M134.124 79.2778C132.642 81.5198 130.764 83.3979 128.698 85.0882C125.952 87.3331 122.86 89.117 119.542 90.3704C115.82 91.7853 111.9 92.6153 107.924 92.8308C105.094 93.0235 102.252 92.8348 99.4723 92.2697C93.8379 91.063 89.1426 88.3655 86.0273 83.3838C83.3134 79.0336 82.7664 74.3078 84.182 69.3942C85.9968 63.0837 90.2131 58.6772 95.6456 55.3083C97.3265 54.2706 99.146 53.463 100.902 52.5498L99.0708 53.996C99.97 54.0523 100.698 54.1086 101.418 54.1392C104.153 54.2612 106.891 54.3904 109.635 54.489C111.88 54.5711 114.126 54.6134 116.373 54.6721C117.192 54.6932 117.408 54.9632 117.202 55.7778C116.854 57.1582 116.476 58.5316 116.124 59.9097C115.953 60.5952 115.812 61.2878 115.655 61.9756L115.922 62.0883L120.852 59.0786C120.946 59.243 121.111 59.3932 121.087 59.5223C120.972 60.4097 120.852 61.3018 120.667 62.1775C120.449 63.187 120.148 64.1777 119.897 65.1802C119.875 65.2501 119.867 65.3237 119.874 65.3966C119.881 65.4696 119.902 65.5405 119.937 65.6051C120.77 66.5841 120.437 67.8119 120.533 68.8918C120.721 71.4097 121.424 73.8621 122.599 76.0967C123.132 77.1521 123.903 78.0689 124.852 78.7743C125.8 79.4797 126.9 79.9543 128.064 80.1605C130.126 80.5704 132.265 80.2587 134.124 79.2778ZM94.0563 73.141L94.4107 72.7889C94.7392 72.6113 94.9963 72.3259 95.1387 71.9807C95.2811 71.6356 95.3001 71.2519 95.1925 70.8943C94.8944 69.8543 94.1196 69.312 93.1172 69.1195C91.9927 68.9035 91.2203 69.5538 90.6029 70.3802C89.9854 71.2066 90.0394 72.0118 90.6169 72.8969C91.3564 74.0332 93.2534 74.167 94.0563 73.141ZM102.508 72.0447C102.508 72.9556 103.132 73.3453 103.834 73.688C105.243 74.3548 107.466 73.188 107.565 71.7324C107.647 70.5398 106.532 69.3848 105.201 69.2909C103.94 69.1993 102.649 70.2112 102.508 71.4038V72.0447ZM100.494 80.8719C99.7545 79.6103 98.6113 78.635 97.2491 78.104C96.6997 77.8856 95.7888 77.8692 95.3521 78.1979C93.4552 79.6065 92.535 81.6724 91.7626 83.8064L91.9128 84.0412L92.9881 83.6867C93.7182 83.5552 94.4506 83.4331 95.1761 83.2852C96.8805 82.9378 98.5825 82.5974 100.278 82.2124C100.611 82.1372 100.902 81.8719 101.217 81.6959L100.494 80.8719Z" fill="#C62D56"/>
<path d="M145.554 52.2235L146.963 50.8149C148.224 49.6505 149.483 48.4837 150.74 47.3146C150.785 47.27 150.759 47.1502 150.766 47.0657L150.937 46.8896C151.125 47.0399 151.407 47.1502 151.489 47.3451C152.424 49.5124 152.959 51.8308 153.069 54.1885C153.139 55.6973 153.028 57.209 152.738 58.6913C152.352 60.4654 151.826 62.2059 151.163 63.896C150.66 65.2131 149.909 66.4362 149.268 67.6992C149.246 67.7421 149.216 67.7804 149.179 67.8119C148.277 68.8097 147.374 69.8051 146.479 70.8099C146.413 70.885 146.42 71.0282 146.395 71.1385L145.587 71.9226L144.474 72.9157L144.193 73.1692C144.029 73.1912 143.87 73.2404 143.723 73.3148C141.713 74.8836 139.445 76.0896 137.021 76.8785C136.429 77.071 135.847 77.3035 135.269 77.5194L133.609 77.5312C133.02 77.172 132.436 76.7799 131.835 76.463C130.895 75.9723 130.125 75.3009 129.811 74.2773C129.509 73.3635 129.312 72.4184 129.224 71.4602C129.059 68.8957 129.382 66.3232 130.177 63.8796C131.4 60.0506 133.816 57.0479 137.241 54.8411C137.729 54.5289 138.093 54.0265 138.516 53.611L140.112 52.7095L140.636 52.5287L143.286 51.5169C143.192 51.7375 143.15 51.862 143.087 51.9747C142.286 53.3574 141.472 54.7331 140.688 56.1276C140.573 56.4126 140.494 56.7107 140.453 57.0151L140.758 57.17C140.955 56.9352 141.15 56.7005 141.347 56.4657L141.706 56.0948C142.289 55.5094 142.87 54.9257 143.451 54.3434C143.744 54.0453 144.038 53.7495 144.329 53.4513L145.554 52.2235Z" fill="#FE194A"/>
<path d="M133.605 77.5404L135.265 77.5287L135.307 77.6672L134.133 79.2777C132.274 80.2592 130.133 80.5709 128.071 80.1604C126.907 79.9542 125.807 79.4795 124.859 78.7742C123.91 78.0688 123.139 77.152 122.606 76.0966C121.431 73.862 120.728 71.4095 120.54 68.8917C120.444 67.8071 120.775 66.5793 119.944 65.605C119.909 65.5404 119.888 65.4695 119.881 65.3965C119.874 65.3236 119.882 65.25 119.904 65.1801C120.155 64.1776 120.456 63.1869 120.674 62.1774C120.864 61.3017 120.979 60.4096 121.094 59.5222C121.111 59.3931 120.946 59.2429 120.859 59.0785L115.929 62.0882L115.662 61.9755C115.814 61.2877 115.955 60.5951 116.131 59.9096C116.483 58.5315 116.861 57.1581 117.209 55.7777C117.415 54.9631 117.209 54.6931 116.38 54.672C114.133 54.6133 111.887 54.571 109.642 54.4889C106.905 54.3903 104.168 54.2541 101.426 54.1391C100.695 54.1085 99.9676 54.0522 99.0779 53.9959L100.911 52.5614L101.261 52.2093H101.496L103.909 51.3313C104.247 51.2786 104.581 51.2089 104.912 51.1223C105.989 50.7913 107.06 50.4415 108.13 50.0917C109.75 49.5658 111.363 49.0212 112.988 48.5071C114.176 48.1338 115.373 47.8028 116.568 47.4436L117.091 47.1079L117.444 47.0891L117.775 46.9834L118.491 46.7815L119.594 46.636L120.423 46.4012L124.799 45.4927L125.177 45.3917L126.527 45.2438L127.639 45.0091L128.132 44.9504L131.149 44.4973L132.011 44.448L133.614 44.131L134.985 44.0606L136.603 43.7648L136.927 43.7319H138.023L138.549 44.2766C138.394 44.5082 138.274 44.7613 138.192 45.0278C137.993 46.3754 137.866 47.7347 137.64 49.0775C137.579 49.4849 137.367 49.8544 137.046 50.1128C136.051 50.7467 134.964 51.2421 133.948 51.8478C130.738 53.7634 127.538 55.6948 124.348 57.6418C121.697 59.2616 120.883 61.8276 120.794 64.734C120.768 65.5627 121.028 65.6731 121.82 65.4148C122.993 65.0298 124.181 64.6964 125.365 64.342C125.163 65.5604 124.853 66.7718 124.789 67.9972C124.724 69.2791 124.639 70.6501 125.012 71.845C126.24 75.7914 129.485 77.794 133.436 77.7987C133.476 77.7916 133.541 77.6273 133.605 77.5404Z" fill="#B72146"/>
<path d="M138.525 44.2697L137.995 43.7274C137.995 43.6381 138.014 43.5513 138.021 43.4644L138.063 43.2297L137.873 42.847C137.828 42.7625 137.783 42.6756 137.741 42.5887C137.699 42.3059 137.637 42.0265 137.553 41.753C136.633 39.3725 135.694 36.999 134.776 34.6161C134.307 33.3766 133.837 32.1276 133.384 30.881C133.356 30.7801 133.33 30.6768 133.302 30.5758L133.013 29.6532C132.997 29.5499 132.983 29.4466 132.966 29.3433C132.684 28.2743 132.404 27.2062 132.126 26.1388C132.112 25.9768 132.1 25.8124 132.086 25.6505L131.755 23.8568C131.741 23.6362 131.724 23.4155 131.708 23.1948C131.708 22.6689 131.708 22.1454 131.708 21.6195L131.764 19.9081C131.87 19.4832 131.978 19.0606 132.083 18.6357C132.097 18.5324 132.114 18.4291 132.128 18.3258C132.402 17.1394 132.675 15.9531 132.947 14.7668L133.004 14.4592L133.729 12.6187L134.591 11.7031L136.469 11.6772L137.173 12.4215C137.279 12.8464 137.382 13.2713 137.488 13.6962C136.093 14.2174 134.708 14.87 134.635 16.5697C134.585 18.1595 134.67 19.7507 134.889 21.3261C135.124 23.1619 135.527 24.9767 135.872 26.7985C136.368 29.4184 136.863 32.0384 137.384 34.6537C137.854 37.0178 138.366 39.3725 138.87 41.7319C138.936 41.9356 139.023 42.1317 139.131 42.3164L139.427 42.2413C139.333 40.7169 139.238 39.1917 139.143 37.6657C139.131 37.608 139.105 37.5539 139.068 37.5084C138.333 36.3722 138.769 35.2336 139.068 34.0973C139.183 34.4424 139.302 34.7899 139.415 35.1373L139.784 35.1115V32.8671L139.903 32.1628C139.995 31.4985 140.089 30.8317 140.18 30.1673L140.251 29.6978C140.34 29.1485 140.427 28.5968 140.516 28.0544L140.624 27.2328L141.004 24.9485C141.035 24.7302 141.068 24.5142 141.098 24.2959L141.387 22.7722C141.425 22.5586 141.462 22.3473 141.497 22.136C141.587 21.7041 141.675 21.2737 141.763 20.8448C141.796 20.6875 141.826 20.5326 141.857 20.3753L141.887 20.0231C141.901 19.9198 141.915 19.8165 141.927 19.7109C142.035 19.3478 142.141 18.9839 142.246 18.6192C142.284 18.4596 142.319 18.3023 142.354 18.1497C142.458 17.821 142.561 17.4924 142.662 17.1637L143.059 16.4876L144.519 16.6707C144.19 17.8962 143.803 19.1076 143.549 20.3471C143.113 22.4717 142.737 24.6104 142.375 26.7515C142.185 27.8831 142.127 29.0381 141.934 30.1697C141.749 31.2519 141.481 32.3201 141.23 33.3883C141.134 33.7851 141.082 34.0926 141.636 34.0926L141.716 34.1067L141.793 34.095C141.782 34.1982 141.772 34.3015 141.76 34.4048L141.352 34.7969L140.803 35.2359L141.272 35.6608C141.18 36.0959 141.087 36.5302 140.995 36.9638L141.335 37.0506L142.657 33.6771L142.991 32.8953L143.155 32.4258C143.204 32.3389 143.254 32.2544 143.3 32.1675C143.448 31.8529 143.596 31.536 143.742 31.2285C143.789 31.1393 143.833 31.0501 143.878 30.9608L144.641 29.3175C144.681 29.2212 144.721 29.1273 144.763 29.0334L145.162 28.2563L145.258 27.9676L145.493 27.5427L145.611 27.268C145.812 26.8407 146.017 26.4134 146.219 25.9838C146.234 25.9367 146.26 25.8935 146.294 25.8571L146.528 25.418L146.869 24.8147L147.073 24.3733L147.392 23.7583L147.97 22.8051C147.986 22.761 148.012 22.7209 148.045 22.6877L148.515 21.9412C148.533 21.896 148.558 21.8534 148.587 21.8144L148.871 21.4223C149.24 21.1265 149.475 20.3612 150.13 21.0585L150.649 22.3121L150.712 22.7816C150.712 24.0525 150.712 25.3226 150.712 26.5919L150.663 27.0614C150.564 27.4934 150.468 27.9253 150.369 28.3573L150.306 28.6437C150.073 29.2995 149.838 29.9537 149.602 30.6063C149.559 30.7002 149.517 30.7942 149.477 30.8881L149.259 31.3177C149.001 31.7684 148.744 32.2192 148.489 32.6699L148.198 33.069C147.885 33.5808 147.572 34.0926 147.259 34.6044C147.16 34.7359 147.064 34.8697 146.965 35.0035C146.705 35.3932 146.444 35.7853 146.181 36.1773C146.094 36.3158 146.007 36.4567 145.918 36.5952L144.615 38.4733L144.329 38.8771L143.747 39.7082C143.65 39.8443 143.552 39.9782 143.455 40.112L141.986 42.1685L141.702 42.5794C141.497 42.8493 141.291 43.1193 141.087 43.3916L140.805 43.7931L140.213 44.6054L139.779 45.1923H139.739L139.27 45.1735L138.525 44.2697Z" fill="#FE1F4F"/>
<path d="M139.063 34.0972C138.772 35.2335 138.335 36.3721 139.063 37.5084C139.1 37.5539 139.126 37.6079 139.138 37.6657C139.235 39.1916 139.33 40.7168 139.422 42.2412L139.126 42.3164C139.018 42.1316 138.931 41.9356 138.866 41.7318C138.361 39.3724 137.854 37.0177 137.38 34.6536C136.858 32.0384 136.363 29.4184 135.868 26.7984C135.523 24.9766 135.119 23.1619 134.884 21.326C134.665 19.7506 134.58 18.1595 134.631 16.5697C134.703 14.8606 136.088 14.222 137.483 13.6962L137.936 14.0882L137.964 14.7597L137.471 15.0695L137.964 15.4663L138.011 15.8044L138.143 16.1682L138.359 16.3396L138.394 16.6542C138.363 16.842 138.335 17.0298 138.305 17.2176L137.835 17.6402L138.359 18.0933C138.417 18.6802 138.476 19.2671 138.537 19.8517C138.57 20.1475 138.605 20.4457 138.64 20.7438L138.887 23.3732C138.898 24.3576 138.91 25.3397 138.924 26.3195C138.913 27.2711 138.9 28.2211 138.885 29.1695C138.821 29.8738 138.725 30.5781 138.706 31.2824C138.706 31.5172 138.892 31.7519 138.992 31.9867C139.018 32.6957 139.039 33.3953 139.063 34.0972Z" fill="#FE103C"/>
<path d="M117.418 47.0821L117.066 47.1009L116.542 47.4366C115.347 47.7911 114.15 48.1268 112.962 48.5001C111.337 49.0143 109.724 49.5589 108.105 50.0848C107.034 50.4346 105.964 50.7891 104.886 51.1154C104.556 51.2019 104.221 51.2717 103.884 51.3243C104.102 50.8187 104.351 50.3271 104.63 49.8524C105.569 48.4438 106.377 46.9131 107.544 45.7275C109.476 43.7649 112.124 42.8939 114.586 41.7811C114.807 41.6825 115.18 41.9244 115.483 42.0159L115.138 42.7202C114.744 43.2203 114.279 43.6968 114.554 44.4997C114.708 44.4536 114.859 44.3947 115.004 44.3236C116.312 43.5161 117.61 42.692 118.925 41.8962C119.092 41.7976 119.34 41.8375 119.552 41.8117C119.577 41.9979 119.577 42.1865 119.552 42.3727C119.439 42.7625 119.207 43.131 119.162 43.5231C119.082 44.2274 118.254 44.8519 118.965 45.6172L118.387 46.1971L117.779 46.5891L117.418 47.0821Z" fill="#FD113C"/>
<path d="M115.483 42.0089C115.18 41.9243 114.807 41.6825 114.587 41.7741C112.124 42.8869 109.476 43.7579 107.544 45.7205C106.37 46.9061 105.567 48.4438 104.63 49.8453C104.351 50.3201 104.102 50.8117 103.884 51.3173L101.47 52.1953C101.754 51.1999 102.003 50.1928 102.339 49.2138C102.582 48.6045 102.859 48.0096 103.17 47.4319C103.181 47.3791 103.211 47.3322 103.254 47.3005L103.524 46.9108L104.1 46.2417L104.952 45.3683L105.449 44.9786L106.015 44.5091C106.046 44.4697 106.09 44.4429 106.14 44.434L107.079 43.833L107.328 43.6898L107.774 43.455C107.786 43.4349 107.802 43.4175 107.822 43.4042C107.841 43.3908 107.863 43.3818 107.886 43.3775L109.53 42.3962L109.999 42.1615L112.863 40.8163C112.896 40.7801 112.94 40.7568 112.988 40.7505L116.573 39.3419L116.899 39.2292C117.03 39.4124 117.16 39.5955 117.289 39.7809C117.285 39.8025 117.277 39.823 117.265 39.8412C117.252 39.8594 117.237 39.8748 117.218 39.8866L116.913 40.2739L116.343 41.1191C116.054 41.4149 115.77 41.7131 115.483 42.0089Z" fill="#FE204F"/>
<path d="M141.636 34.1019C141.082 34.1019 141.134 33.7897 141.23 33.3976C141.486 32.3294 141.753 31.2613 141.934 30.179C142.127 29.0474 142.185 27.8924 142.376 26.7608C142.732 24.6198 143.108 22.4811 143.549 20.3564C143.803 19.1169 144.19 17.9055 144.519 16.68L144.869 16.6636L145.686 17.7552C145.686 18.0463 145.686 18.3398 145.686 18.6309L145.587 19.4479L145.305 20.2719L145.101 21.3964C145.003 21.7275 144.904 22.0585 144.803 22.3895L144.747 22.859C144.693 22.9952 144.641 23.1337 144.587 23.2722C144.512 23.5844 144.434 23.8967 144.352 24.2113C144.27 24.5259 144.148 24.871 144.047 25.202L143.962 25.4954L143.913 26.0213C143.892 26.1199 143.869 26.2185 143.847 26.3171C143.751 26.5683 143.653 26.8219 143.556 27.0754L143.486 27.7234C143.385 27.998 143.284 28.2727 143.181 28.5474L143.089 29.0169C142.951 29.5663 142.812 30.114 142.671 30.6603C142.655 30.8152 142.636 30.9702 142.617 31.1298L142.329 31.8341C142.298 32.0524 142.27 32.2684 142.239 32.4867C142.202 32.6417 142.162 32.799 142.124 32.9563L141.89 33.5408C141.798 33.7099 141.718 33.9071 141.636 34.1019Z" fill="#FE0F3C"/>
<path d="M118.955 45.6077C118.251 44.8424 119.073 44.1992 119.153 43.5136C119.197 43.1216 119.43 42.753 119.542 42.3633C119.567 42.1771 119.567 41.9884 119.542 41.8022C119.331 41.828 119.073 41.7881 118.915 41.8867C117.601 42.6826 116.303 43.5066 114.995 44.3142C114.85 44.3853 114.699 44.4442 114.544 44.4903C114.269 43.6874 114.734 43.2108 115.129 42.7107C115.925 42.6779 116.394 42.2013 116.73 41.5369L117.22 41.119L117.777 40.626C117.936 40.4922 118.096 40.3584 118.246 40.2269L118.819 39.7574C118.855 39.7241 118.9 39.7028 118.948 39.6964L119.54 39.316L120.756 40.0485C120.883 40.6049 121.012 41.1589 121.141 41.7153C121.127 41.8703 121.113 42.0252 121.101 42.1849L120.632 43.4925L119.981 44.4503L119.714 44.8401L118.955 45.6077Z" fill="#FD2150"/>
<path d="M149.268 67.7086C149.909 66.4456 150.66 65.2225 151.163 63.9054C151.826 62.2122 152.353 60.4686 152.738 58.6913C153.034 57.2065 153.15 55.6916 153.083 54.1791C152.973 51.8214 152.438 49.503 151.503 47.3357C151.421 47.1409 151.139 47.0305 150.952 46.8803C151.323 46.3286 151.534 46.5821 151.696 47.0329C152.069 48.0752 152.532 49.0941 152.79 50.1646C153.748 54.1345 153.764 58.1044 152.278 61.9545C151.59 63.7387 150.635 65.422 149.787 67.1405C149.643 67.3542 149.468 67.5456 149.268 67.7086Z" fill="#FE738C"/>
<path d="M141.347 56.461C141.15 56.6958 140.955 56.9305 140.758 57.1653L140.453 57.0104C140.494 56.706 140.573 56.4079 140.688 56.1229C141.472 54.7284 142.286 53.3527 143.087 51.97C143.15 51.8573 143.193 51.7352 143.286 51.5122L140.636 52.5263C140.636 52.4113 140.636 52.2916 140.636 52.1789C141.279 51.9441 141.92 51.6882 142.561 51.4394C142.955 51.2891 143.345 51.1295 143.735 50.9698L143.89 51.1506C143.284 52.1961 142.677 53.2392 142.068 54.28C141.758 54.8106 141.406 55.3177 141.129 55.8671C141.08 56.0056 141.272 56.2615 141.347 56.461Z" fill="#FE738C"/>
<path d="M138.887 29.1695C138.901 28.2179 138.914 27.2679 138.927 26.3195C139.061 27.5144 139.241 28.707 139.317 29.9043C139.382 30.9655 139.331 32.036 139.331 33.299L139.779 32.8671V35.1091L139.411 35.1349C139.293 34.7874 139.176 34.4306 139.063 34.0949C139.04 33.3906 139.018 32.6863 138.997 31.982C138.96 31.0492 138.923 30.1117 138.887 29.1695Z" fill="#FE8597"/>
<path d="M133.384 30.881C133.854 32.1276 134.3 33.3765 134.776 34.6161C135.697 36.999 136.636 39.3724 137.554 41.7553C137.637 42.0288 137.7 42.3082 137.741 42.5911C137.002 40.8914 136.204 39.2128 135.539 37.4849C134.765 35.4753 134.105 33.4211 133.405 31.381C133.375 31.2162 133.368 31.0478 133.384 30.881Z" fill="#FE8597"/>
<path d="M135.307 77.6673L135.265 77.5288C135.847 77.3128 136.424 77.0804 137.016 76.8879C139.44 76.0989 141.709 74.8929 143.719 73.3241C143.866 73.2497 144.025 73.2005 144.188 73.1786C142.545 74.2421 140.962 75.4253 139.237 76.3338C138.042 76.9701 136.633 77.2377 135.307 77.6673Z" fill="#FE738C"/>
<path d="M140.641 52.1836C140.641 52.2986 140.641 52.4184 140.641 52.5311L140.117 52.7095C140.157 52.2583 140.164 51.8047 140.136 51.3525C139.864 49.2913 139.558 47.2371 139.265 45.1782L139.734 45.197C139.915 46.6925 140.091 48.1903 140.281 49.6857C140.389 50.5191 140.523 51.3502 140.641 52.1836Z" fill="#C3445D"/>
<path d="M138.539 19.8517C138.478 19.2648 138.42 18.6779 138.361 18.0933L138.312 17.2176C138.342 17.0298 138.37 16.842 138.401 16.6542C138.589 17.8632 138.849 19.0676 138.946 20.286C139.025 21.3072 138.915 22.3425 138.889 23.3731L138.643 20.7438C138.608 20.4456 138.575 20.1475 138.539 19.8517Z" fill="#FE8597"/>
<path d="M150.78 47.0657C150.78 47.1502 150.799 47.2699 150.754 47.3145C149.502 48.4852 148.243 49.652 146.977 50.8149L150.78 47.0657Z" fill="#FE738C"/>
<path d="M142.66 33.6864L141.328 37.06L140.988 36.9731C141.082 36.5388 141.174 36.1045 141.267 35.6702C141.293 35.3838 141.317 35.095 141.343 34.8062L141.751 34.4142C141.915 34.3883 142.136 34.4142 142.221 34.3273C142.391 34.1312 142.538 33.9162 142.66 33.6864Z" fill="#FE7B8F"/>
<path d="M103.17 47.439C102.859 48.0166 102.582 48.6116 102.339 49.2208C102.003 50.1998 101.754 51.2069 101.47 52.2023H101.235C101.48 50.451 101.989 48.81 103.17 47.439Z" fill="#FE627F"/>
<path d="M146.395 71.1479C146.421 71.0376 146.414 70.8944 146.479 70.8192C147.374 69.8144 148.278 68.819 149.179 67.8213C148.253 68.9341 147.324 70.0429 146.395 71.1479Z" fill="#FE738C"/>
<path d="M132.95 14.7667C132.677 15.9515 132.404 17.1379 132.13 18.3258C132.406 17.141 132.679 15.9546 132.95 14.7667Z" fill="#FE8597"/>
<path d="M116.573 39.3419L112.988 40.7505L116.573 39.3419Z" fill="#FE627F"/>
<path d="M116.739 41.5392C116.404 42.2013 115.934 42.6779 115.138 42.7131L115.483 42.0088C115.77 41.713 116.054 41.4148 116.338 41.119L116.739 41.5392Z" fill="#FE627F"/>
<path d="M132.126 26.1387C132.406 27.2061 132.686 28.2742 132.966 29.3432C132.684 28.2742 132.404 27.2061 132.126 26.1387Z" fill="#FE8597"/>
<path d="M112.863 40.814L109.999 42.1592L112.863 40.814Z" fill="#FE627F"/>
<path d="M131.123 44.481L128.106 44.9341L131.123 44.481Z" fill="#FE8597"/>
<path d="M143.441 54.3387C142.862 54.9241 142.281 55.5079 141.697 56.0901C142.285 55.5063 142.867 54.9225 143.441 54.3387Z" fill="#FE738C"/>
<path d="M141.005 24.9579L140.624 27.2328L141.005 24.9579Z" fill="#FE8597"/>
<path d="M131.755 23.8568L132.086 25.6504L131.755 23.8568Z" fill="#FE8597"/>
<path d="M144.869 16.6683L144.519 16.6847L143.059 16.5016C143.737 15.7292 144.294 16.3114 144.869 16.6683Z" fill="#FE8597"/>
<path d="M149.613 30.6086C149.843 29.956 150.078 29.3018 150.318 28.646C150.078 29.3018 149.843 29.956 149.613 30.6086Z" fill="#FE7B8F"/>
<path d="M140.176 30.1697C140.084 30.8341 139.99 31.5008 139.899 32.1652C139.99 31.5008 140.084 30.8341 140.176 30.1697Z" fill="#FE8597"/>
<path d="M136.469 11.6773L134.591 11.7031C135.211 11.1232 135.835 11.1232 136.469 11.6773Z" fill="#FE8597"/>
<path d="M137.943 14.0859L137.49 13.6938C137.384 13.2689 137.281 12.844 137.176 12.4191L137.943 14.0859Z" fill="#FE8597"/>
<path d="M109.527 42.4032L107.884 43.3845L109.527 42.4032Z" fill="#FE627F"/>
<path d="M133.732 12.6187L133.006 14.4592L133.732 12.6187Z" fill="#FE8597"/>
<path d="M145.554 52.2234L144.324 53.4465L145.554 52.2234Z" fill="#FE738C"/>
<path d="M140.512 28.0544C140.422 28.6038 140.336 29.1555 140.246 29.6978C140.336 29.1555 140.422 28.6038 140.512 28.0544Z" fill="#FE8597"/>
<path d="M133.581 44.1147L131.978 44.4317L133.581 44.1147Z" fill="#FE8597"/>
<path d="M117.289 39.7809C117.16 39.5954 117.03 39.4123 116.899 39.2292L117.589 38.8489L117.798 39.0555L117.289 39.7809Z" fill="#FE627F"/>
<path d="M136.577 43.7484L134.959 44.0442L136.577 43.7484Z" fill="#FE8597"/>
<path d="M144.643 29.3269L143.88 30.9703L144.643 29.3269Z" fill="#FE7B8F"/>
<path d="M121.162 41.7177C121.033 41.1613 120.904 40.6073 120.777 40.0509C121.291 40.5181 121.461 41.0627 121.162 41.7177Z" fill="#FE627F"/>
<path d="M142.674 30.6463C142.815 30.0969 142.954 29.5491 143.092 29.0029C142.954 29.5445 142.815 30.0922 142.674 30.6463Z" fill="#FE7B8F"/>
<path d="M144.474 72.9251L145.587 71.932L144.474 72.9251Z" fill="#FE738C"/>
<path d="M141.387 22.7722L141.094 24.3052L141.387 22.7722Z" fill="#FE8597"/>
<path d="M132.086 18.6356C131.98 19.0605 131.872 19.4831 131.767 19.908C131.872 19.4855 131.98 19.0605 132.086 18.6356Z" fill="#FE8597"/>
<path d="M150.369 28.3596C150.468 27.9277 150.564 27.4957 150.663 27.0637C150.564 27.4957 150.468 27.937 150.369 28.3596Z" fill="#FE7B8F"/>
<path d="M141.763 20.8541C141.677 21.283 141.588 21.7134 141.498 22.1453C141.587 21.7134 141.675 21.283 141.763 20.8541Z" fill="#FE8597"/>
<path d="M150.653 22.3215L150.135 21.0679L150.653 22.3215Z" fill="#FE7B8F"/>
<path d="M138.018 15.8043C138.002 15.6917 137.988 15.5696 137.971 15.4663C137.997 15.3348 138.023 15.2033 138.051 15.0742L138.366 16.3396L138.15 16.1682C138.108 16.0485 138.063 15.9264 138.018 15.8043Z" fill="#FE8597"/>
<path d="M120.648 43.4903C120.805 43.0536 120.963 42.6193 121.117 42.1826C120.963 42.6193 120.805 43.0536 120.648 43.4903Z" fill="#FE627F"/>
<path d="M117.77 46.5797L118.378 46.1876C118.406 46.3825 118.437 46.5797 118.465 46.7745L117.749 46.9764C117.758 46.8426 117.763 46.7182 117.77 46.5797Z" fill="#FE627F"/>
<path d="M104.952 45.3754L104.1 46.2487L104.952 45.3754Z" fill="#FE627F"/>
<path d="M146.23 25.9932C146.028 26.4228 145.824 26.8501 145.622 27.2773C145.824 26.8501 146.024 26.4228 146.23 25.9932Z" fill="#FE7B8F"/>
<path d="M138.042 15.0742C138.014 15.2034 137.988 15.3348 137.962 15.4663L137.469 15.0695L137.962 14.7596C137.997 14.8653 138.023 14.9686 138.042 15.0742Z" fill="#FE1F4F"/>
<path d="M127.614 44.9927L126.501 45.2274L127.614 44.9927Z" fill="#FE8597"/>
<path d="M142.247 18.631C142.142 18.9941 142.035 19.358 141.927 19.7226C142.035 19.3595 142.142 18.9956 142.247 18.631Z" fill="#FE8597"/>
<path d="M138.021 43.4644C138.021 43.5512 138.004 43.6381 137.995 43.7273L136.901 43.7155L138.021 43.4644Z" fill="#FE8597"/>
<path d="M107.076 43.847L106.137 44.448L107.076 43.847Z" fill="#FE627F"/>
<path d="M144.05 25.1903C144.151 24.8593 144.251 24.5283 144.355 24.1996C144.251 24.5283 144.146 24.8593 144.05 25.1903Z" fill="#FE7B8F"/>
<path d="M147.975 22.8145L147.397 23.7676L147.975 22.8145Z" fill="#FE7B8F"/>
<path d="M145.681 18.6263C145.681 18.3352 145.681 18.0417 145.681 17.7506C145.686 18.0417 145.683 18.3352 145.681 18.6263Z" fill="#FE8597"/>
<path d="M143.559 27.0637C143.655 26.8102 143.754 26.5566 143.85 26.3054C143.754 26.5566 143.655 26.8102 143.559 27.0637Z" fill="#FE7B8F"/>
<path d="M143.183 28.5357C143.286 28.261 143.387 27.9863 143.488 27.7117C143.387 27.9863 143.286 28.261 143.183 28.5357Z" fill="#FE7B8F"/>
<path d="M133.013 29.6532L133.302 30.5758L133.013 29.6532Z" fill="#FE8597"/>
<path d="M142.662 17.1683C142.561 17.497 142.458 17.8257 142.354 18.1543C142.458 17.8257 142.561 17.497 142.662 17.1683Z" fill="#FE8597"/>
<path d="M145.301 20.2673L145.583 19.4432L145.301 20.2673Z" fill="#FE8597"/>
<path d="M143.744 31.2426C143.599 31.5571 143.451 31.8741 143.303 32.1816C143.441 31.8741 143.599 31.5571 143.744 31.2426Z" fill="#FE7B8F"/>
<path d="M120.397 46.3942L119.568 46.6289L120.397 46.3942Z" fill="#FD2150"/>
<path d="M144.798 22.3848C144.899 22.0538 144.998 21.7227 145.096 21.3917C144.998 21.7227 144.899 22.0538 144.798 22.3848Z" fill="#FE7B8F"/>
<path d="M145.164 28.2656L144.765 29.0427L145.164 28.2656Z" fill="#FE7B8F"/>
<path d="M148.519 21.9506L148.05 22.6971L148.519 21.9506Z" fill="#FE7B8F"/>
<path d="M142.331 31.8083L142.62 31.104L142.331 31.8083Z" fill="#FE7B8F"/>
<path d="M117.786 40.6284L117.23 41.1214L117.786 40.6284Z" fill="#FE627F"/>
<path d="M118.84 39.7598L118.268 40.2293L118.84 39.7598Z" fill="#FE627F"/>
<path d="M119.561 39.3185L118.969 39.6988L119.561 39.3185Z" fill="#FE627F"/>
<path d="M106.015 44.5232L105.449 44.9927L106.015 44.5232Z" fill="#FE627F"/>
<path d="M139.779 45.2017L140.213 44.6147L139.779 45.2017Z" fill="#FE7B8F"/>
<path d="M141.636 34.102C141.718 33.9071 141.8 33.7099 141.871 33.5127C141.843 33.7099 141.814 33.9071 141.784 34.1043L141.706 34.116L141.636 34.102Z" fill="#FE7B8F"/>
<path d="M143.911 26.0095L143.96 25.4836L143.911 26.0095Z" fill="#FE7B8F"/>
<path d="M148.876 21.4318L148.592 21.8332L148.876 21.4318Z" fill="#FE7B8F"/>
<path d="M119.714 44.8401L119.998 44.4528L119.714 44.8401Z" fill="#FE627F"/>
<path d="M125.151 45.3848L124.773 45.4857L125.151 45.3848Z" fill="#FE8597"/>
<path d="M148.209 33.0713L148.501 32.6722L148.209 33.0713Z" fill="#FE7B8F"/>
<path d="M103.531 46.9177L103.261 47.3074L103.531 46.9177Z" fill="#FE627F"/>
<path d="M146.977 35.0058C147.076 34.872 147.172 34.7382 147.27 34.6067C147.172 34.7452 147.076 34.872 146.977 35.0058Z" fill="#FE7B8F"/>
<path d="M143.157 32.4469L142.993 32.9164L143.157 32.4469Z" fill="#FE7B8F"/>
<path d="M142.127 32.9282C142.164 32.7732 142.204 32.6159 142.242 32.4586C142.204 32.6159 142.164 32.7732 142.127 32.9282Z" fill="#FE7B8F"/>
<path d="M145.93 36.5951C146.019 36.4566 146.106 36.3158 146.193 36.1772C146.106 36.3158 146.024 36.4566 145.93 36.5951Z" fill="#FE7B8F"/>
<path d="M144.341 38.8724L144.627 38.4686L144.341 38.8724Z" fill="#FE7B8F"/>
<path d="M149.271 31.32L149.489 30.8904L149.271 31.32Z" fill="#FE7B8F"/>
<path d="M140.817 43.7883L141.098 43.3868L140.817 43.7883Z" fill="#FE7B8F"/>
<path d="M107.771 43.462L107.325 43.6968L107.771 43.462Z" fill="#FE627F"/>
<path d="M137.873 42.8492L138.063 43.2319L137.873 42.8492Z" fill="#FE8597"/>
<path d="M141.887 20.0349L141.857 20.3871C141.866 20.2697 141.878 20.1523 141.887 20.0349Z" fill="#FE8597"/>
<path d="M143.467 40.1073C143.564 39.9735 143.662 39.8397 143.758 39.7035C143.662 39.8397 143.564 39.9735 143.467 40.1073Z" fill="#FE7B8F"/>
<path d="M141.714 42.5747L141.998 42.1638L141.714 42.5747Z" fill="#FE7B8F"/>
<path d="M145.505 27.552L145.27 27.9769L145.505 27.552Z" fill="#FE7B8F"/>
<path d="M116.913 40.274L117.223 39.8866L116.913 40.274Z" fill="#FE627F"/>
<path d="M146.533 25.4275L146.299 25.8665L146.533 25.4275Z" fill="#FE7B8F"/>
<path d="M147.078 24.3827L146.874 24.8241L147.078 24.3827Z" fill="#FE7B8F"/>
<path d="M144.583 23.2628C144.637 23.1243 144.688 22.9858 144.742 22.8496C144.688 22.9858 144.637 23.1243 144.583 23.2628Z" fill="#FE7B8F"/>
<path d="M92.995 83.682L91.9198 84.0459L91.7695 83.8111C92.5443 81.6771 93.4622 79.5994 95.3591 78.2026C95.7957 77.881 96.7066 77.8904 97.256 78.1087C98.6182 78.6397 99.7614 79.615 100.5 80.8766C99.599 80.6418 98.7984 79.9187 97.7631 80.3037C95.9048 80.9919 94.2603 82.157 92.995 83.682Z" fill="#FCD05A"/>
<path d="M92.9951 83.682C94.2587 82.1518 95.9033 80.9817 97.7632 80.2897C98.7985 79.9046 99.5991 80.6254 100.501 80.8625L101.219 81.6818C100.909 81.8579 100.618 82.1232 100.28 82.1983C98.5849 82.5833 96.8828 82.9237 95.1784 83.2712C94.4577 83.4285 93.7252 83.5505 92.9951 83.682Z" fill="#FBBE19"/>
<path d="M102.515 72.0447V71.392C102.693 71.176 102.893 70.9741 103.048 70.7441C103.56 69.9787 104.351 69.6407 105.161 69.8332C105.783 70.0106 106.319 70.4098 106.668 70.9553C107.201 71.8498 106.813 72.7513 105.917 73.2396C105.02 73.7279 103.618 73.4744 103.053 72.6903C102.888 72.4649 102.696 72.2583 102.515 72.0447Z" fill="#59092E"/>
<path d="M94.4109 72.7889L94.0564 73.141C93.6949 73.2467 93.338 73.3758 92.9718 73.4509C92.7001 73.5047 92.4204 73.5025 92.1497 73.4444C91.8789 73.3864 91.6228 73.2737 91.3972 73.1133C91.1715 72.9529 90.9809 72.7481 90.8371 72.5114C90.6932 72.2748 90.5992 72.0113 90.5607 71.7371C90.4645 70.8145 91.4481 69.8238 92.5046 69.7839C94.2231 69.7252 95.0542 71.0305 94.4109 72.7889Z" fill="#59092E"/>
<path d="M94.4107 72.7889C95.054 71.0305 94.2229 69.7182 92.5044 69.7839C91.448 69.8238 90.4643 70.8145 90.5606 71.7372C90.5991 72.0114 90.6931 72.2749 90.8369 72.5115C90.9807 72.7481 91.1713 72.9529 91.397 73.1133C91.6227 73.2737 91.8788 73.3864 92.1495 73.4445C92.4202 73.5025 92.7 73.5047 92.9716 73.4509C93.3379 73.3735 93.6947 73.2467 94.0562 73.141C93.2533 74.167 91.3564 74.0332 90.6169 72.9063C90.0394 72.0212 90.0018 71.1948 90.6028 70.3896C91.2038 69.5844 91.9927 68.9129 93.1172 69.1289C94.1196 69.3214 94.8943 69.8637 95.1925 70.9037C95.2977 71.26 95.2775 71.6415 95.1352 71.9847C94.9929 72.3278 94.7372 72.6117 94.4107 72.7889Z" fill="#8D1844"/>
<path d="M102.515 72.0447C102.695 72.2583 102.888 72.4649 103.052 72.6903C103.618 73.4721 104.994 73.7397 105.916 73.2397C106.839 72.7396 107.201 71.8498 106.668 70.9554C106.319 70.4098 105.783 70.0107 105.161 69.8332C104.351 69.6407 103.559 69.9788 103.048 70.7441C102.893 70.9789 102.693 71.1761 102.515 71.3921C102.656 70.2018 103.947 69.19 105.207 69.2792C106.539 69.3754 107.654 70.5281 107.572 71.7207C107.473 73.1763 105.245 74.343 103.841 73.6763C103.139 73.3453 102.508 72.9556 102.515 72.0447Z" fill="#901945"/>
<path d="M139.26 45.1782C139.554 47.2371 139.859 49.2913 140.131 51.3525C140.159 51.8047 140.153 52.2582 140.112 52.7094L138.516 53.6109C138.378 53.6506 138.244 53.7016 138.115 53.7635C135.645 55.1721 133.135 56.522 130.722 58.0245C128.961 59.0797 127.501 60.5685 126.48 62.3489C126.109 63.018 125.719 63.673 125.339 64.335C124.165 64.6895 122.965 65.0229 121.794 65.4079C120.996 65.6685 120.742 65.5558 120.768 64.7271C120.857 61.8207 121.672 59.2547 124.322 57.6348C127.512 55.6878 130.712 53.7565 133.922 51.8408C134.938 51.2351 136.035 50.7398 137.021 50.1059C137.341 49.8474 137.553 49.4779 137.615 49.0706C137.849 47.7277 137.967 46.3684 138.166 45.0209C138.248 44.7544 138.368 44.5013 138.523 44.2697L139.26 45.1782Z" fill="#A91838"/>
<path d="M125.339 64.3256C125.719 63.6636 126.109 63.0086 126.48 62.3395C127.501 60.5591 128.961 59.0703 130.722 58.0151C133.135 56.5126 135.652 55.1651 138.115 53.7542C138.244 53.6922 138.378 53.6412 138.516 53.6016C138.094 54.0171 137.73 54.5195 137.241 54.8317C133.816 57.0479 131.4 60.0506 130.173 63.8984C129.377 66.342 129.054 68.9145 129.219 71.4789C129.308 72.4372 129.505 73.3823 129.806 74.2961C130.121 75.3197 130.884 75.9911 131.83 76.4818C132.443 76.7987 133.016 77.186 133.605 77.5499C133.541 77.6368 133.476 77.8011 133.41 77.8011C129.459 77.8011 126.214 75.7939 124.987 71.8475C124.613 70.6525 124.698 69.2815 124.764 67.9997C124.827 66.7648 125.13 65.5534 125.339 64.3256Z" fill="#FC113C"/>
<path d="M116.542 47.4367L117.066 47.101L116.542 47.4367Z" fill="#FD2150"/>
<path d="M117.77 46.5797C117.77 46.7112 117.77 46.8426 117.749 46.9765L117.418 47.0821L117.77 46.5797Z" fill="#FD2150"/>
<path d="M141.352 34.8063C141.326 35.095 141.303 35.3838 141.277 35.6702L140.807 35.2453L141.352 34.8063Z" fill="#FE0F3C"/>
<path d="M138.887 29.1696C138.925 30.1086 138.961 31.0477 138.997 31.9867C138.894 31.752 138.702 31.5172 138.709 31.2824C138.727 30.5735 138.824 29.8715 138.887 29.1696Z" fill="#FE1F4F"/>
<path d="M138.312 17.2177L138.361 18.0933L137.838 17.6402L138.312 17.2177Z" fill="#FE1F4F"/>
<path d="M138.54 19.8517C138.575 20.1475 138.608 20.4456 138.643 20.7438C138.608 20.4456 138.572 20.1475 138.54 19.8517Z" fill="#FE1F4F"/>
<path d="M138.018 15.8043C138.063 15.9264 138.108 16.0391 138.15 16.1682C138.108 16.0485 138.063 15.9264 138.018 15.8043Z" fill="#FE1F4F"/>
</svg>
