<svg width="154" height="64" viewBox="0 0 154 64" fill="none" xmlns="http://www.w3.org/2000/svg">
<g clip-path="url(#clip0)">
<path d="M51.6904 3.98902L50.8573 4.73147L50.5179 4.95113L49.6363 5.63647L48.6578 6.45799C48.593 6.50597 48.5253 6.54999 48.4551 6.5898C47.9261 6.95443 47.3751 7.28831 46.8771 7.6881C45.6914 8.64581 45.7443 9.1598 46.9256 10.1087C48.3757 11.2685 49.9096 12.3756 51.157 13.7287C52.8223 15.5809 53.9045 17.8801 54.269 20.3405C54.5643 22.1285 54.626 23.9561 54.7891 25.7661H53.7047L52.6998 24.8655C52.0121 24.0615 51.3201 24.0264 50.6325 24.8655L49.6055 26.0736C49.4027 26.2889 49.1956 26.5129 48.9928 26.7238C47.9702 26.201 47.4457 26.8204 46.9167 27.5717C44.5541 30.9237 44.3117 34.6008 45.0963 38.4888C45.5371 40.5931 45.925 42.6974 46.3349 44.8062V45.3465C46.2943 45.4151 46.2454 45.4786 46.1894 45.5354C44.5762 46.5415 42.9938 47.609 41.3409 48.536C38.5595 50.0824 35.6989 51.4179 32.3666 51.2026C31.842 51.1719 31.3043 51.5321 30.7665 51.5717C29.9878 51.6111 29.2073 51.5979 28.4304 51.5321C27.853 51.4926 27.2755 51.3959 26.7025 51.2993C25.2656 51.0621 23.8242 50.8073 22.3873 50.5612C24.3708 48.6195 26.4689 46.7831 28.3158 44.7183C30.8723 41.8671 33.0983 38.8138 32.5649 34.614C32.4503 33.709 32.2387 33.296 31.3131 33.4366C30.9561 32.1186 30.6916 30.7436 30.2332 29.4476C29.0122 26.0165 26.2133 23.7935 23.6215 21.4871C22.3652 20.3581 20.7035 19.4267 18.7729 19.6068H16.8731C16.6351 19.5497 16.353 19.374 16.1679 19.4487C14.4841 20.112 13.0515 21.0741 12.2714 22.8007C12.051 23.2839 11.7645 23.7408 11.5044 24.2109L10.9358 23.9121C11.6454 22.3394 12.2581 20.7227 13.0824 19.2026C14.2702 16.8503 15.9188 14.759 17.931 13.0522C18.158 12.7903 18.3411 12.4936 18.4731 12.1735V11.8265L18.7861 11.5321L20.968 10.3811L21.5101 9.98134L22.1581 9.73971H22.1889L22.4843 9.47611L22.5107 9.44097L24.3532 8.60187C24.4191 8.5488 24.4917 8.5045 24.5691 8.47008L27.0507 8.18451L28.2673 7.60462L32.5296 7.27513H36.4967L41.0632 7.62658C41.548 8.40418 41.9668 8.4613 42.2885 7.50797C42.0681 6.73184 41.8492 5.95425 41.6318 5.17519L42.0285 4.78419C42.3238 5.09611 42.6235 5.40363 42.91 5.71554V8.1362L44.4572 7.19166C45.3784 7.47722 45.8236 6.99396 46.0792 6.1988L47.9173 4.27458L48.746 3.29929L49.4865 2.4558L51.5097 1.72653L51.8094 2.02966C51.8094 2.54367 51.8094 3.06206 51.8094 3.58046L51.6463 3.8748C51.6515 3.91587 51.6666 3.95508 51.6904 3.98902ZM39.3133 19.0665C40.521 18.0912 41.3893 16.8962 42.456 16.6722C43.4346 16.4701 44.6291 17.3224 45.7266 17.7133L46.0616 17.296C45.4533 16.4174 44.9685 15.3938 44.1839 14.7172C43.6946 14.2779 42.553 14.0626 42.0417 14.3482C40.3844 15.2751 39.613 16.883 39.3133 19.0665ZM32.8514 16.5096C33.614 17.2433 34.2575 17.9242 34.9716 18.5261C35.3536 18.7735 35.7634 18.9755 36.1925 19.128C36.2608 18.72 36.2533 18.3031 36.1705 17.8979C35.8059 16.9595 35.3528 16.0578 34.8173 15.2048C33.6801 13.5003 31.9214 13.4476 30.6563 15.0423C30.2547 15.5037 29.9315 16.0276 29.6998 16.5931C29.6205 17.0613 29.6205 17.5395 29.6998 18.0077C30.1505 17.9076 30.5927 17.7724 31.0222 17.6035C31.5599 17.3443 32.0316 17.006 32.8514 16.5096ZM43.7343 22.7743C43.5624 22.5459 43.3332 21.9967 42.9233 21.7551C41.3805 20.8545 39.7717 20.8193 38.3127 21.9308C37.8146 22.3086 37.1226 23.1609 37.2592 23.4992C37.4884 24.0659 38.2862 24.4437 38.8989 24.8171C39.3613 25.0147 39.8389 25.1748 40.3271 25.296C42.6015 26.1351 43.4346 24.6853 43.7343 22.7743Z" fill="#039CAC"/>
<path d="M68.0079 51.2993L67.5936 51.0094C67.62 50.8336 67.6421 50.6579 67.6641 50.4778C67.9286 50.3548 68.3429 50.2933 68.4399 50.0868C69.6476 47.4509 70.9038 44.8501 71.0846 41.8583C71.3402 37.8605 68.8454 35.4575 66.236 33.072C66.1082 32.9533 65.5528 33.296 65.1913 33.419C64.7314 33.2242 64.2826 33.0042 63.847 32.76C61.837 31.4948 60.0871 31.7935 58.5179 33.6387C58.1395 34.003 57.7228 34.3256 57.2749 34.6008C57.1294 30.9588 57.2749 27.3652 58.7647 23.9297C59.2055 22.8622 59.3818 21.6672 59.6772 20.5294L61.6166 17.0148L61.6563 16.9797L61.9119 16.7029V16.6678C62.2923 16.4363 62.6534 16.1748 62.9918 15.8858C64.2613 14.6381 65.5396 13.3905 66.7341 12.0681C66.8354 11.8813 66.8936 11.6743 66.9043 11.4622C66.9149 11.2501 66.8779 11.0384 66.7958 10.8424C66.5216 10.36 66.1949 9.90917 65.8217 9.4981C64.8079 8.10546 65.1208 5.48273 66.5357 4.66559C67.1175 6.15049 67.6641 7.62221 68.2988 9.05878C68.4267 9.35752 68.8763 9.4981 69.1804 9.73972L69.846 9.65187C71.5165 9.10272 70.9391 7.74961 70.9612 6.5986C70.9876 5.32457 71.0449 4.05494 71.0846 2.78091L71.5253 2.81606L71.8471 6.47119L72.2526 6.43605C72.8404 5.13566 73.4413 3.83675 74.0555 2.53929C73.791 3.83528 73.5045 5.12687 73.2708 6.43165C73.0989 7.38058 72.8301 8.45253 74.4257 8.36027C76.9158 7.12068 79.7014 6.59156 82.4744 6.83143C86.6353 7.08185 90.4084 8.17575 93.3749 11.2905C94.4768 12.4547 95.5435 13.6541 96.6278 14.8358L96.8659 15.1346C97.0113 15.6793 97.2009 16.2153 97.3066 16.7644C97.3397 17.1518 97.3397 17.5413 97.3066 17.9286C97.2098 17.9035 97.1153 17.8697 97.0245 17.8276C96.8262 17.6255 96.6234 17.4234 96.4251 17.2169L95.7683 17.0192L95.16 16.9797C94.7809 15.6046 93.6305 16.1538 92.7534 16.0176L91.7792 15.7496L89.064 16.3207L88.4249 16.9138L87.2612 18.4514L86.9262 18.8073L86.3708 19.6683C86.2607 19.9759 86.1461 20.279 86.0359 20.5821L85.8287 21.2279C85.7934 21.3202 85.7538 21.4124 85.7097 21.5003L85.1146 23.0291L84.8237 23.0862H83.2633C82.8578 25.0061 82.3509 26.838 82.1041 28.7007C81.8415 30.5925 81.7427 32.5032 81.8088 34.4119C81.9322 37.2279 82.6639 39.8858 84.8942 41.8539C86.7103 43.4443 88.5439 45.0083 90.3687 46.581L89.972 47.6486L89.9456 47.6793C89.0244 48.1801 88.1296 48.7293 87.1863 49.1818C84.7179 50.3636 82.3377 51.9846 79.3624 50.614C78.9217 50.4031 78.2869 50.5349 77.5993 50.5041C77.7007 52.4284 76.7178 52.0593 75.5276 51.7342C74.5449 51.4936 73.5322 51.3974 72.5215 51.4487C71.9309 51.4487 71.349 51.7957 70.7584 51.9846L70.1281 51.6727L68.3209 51.1104L68.0079 51.2993ZM73.5265 24.8479C73.4163 24.3515 73.4692 23.6398 73.1562 23.4025C71.7369 22.3218 69.8548 22.8622 69.035 24.5931C68.7617 25.173 68.5545 26.1088 68.8366 26.5613C69.5727 27.765 72.8036 27.5629 73.5441 26.3592C73.6764 26.1439 73.5441 25.7617 73.5177 25.4542L73.5265 24.8479ZM73.1122 20.1999C73.216 20.0302 73.3059 19.8524 73.381 19.6683C74.3067 16.5931 74.3023 16.5931 77.4539 17.2125C77.6742 17.2565 77.9784 16.8831 78.2429 16.7029C77.6037 16.0132 77.066 15.1521 76.2902 14.704C75.9652 14.5502 75.6093 14.4722 75.2496 14.476C74.8899 14.4798 74.5357 14.5653 74.2141 14.726C72.3144 15.9693 71.975 17.8715 73.1122 20.1999ZM70.1105 21.4256C69.5463 19.2686 68.0344 17.7265 67.025 17.9111C65.6806 18.1351 64.2084 21.5179 65.0194 23.0467C66.2889 21.4652 67.3732 19.3257 70.1105 21.4256Z" fill="#049CAC"/>
<path d="M8.33066 55.6573L6.79674 54.5063L6.35596 54.1505L5.23637 53.3948L5.20112 53.2762H5.0821L3.73772 52.3493L3.25727 52.0593L1.81592 51.0093L3.31897 49.8891L4.71184 49.6826L7.01713 50.3943L8.39237 50.9742L8.90809 51.2554L11.7467 52.5382L12.2316 52.8237L13.6024 53.4036L14.1093 53.6848L15.8063 54.1768L17.1639 54.6161L17.9882 54.7787L27.0021 54.6821H27.6589L30.0612 54.7567L31.119 55.6354L31.8199 56.0747L32.2606 55.0115L32.8204 54.7084H34.6232L35.5797 55.3278L36.1175 56.2856L36.5803 55.6134C36.6245 55.5935 36.6639 55.5644 36.6958 55.528C36.7277 55.4916 36.7515 55.4488 36.7654 55.4025C37.3825 55.1565 37.9864 54.7479 38.6211 54.6952C40.6399 54.5283 42.6719 54.5063 44.6995 54.3965C45.7926 54.3394 46.9034 54.2208 47.9745 54.1285L55.2782 53.8913C55.4589 53.9646 55.6487 54.0134 55.8424 54.0363C59.8403 53.9528 63.8382 53.8649 67.8361 53.7507C68.0829 53.7507 68.3209 53.5135 68.5634 53.3861L69.8857 53.3597C70.4227 53.4647 70.9695 53.5119 71.5166 53.5003C72.6053 53.3641 73.456 53.4651 73.4604 55.2576L75.7613 54.1153L76.2329 53.7024C76.7619 53.6189 77.498 53.263 77.7845 53.4915C79.3977 54.7611 80.654 53.8298 81.9587 53.0082H84.6034C89.0464 52.938 93.4895 52.8633 97.9326 52.7842C98.0207 52.7842 98.1045 52.5733 98.1926 52.4635L101.719 52.3932L105.421 52.3405L112.963 52.1516L113.065 52.2219L113.14 52.1208H115.784C118.592 52.1208 121.404 52.1648 124.216 52.1691C124.309 52.1691 124.406 51.9758 124.498 51.8704L125.257 51.8309C126.495 51.8836 127.743 51.9934 128.981 51.9671C130.52 51.9407 132.067 51.8045 133.587 51.7123L135.976 51.4574L136.651 51.4223L137.475 51.2949L138.59 51.0489L140.146 50.5568L142.231 49.8715L145.387 48.1889L146.366 48.2812C146.551 48.5448 146.731 48.8084 146.917 49.0676C147.044 49.4102 147.177 49.7485 147.309 50.0912C146.229 50.7897 145.184 51.5541 144.06 52.1779C142.936 52.8018 142.994 53.5486 143.915 54.0978C145.106 54.7134 146.335 55.2519 147.595 55.71L149.596 56.3471L150.646 56.6063L152.016 57.0456L153.096 57.2345L153.321 58.2098L151.955 59.0884L149.442 58.9215L148.063 58.6667L145.995 58.2274L144.898 58.0472L144.232 57.9989L143.174 57.7529L140.49 57.3487L138.775 57.1378L137.488 57.0412L136.422 56.9972C135.85 56.8037 135.259 56.6741 134.658 56.6107C131.463 56.6766 128.272 56.804 125.08 56.927C124.133 56.9621 123.189 57.0588 122.242 57.1247L117.393 57.3092C112.104 57.4117 106.814 57.5157 101.525 57.6211C101.454 57.6211 101.388 57.7529 101.318 57.8232L95.3452 57.9857L91.6515 58.0428L87.7682 58.2054L87.6668 58.1395L87.5963 58.2405L84.6607 58.2669C84.5725 58.2186 84.4888 58.1263 84.4006 58.1263C79.649 58.2435 74.8959 58.3694 70.1414 58.5041C70.062 58.5041 69.9871 58.6183 69.9121 58.6798L61.3874 58.9083C61.3037 58.86 61.2155 58.7721 61.1274 58.7765C55.6529 58.8702 50.1799 58.9742 44.7083 59.0884C44.5144 59.0884 44.3248 59.3125 44.1309 59.4311L42.1385 59.4926L39.3352 59.5717L36.642 59.7694L33.1158 60.0198L32.3708 60.0769L30.665 60.2043L28.6859 60.4327L28.0247 60.4723L25.9619 60.6436L21.8891 61.0829L19.7954 61.329L14.5633 61.9967L12.4696 62.2383L9.86017 62.6777L8.81551 62.871L8.43203 62.9061L7.01713 63.0906L4.45178 63.5299L2.97517 63.7803L1.32224 63.9912L0.31286 63.6661C0.193849 63.3498 0.0748346 63.0291 -0.048584 62.7084L8.27776 56.2197C8.32624 56.0395 8.33066 55.8462 8.33066 55.6573Z" fill="#8F1037"/>
<path d="M16.8906 19.5541H18.7904C19.2312 19.866 19.6719 20.2175 20.1127 20.4899C21.5585 21.3421 23.3613 21.8737 24.3927 23.0687C25.931 24.8259 26.9448 27.0709 28.1437 29.1269C28.6974 30.0538 28.9991 31.1084 29.0192 32.187C29.0393 33.2655 28.7771 34.3306 28.2584 35.2773C27.5966 36.764 26.7638 38.1689 25.7768 39.464C23.7448 41.8847 21.4968 44.1296 19.3414 46.4492L18.3849 45.7639C18.5788 45.2587 18.8256 44.7666 18.9535 44.2482C19.0316 43.8571 19.0788 43.4605 19.0945 43.0621C18.6652 43.1605 18.2565 43.333 17.8868 43.5717C16.8113 44.5997 15.8063 45.698 14.7749 46.7699C12.7473 46.2252 12.0905 44.3625 11.209 42.8161C9.29156 39.486 8.61715 35.7869 8.70531 31.9824C8.70531 31.3806 9.07997 30.7875 9.28273 30.19C9.89101 30.6293 10.2789 30.5459 10.464 29.7507C10.7461 28.547 10.9048 27.2729 11.4293 26.179C12.2691 24.3926 13.274 22.688 14.4311 21.0873C14.9732 20.402 16.0796 20.0681 16.8906 19.5541Z" fill="#84C6CB"/>
<path d="M97.0775 17.8144C97.1683 17.8565 97.2627 17.8903 97.3596 17.9155L98.2412 17.8452C98.682 18.7238 99.2814 19.5365 99.5327 20.4547C100.388 23.5783 100.939 26.7238 100.031 29.9792C99.7002 31.1653 99.8192 32.4745 99.731 33.7266C98.0164 31.2576 95.7948 29.8386 94.8824 30.4888C95.4334 31.8814 95.7948 33.3663 96.5926 34.5613C97.0599 35.2686 96.5045 36.692 97.9767 36.7183C97.8753 39.1258 96.4384 40.8435 94.9485 42.5349C93.1017 41.1115 91.2151 39.7408 89.4299 38.2472C88.3368 37.3334 87.4068 36.2307 86.4062 35.2159C86.2563 34.8249 86.1065 34.4339 85.9654 34.0429C85.6216 33.6035 85.2778 33.1642 84.9384 32.7249C84.9384 32.5228 84.9384 32.3163 84.9384 32.1142V25.4366L84.8326 24.5096C84.8326 24.3075 84.8062 24.1011 84.7974 23.899H84.8855C85.8155 23.6134 86.3842 23.1434 85.8023 22.0934C85.7759 21.8825 85.745 21.6541 85.7186 21.4608C85.7627 21.3729 85.8023 21.2806 85.8376 21.1884L86.4062 20.5909L86.988 18.7765L87.323 18.4207L88.8173 16.9402L89.1611 16.5975L95.2218 16.949L95.8301 16.9885L96.4472 17.5025L97.0775 17.8144Z" fill="#84C6CC"/>
<path d="M59.4041 43.4926C59.003 42.7677 58.4608 42.0868 58.2316 41.296C57.7468 39.6881 57.4294 38.0363 57.0415 36.402H57.3192C58.2448 37.0258 58.1126 36.2834 58.2008 35.7474C58.4608 34.1571 59.9374 32.9533 61.511 32.7337C63.8295 32.4042 65.1475 35.0401 65.8703 37.408L64.9888 37.4432L64.1072 37.6936L64.9623 38.559L66.0687 39.0247C66.0773 39.0999 66.0997 39.1729 66.1348 39.24C66.3464 39.8067 66.7387 40.369 66.7343 40.9314C66.7343 42.9478 66.6549 44.9643 66.461 46.9676C66.364 48.0088 65.4208 48.2856 64.5921 47.5343C63.1904 46.2603 61.8857 44.8984 60.5281 43.5541C60.1931 43.2158 59.8228 42.346 59.4041 43.4926Z" fill="#84C6CC"/>
<path d="M52.6998 24.8435L53.7048 25.7441C53.7048 26.1439 53.674 26.5392 53.6607 26.939C53.6078 27.6805 53.6078 28.4249 53.6607 29.1664C53.7886 30.0977 54.0707 31.0071 54.2822 31.9209C54.2161 32.1098 54.1456 32.2987 54.0751 32.4876C53.8282 33.1422 53.6343 33.8056 53.3213 34.4426C53.0352 34.9335 52.7141 35.4033 52.3604 35.8484L50.8177 35.2246L50.5091 35.5541L51.7477 38.1329L51.1659 39.7013L51.1306 39.7803L50.8926 40.1362C50.8998 40.1789 50.8984 40.2227 50.8886 40.2649C50.8787 40.3071 50.8606 40.347 50.8353 40.3822L50.3108 39.7891L49.7025 36.402L49.3719 35.8265C49.1736 35.3871 48.8165 34.9478 48.8033 34.5085C48.7636 32.8083 48.8342 31.1038 48.865 29.4036L49.2397 29.184L48.865 28.8193C48.8077 28.38 48.746 27.9407 48.6887 27.5233L49.2573 26.7238L49.61 26.0384L50.637 24.8347L52.6998 24.8435Z" fill="#81C6CB"/>
<path d="M85.9524 34.0428C86.0978 34.4338 86.2477 34.8248 86.3931 35.2158C86.4769 35.4443 86.4989 35.7342 86.6576 35.8924C88.7028 37.9659 90.7084 40.0791 92.855 42.0428C93.6131 42.7326 94.1553 43.2949 93.8688 44.3405C93.6263 44.6568 93.3839 44.9687 93.1459 45.285C93.1202 45.2975 93.098 45.316 93.0811 45.339C93.0642 45.3619 93.0532 45.3886 93.0489 45.4168C93.0508 45.4302 93.0498 45.4438 93.046 45.4568C93.0423 45.4698 93.0358 45.4819 93.0271 45.4922C93.0184 45.5026 93.0076 45.511 92.9954 45.5169C92.9832 45.5228 92.9699 45.5261 92.9563 45.5266L91.3916 45.6145C90.6422 45.039 89.7431 44.5821 89.1877 43.8572C87.7551 42.0604 86.4725 40.1494 85.1325 38.2823L83.96 36.4152C83.409 34.3723 82.7831 32.3295 83.9115 30.2647L84.943 32.1186C84.943 32.3251 84.943 32.5316 84.943 32.7337C85.2824 33.1774 85.6085 33.6123 85.9524 34.0428Z" fill="#0BACBF"/>
<path d="M16.8908 19.5541C16.0577 20.0681 14.9734 20.402 14.4357 21.1357C13.2786 22.7363 12.2737 24.4409 11.434 26.2274C10.9094 27.3213 10.7507 28.5953 10.4686 29.799C10.2835 30.5986 9.89563 30.6777 9.28735 30.2384C9.3138 29.2631 9.34466 28.2878 9.3711 27.3169L9.62235 26.7018C10.3761 24.4262 10.8125 21.9704 11.9805 19.9231C13.272 17.6563 14.3828 15.1477 16.6043 13.4871C17.1467 13.0361 17.6646 12.5565 18.1559 12.0506L18.482 12.0945C18.35 12.4146 18.1669 12.7113 17.9399 12.9731C15.9277 14.6799 14.2791 16.7712 13.0913 19.1236C12.2847 20.6436 11.6544 22.2603 10.9447 23.8331L11.5133 24.1318C11.7734 23.6618 12.0599 23.2049 12.2803 22.7216C13.0604 20.9951 14.4842 20.033 16.1768 19.3696C16.3707 19.3213 16.6528 19.497 16.8908 19.5541ZM11.2929 24.76L11.0373 24.6502C11.002 24.7337 10.9182 24.8391 10.9447 24.9006C10.9711 24.9621 11.099 24.9797 11.1827 25.0149C11.2312 24.9402 11.2577 24.8479 11.2929 24.76ZM10.6229 25.6782C10.6031 25.718 10.5911 25.7613 10.5877 25.8056C10.5877 25.8056 10.6538 25.832 10.689 25.8452C10.7102 25.8056 10.7237 25.7623 10.7287 25.7178C10.7287 25.7178 10.6626 25.6914 10.6229 25.6782Z" fill="#1FAFBE"/>
<path d="M48.8605 29.408C48.8297 31.1082 48.7592 32.8127 48.7988 34.5129C48.7988 34.9522 49.1691 35.3915 49.3674 35.8309L49.698 36.4064L50.3063 39.7935C50.2755 40.3734 50.2446 40.9489 50.2093 41.5288L49.579 42.1658L48.8561 42.3108C48.8209 41.9769 48.79 41.6474 48.7592 41.3136C48.4638 40.7996 48.1729 40.2812 47.8776 39.7628L47.8379 38.8841L47.2561 38.2515C47.2561 35.6156 47.2561 32.9797 47.2561 30.3438L48.1156 28.771C48.1156 28.4767 48.1156 28.1823 48.1465 27.8924L48.4286 27.576C48.5187 27.5538 48.6099 27.5363 48.7019 27.5233C48.7592 27.9627 48.8209 28.402 48.8782 28.8193L48.8605 29.408Z" fill="#10AFC0"/>
<path d="M54.2777 31.9209C54.0661 31.0071 53.784 30.0977 53.6562 29.1664C53.6055 28.4248 53.6055 27.6806 53.6562 26.939C54.5774 27.0488 54.7934 26.4997 54.789 25.7441C54.6259 23.9341 54.5642 22.1065 54.2689 20.3185C53.9044 17.8581 52.8222 15.5589 51.1569 13.7067C49.9095 12.3536 48.3756 11.2465 46.9255 10.0867C45.7442 9.13781 45.6913 8.62381 46.877 7.66609C47.375 7.26631 47.926 6.93243 48.455 6.56779C48.3224 6.83235 48.1629 7.08261 47.9789 7.31464C46.3348 9.0192 46.4097 8.90936 48.2125 10.2581C50.822 12.2174 53.1581 14.4799 53.978 17.7924C54.566 20.1195 55.0295 22.4761 55.3664 24.8522C55.4898 25.7309 55.0446 26.7062 54.8683 27.6419C54.7493 28.2789 54.6347 28.916 54.551 29.5574C54.4275 30.3437 54.3702 31.1345 54.2777 31.9209Z" fill="#7FC2B9"/>
<path d="M22.3828 50.5349C23.8198 50.7809 25.2611 51.0357 26.6981 51.2729C27.2711 51.3696 27.8485 51.4662 28.426 51.5058C29.2029 51.5716 29.9834 51.5848 30.7621 51.5453C31.2998 51.5058 31.8376 51.1455 32.3621 51.1763C35.6944 51.3915 38.5551 50.056 41.3364 48.5096C42.9982 47.5826 44.5806 46.5151 46.185 45.5091C44.5497 46.7216 42.9894 48.0483 41.2659 49.1291C38.7917 50.6679 36.0016 51.6319 33.1026 51.9495L30.7224 52.525H28.2981C28.239 52.4832 28.1679 52.4616 28.0954 52.4635L26.1207 52.0242C24.3091 51.6463 22.4886 51.2861 20.6814 50.8731C20.3817 50.8029 20.1349 50.4865 19.8616 50.2845L19.9938 50.1263L22.3828 50.5349Z" fill="#7FC2B9"/>
<path d="M96.6853 14.8358C95.601 13.654 94.5343 12.4547 93.4323 11.2905C90.4747 8.17571 86.6928 7.0818 82.5318 6.83139C79.7588 6.59152 76.9733 7.12064 74.4832 8.36023L75.5939 5.01262C75.4719 5.29325 75.3874 5.58867 75.3427 5.89126C75.3427 6.26907 75.303 6.80504 75.5234 6.98956C75.7438 7.17407 76.286 7.11696 76.643 7.01591C80.923 5.78582 85.0795 5.91322 89.1964 7.77154C92.107 9.00714 94.5681 11.1014 96.2489 13.7726C96.4229 14.1147 96.5689 14.4702 96.6853 14.8358Z" fill="#53B4A9"/>
<path d="M70.7807 51.9758C71.3669 51.7869 71.9487 51.453 72.5438 51.4399C73.5544 51.3886 74.5672 51.4848 75.5499 51.7254C76.7268 52.0505 77.723 52.4196 77.6216 50.4953C78.3092 50.5261 78.9439 50.3943 79.3847 50.6052C82.3556 51.9758 84.7402 50.3547 87.2086 49.173C88.1518 48.7337 89.0466 48.1713 89.9679 47.6705C88.478 48.6809 87.0675 49.8407 85.4807 50.6535C84.273 51.2685 82.836 51.4399 81.5137 51.8133L78.6706 51.2246C78.1549 53.1971 78.0447 53.1356 76.3345 52.5909C75.2899 52.257 74.0909 52.4196 72.9625 52.3624C71.2832 52.7139 69.7933 52.0769 68.2991 51.4838C68.2991 51.3608 68.3387 51.2378 68.3608 51.1104L70.168 51.6727L70.7807 51.9758Z" fill="#53B4A9"/>
<path d="M72.9403 52.3624C74.0687 52.4195 75.2676 52.257 76.3123 52.5909C78.0225 53.1356 78.1327 53.1971 78.6484 51.2246L81.5003 51.8133L81.9984 53.0214C80.676 53.8429 79.433 54.7787 77.8198 53.5046C77.5332 53.2806 76.7971 53.6321 76.2682 53.7155L74.8621 53.4344C74.7651 53.2718 74.5492 52.8984 74.3288 52.5294L74.0158 52.648V54.4755L75.7789 54.1285L73.478 55.2707C73.478 53.4739 72.6229 53.3729 71.5342 53.5134C70.9871 53.525 70.4403 53.4779 69.9033 53.3729C70.589 53.3501 71.2716 53.2708 71.9441 53.1356C72.3364 53.0565 72.6229 52.6172 72.9403 52.3624Z" fill="#D9A438"/>
<path d="M59.4041 43.4926C59.8228 42.346 60.193 43.2158 60.528 43.5409C61.8856 44.8589 63.1727 46.2471 64.592 47.5211C65.4207 48.2768 66.3551 47.9956 66.4609 46.9544C66.6549 44.9511 66.7254 42.9347 66.7342 40.9182C66.7342 40.3559 66.3463 39.7935 66.1348 39.2268C66.5755 39.732 67.2279 40.1845 67.3425 40.7469C67.5408 41.7046 67.391 42.737 67.3866 43.7342L67.1397 45.5925C67.2661 46.2923 67.1845 47.0136 66.9049 47.6677C66.6253 48.3218 66.16 48.8801 65.5662 49.274L63.8603 48.883C63.8466 48.8856 63.8324 48.8851 63.8188 48.8817C63.8053 48.8783 63.7926 48.872 63.7817 48.8632C63.7708 48.8544 63.762 48.8434 63.7558 48.8309C63.7496 48.8184 63.7461 48.8047 63.7457 48.7908C63.6943 48.7211 63.6317 48.6603 63.5606 48.6107C63.5266 48.6033 63.4958 48.5852 63.4728 48.5591C63.4498 48.533 63.4357 48.5003 63.4328 48.4657C63.379 48.4048 63.3183 48.3502 63.2521 48.3031C63.2235 48.3056 63.1951 48.2969 63.1729 48.2789C63.1507 48.2608 63.1364 48.2349 63.133 48.2065L62.9082 47.9956L62.8289 47.9165L62.6085 47.6925L62.5248 47.6046L62.2867 47.385L62.2162 47.3322L61.9694 47.0818L61.9121 47.0159L61.6873 46.7787L61.608 46.6952L61.3876 46.4712L61.2994 46.3745C61.2563 46.3002 61.2012 46.2334 61.1363 46.1768C61.0531 46.1311 60.9902 46.0558 60.96 45.966L60.8454 45.9045L59.4041 43.4926Z" fill="#35B5BC"/>
<path d="M97.9681 36.7183C96.4959 36.6919 97.0512 35.2685 96.584 34.5612C95.7862 33.3663 95.4248 31.8814 94.8738 30.4887C95.7994 29.8386 98.0209 31.2576 99.7224 33.7265C99.7224 34.2054 99.7224 34.6798 99.7224 35.1587C99.6606 35.2861 99.5989 35.4135 99.5416 35.5409L99.2199 35.8133L98.5543 36.011L98.1752 36.3668L97.9769 36.7183H97.9681Z" fill="#10AFC0"/>
<path d="M69.2201 9.72653C68.9204 9.50247 68.4708 9.34432 68.3386 9.04559C67.7083 7.60901 67.1617 6.13729 66.5754 4.6524C65.1605 5.47392 64.8476 8.09666 65.8614 9.48491C66.2347 9.89597 66.5614 10.3468 66.8355 10.8292C66.9176 11.0252 66.9547 11.237 66.944 11.449C66.9333 11.6611 66.8752 11.8681 66.7738 12.0549C65.5793 13.3729 64.301 14.6249 63.0316 15.8726C62.6931 16.1616 62.332 16.4231 61.9517 16.6546C63.1638 15.1346 64.2481 13.4783 65.641 12.1428C66.3683 11.4443 66.3154 11.0489 65.9099 10.3855C65.7512 10.1307 65.5132 9.92423 65.3413 9.67821C64.0189 7.78914 64.6228 4.76662 66.7209 3.52774C67.5628 5.61011 68.3915 7.67051 69.2201 9.72653Z" fill="#6FC0C4"/>
<path d="M74.1128 2.53485C73.5251 3.82938 72.9242 5.12829 72.31 6.43161L71.9045 6.46676L71.5827 2.81162L71.1419 2.77647C71.1022 4.05049 71.045 5.32013 71.0185 6.59415C70.9965 7.74517 71.5739 9.09828 69.9033 9.64743C70.0444 7.86818 70.1281 6.08454 70.3441 4.31409C70.5533 3.22114 70.827 2.14147 71.1639 1.0807L72.9271 3.084C73.4825 1.80119 74.1921 1.20371 75.2985 2.33715L74.1128 2.53485Z" fill="#6FC0C4"/>
<path d="M30.7312 52.525L33.1115 51.9495C33.2349 53.1357 33.9313 53.6584 35.0906 53.7419C35.5768 53.8173 36.055 53.9379 36.5187 54.1022C36.6113 54.5415 36.6994 54.9808 36.792 55.4201C36.778 55.4664 36.7543 55.5092 36.7224 55.5455C36.6904 55.5819 36.651 55.611 36.6069 55.631L35.6063 55.3454L34.6498 54.726H32.847L32.2916 55.0291L31.1235 55.6354L30.0657 54.7567L29.3384 54.3657C29.6205 54.1944 29.8805 53.9264 30.1759 53.8737C31.1897 53.7199 31.172 53.2235 30.7312 52.525Z" fill="#EEB729"/>
<path d="M44.4702 7.11253L42.9231 8.05707V5.63641V5.08287C42.9628 4.53372 43.0068 3.98897 43.0509 3.44422V2.76326L44.338 0.707253L45.3474 0.52713H45.5149H45.8278L45.8851 0.571065C45.9116 0.72922 45.938 0.891766 45.9689 1.04992L45.6824 1.70012C45.4928 2.49089 45.2989 3.28166 45.1094 4.07244L44.5804 4.44586L45.0565 4.73142L44.4438 6.21192V6.53701L44.4702 7.11253Z" fill="#058596"/>
<path d="M41.6451 5.09172L42.3062 7.42891L41.0809 7.54312L36.5144 7.19167C35.9416 6.76527 35.2458 6.53488 34.5309 6.53488C33.8159 6.53488 33.1201 6.76527 32.5473 7.19167L28.285 7.52116L27.0949 7.83307L26.9583 7.6881C28.4966 7.33225 30.0437 6.76552 31.582 6.67766C33.927 6.54147 36.294 6.72599 38.6345 6.80507C39.5161 6.83582 40.3977 6.94565 41.5128 7.03791C41.2704 6.11094 41.0721 5.49589 40.9486 4.86327C40.7723 3.89677 41.1514 3.61561 42.0374 4.09008L41.9228 4.21309C41.8258 4.50304 41.7288 4.79738 41.6451 5.09172Z" fill="#7FC2B9"/>
<path d="M14.7795 46.805C15.811 45.7331 16.8159 44.6348 17.8915 43.6068C18.2612 43.3681 18.6699 43.1957 19.0992 43.0972C19.0835 43.4957 19.0363 43.8923 18.9581 44.2834C18.8127 44.8018 18.5835 45.2938 18.3895 45.8034L17.3449 47.3191H19.0375C19.0375 47.4509 19.0639 47.5826 19.0728 47.7144L17.7063 48.0439L15.3702 47.4245L14.7795 46.805Z" fill="#1FAFBE"/>
<path d="M44.1882 59.4179C44.3822 59.2993 44.5717 59.0797 44.7657 59.0753C50.2402 58.9552 55.7132 58.8512 61.1847 58.7633C61.2729 58.7633 61.3611 58.8468 61.4448 58.8951C59.6817 58.9654 57.9186 59.0533 56.1554 59.1016C52.1708 59.2071 48.1773 59.3169 44.1882 59.4179Z" fill="#D9A438"/>
<path d="M57.319 36.424H57.0413C56.8694 33.1818 56.3052 29.9396 57.4821 26.7589C58.1785 24.8611 58.6943 22.8973 59.3114 20.9687C59.3598 20.8062 59.5714 20.6919 59.7081 20.5602C59.4127 21.698 59.2673 22.8929 58.7956 23.9605C57.3102 27.3959 57.1603 30.9896 57.3058 34.6315C57.3014 35.2158 57.3102 35.8177 57.319 36.424Z" fill="#6FC0C4"/>
<path d="M74.1128 2.53487L75.2765 2.33717L75.898 2.41626C75.8098 3.2949 75.7261 4.14718 75.6379 5.01264H75.585L74.4742 8.36025C72.861 8.4525 73.1519 7.38056 73.3194 6.43163C73.5618 5.11367 73.8483 3.82208 74.1128 2.53487Z" fill="#0E8A9A"/>
<path d="M69.9695 58.6667C70.0444 58.6052 70.1194 58.4909 70.1987 58.4909C74.9503 58.3533 79.7034 58.2274 84.4579 58.1131C84.5461 58.1131 84.6298 58.2054 84.718 58.2537C81.8573 58.4207 78.9879 58.6403 76.1448 58.7326C74.0908 58.8029 72.0279 58.6974 69.9695 58.6667Z" fill="#D9A438"/>
<path d="M101.375 57.81C101.446 57.7397 101.512 57.6079 101.582 57.6079C106.872 57.4937 112.161 57.3897 117.451 57.296L101.375 57.81Z" fill="#D9A438"/>
<path d="M122.308 57.1115C123.256 57.0456 124.199 56.949 125.146 56.9138C128.338 56.7908 131.529 56.6634 134.725 56.5975C135.325 56.6609 135.916 56.7905 136.488 56.9841C132.344 57.0807 128.206 57.1818 124.067 57.2565C123.478 57.2399 122.891 57.1915 122.308 57.1115Z" fill="#D9A438"/>
<path d="M93.8731 44.3317C94.1596 43.2861 93.6174 42.7237 92.8593 42.034C90.7127 40.0791 88.7071 37.9659 86.6619 35.8836C86.5032 35.7254 86.4812 35.4442 86.3975 35.207C87.398 36.2218 88.3281 37.3245 89.4212 38.2383C91.2064 39.732 93.0929 41.1027 94.9398 42.5261L93.8731 44.3317Z" fill="#53B4A9"/>
<path d="M98.2414 52.4635C98.1532 52.5733 98.0694 52.7798 97.9813 52.7842C93.5382 52.8662 89.0952 52.9409 84.6521 53.0082C87.1117 52.8457 89.5668 52.6392 92.0263 52.5382C94.098 52.4503 96.1697 52.481 98.2414 52.4635Z" fill="#D9A438"/>
<path d="M36.7962 55.4113C36.7037 54.972 36.6155 54.5327 36.5229 54.0933C39.4541 54.0626 42.3853 54.0187 45.3121 54.0055C46.1937 54.0055 47.1105 54.0846 48.0097 54.1285C46.9166 54.2208 45.8058 54.3394 44.7303 54.3965C42.7027 54.5063 40.6707 54.5283 38.6519 54.6952C38.0128 54.7567 37.4089 55.1653 36.7962 55.4113Z" fill="#D9A438"/>
<path d="M68.5898 53.3948C68.3474 53.5222 68.1094 53.7507 67.8625 53.7595C63.8647 53.8737 59.8668 53.9616 55.8689 54.045C55.6751 54.0222 55.4854 53.9734 55.3047 53.9001C59.0337 53.7243 62.7627 53.5442 66.4917 53.3816C67.2102 53.3509 67.889 53.386 68.5898 53.3948Z" fill="#D9A438"/>
<path d="M27.0067 54.6689L17.9927 54.7655C20.2671 54.726 22.5415 54.6952 24.8116 54.6337C25.3625 54.6337 25.9135 54.5063 26.4601 54.4404H27.0111C27.0261 54.516 27.0246 54.5939 27.0067 54.6689Z" fill="#D9A438"/>
<path d="M124.565 51.8616C124.472 51.967 124.375 52.1647 124.283 52.1603C121.471 52.1603 118.658 52.134 115.851 52.112L124.565 51.8616Z" fill="#D9A438"/>
<path d="M133.653 51.7035C132.12 51.7957 130.568 51.9319 129.047 51.9583C127.809 51.9846 126.561 51.8748 125.323 51.8221L133.653 51.7035Z" fill="#D9A438"/>
<path d="M51.1614 39.7013L51.7432 38.1329C51.9489 37.3744 52.1531 36.6129 52.3559 35.8485C52.7095 35.4034 53.0307 34.9336 53.3168 34.4426C53.6253 33.8188 53.8237 33.1247 54.0705 32.4877C54.0441 34.8995 53.0435 36.9863 51.8666 39.0116C51.6642 39.2724 51.4269 39.5045 51.1614 39.7013Z" fill="#7FC2B9"/>
<path d="M44.4571 6.2383C44.6598 5.74626 44.8626 5.24983 45.0698 4.75779L45.1227 4.09882C45.3122 3.30804 45.5061 2.51727 45.6957 1.7221L46.0218 1.30914C46.0612 1.30067 46.102 1.30143 46.141 1.31134C46.18 1.32125 46.2162 1.34004 46.2467 1.36625C46.0263 2.6271 45.7662 3.88795 45.6163 5.16197C45.5855 5.45632 45.9249 5.79898 46.0924 6.11969C45.8367 6.91485 45.3915 7.39811 44.4703 7.11255C44.4703 6.92804 44.4703 6.74352 44.4395 6.5634C44.4483 6.45357 44.4527 6.34813 44.4571 6.2383Z" fill="#7FC2B9"/>
<path d="M14.6118 62.0055L19.8439 61.3377L14.6118 62.0055Z" fill="#D9A438"/>
<path d="M91.3958 45.5881L92.9606 45.5002L89.9897 47.6222L90.3865 46.5546L91.3958 45.5881Z" fill="#53B4A9"/>
<path d="M15.3701 47.4245L17.7062 48.0439C17.8473 48.3427 17.9884 48.6458 18.125 48.9446L18.4952 49.4981L18.3542 49.6387L15.3701 47.4245Z" fill="#7FC2B9"/>
<path d="M27.011 54.4184H26.46L26.1294 52.0022L28.1041 52.4415C26.5922 52.4767 26.8258 53.4607 27.011 54.4184Z" fill="#EEB729"/>
<path d="M44.3515 0.70729L43.0645 2.7633C43.3542 1.83653 43.7183 0.93449 44.1532 0.0658877C44.259 -0.118626 45.1229 0.136178 45.6386 0.188897L45.5372 0.294329L44.4397 0.439312C44.4037 0.526354 44.3743 0.615919 44.3515 0.70729Z" fill="#7FC2B9"/>
<path d="M91.709 58.0297L95.4027 57.9725L91.709 58.0297Z" fill="#D9A438"/>
<path d="M105.488 52.3405L101.785 52.3932L105.488 52.3405Z" fill="#D9A438"/>
<path d="M21.9375 61.0917L26.0103 60.6524L21.9375 61.0917Z" fill="#D9A438"/>
<path d="M61.643 17.006L59.7036 20.5206L61.643 17.006Z" fill="#6FC0C4"/>
<path d="M98.2457 17.8452L97.3641 17.9154C97.3972 17.5281 97.3972 17.1386 97.3641 16.7512C97.2672 16.2021 97.0776 15.6661 96.9233 15.1214L98.2457 17.8452Z" fill="#53B4A9"/>
<path d="M33.1643 60.0066L36.6906 59.7562L33.1643 60.0066Z" fill="#D9A438"/>
<path d="M39.3926 59.5585L42.1959 59.4794L39.3926 59.5585Z" fill="#D9A438"/>
<path d="M3.32363 49.889L1.82056 51.0093C1.08446 50.5919 0.87729 50.157 1.88668 49.9022C2.36325 49.8384 2.84595 49.834 3.32363 49.889Z" fill="#D9A438"/>
<path d="M63.8604 48.883L65.5662 49.274L66.1833 49.8232C66.1833 50.0165 66.2097 50.2098 66.2273 50.4031L66.1701 50.4602L63.8604 48.883Z" fill="#53B4A9"/>
<path d="M9.90869 62.6732L12.5181 62.2339L9.90869 62.6732Z" fill="#D9A438"/>
<path d="M140.556 57.3355L143.24 57.7397L140.556 57.3355Z" fill="#D9A438"/>
<path d="M51.5227 1.65621L49.4995 2.38549C50.0946 0.926946 50.7072 0.707285 51.5227 1.65621Z" fill="#7FC2B9"/>
<path d="M149.508 58.8995L152.021 59.0665L149.508 58.8995Z" fill="#D9A438"/>
<path d="M4.50024 63.5387L7.06558 63.0994L4.50024 63.5387Z" fill="#D9A438"/>
<path d="M20.968 10.3064L18.7861 11.4575L20.968 10.3064Z" fill="#7FC2B9"/>
<path d="M7.0216 50.3943L4.71631 49.6826L7.0216 50.3943Z" fill="#D9A438"/>
<path d="M27.0507 8.09663L24.5691 8.38219L26.9405 7.68367L27.0771 7.82864C27.0463 7.91444 27.0372 8.0065 27.0507 8.09663Z" fill="#7FC2B9"/>
<path d="M75.6379 5.00385C75.7261 4.12521 75.8099 3.27293 75.898 2.40747C76.1052 2.55684 76.5107 2.76771 76.4886 2.84679C76.2418 3.57606 75.9289 4.29215 75.6379 5.00385Z" fill="#6FC0C4"/>
<path d="M153.387 58.1878L153.163 57.2126L154 57.5376C153.793 57.7529 153.603 57.9726 153.387 58.1878Z" fill="#D9A438"/>
<path d="M146.062 58.2142L148.129 58.6535L146.062 58.2142Z" fill="#D9A438"/>
<path d="M46.3394 45.3202C46.3394 45.1401 46.3394 44.9599 46.3394 44.7798L47.9967 43.598L48.1377 43.7562L46.3394 45.3202Z" fill="#7FC2B9"/>
<path d="M142.297 49.8627L140.212 50.548L142.297 49.8627Z" fill="#D9A438"/>
<path d="M149.663 56.3382L147.662 55.6925L149.663 56.3382Z" fill="#D9A438"/>
<path d="M30.7136 60.1911L32.4194 60.0637L30.7136 60.1911Z" fill="#D9A438"/>
<path d="M43.0642 3.44424C43.0201 3.989 42.9761 4.53376 42.9364 5.07851L42.0284 4.70509L41.9226 4.21305L42.0372 4.09004C42.8879 4.67873 42.9144 3.96703 43.0642 3.44424Z" fill="#7FC2B9"/>
<path d="M24.3532 8.51404L22.5107 9.35314L24.3532 8.51404Z" fill="#7FC2B9"/>
<path d="M51.805 3.50136C51.805 2.98296 51.805 2.46456 51.805 1.95056C52.7219 2.69301 52.5764 3.36516 51.6728 3.989C51.6516 3.96199 51.6367 3.93066 51.6291 3.89725C51.6215 3.86384 51.6214 3.82916 51.6287 3.79569L51.805 3.50136Z" fill="#7FC2B9"/>
<path d="M1.37085 64L3.02378 63.7892L1.37085 64Z" fill="#D9A438"/>
<path d="M17.1684 54.603L15.8108 54.1636L17.1684 54.603Z" fill="#D9A438"/>
<path d="M152.082 57.0104L150.712 56.5711L152.082 57.0104Z" fill="#D9A438"/>
<path d="M137.554 57.0104L138.842 57.1071L137.554 57.0104Z" fill="#D9A438"/>
<path d="M50.2092 41.5244C50.2445 40.9445 50.2753 40.369 50.3062 39.7891L50.8307 40.3822L50.2092 41.5244Z" fill="#7FC2B9"/>
<path d="M0 62.7216C0.123419 63.0423 0.242433 63.363 0.361443 63.6793C0.242433 63.3542 0.119011 63.0379 0 62.7216Z" fill="#D9A438"/>
<path d="M67.651 50.4778C67.651 50.6579 67.6069 50.8336 67.5805 51.0093L66.1567 50.4602L66.214 50.4031L66.8179 50.4338L67.651 50.4778Z" fill="#53B4A9"/>
<path d="M19.8705 50.2845L18.3542 49.6343L18.4953 49.4981L20.0028 50.1263L19.8705 50.2845Z" fill="#7FC2B9"/>
<path d="M146.432 48.2724L145.453 48.1801L146.432 48.2724Z" fill="#D9A438"/>
<path d="M138.656 51.0401L137.541 51.2861L138.656 51.0401Z" fill="#D9A438"/>
<path d="M48.7591 3.2202L47.9304 4.19549L48.7591 3.2202Z" fill="#7FC2B9"/>
<path d="M48.658 6.43603L49.6365 5.6145L48.658 6.43603Z" fill="#7FC2B9"/>
<path d="M136.717 51.4135L136.042 51.4486L136.717 51.4135Z" fill="#D9A438"/>
<path d="M144.298 57.9857L144.964 58.0341L144.298 57.9857Z" fill="#D9A438"/>
<path d="M147.375 50.0824C147.243 49.7397 147.11 49.4014 146.983 49.0588L147.375 50.0824Z" fill="#D9A438"/>
<path d="M48.834 42.3108L49.5569 42.1658L48.7326 43.1368L48.5828 43.005L48.834 42.3108Z" fill="#7FC2B9"/>
<path d="M28.0732 60.4591L28.7344 60.4196L28.0732 60.4591Z" fill="#D9A438"/>
<path d="M8.91243 51.2554L8.39673 50.9742L8.91243 51.2554Z" fill="#D9A438"/>
<path d="M8.33082 55.6573C8.33082 55.8463 8.33082 56.0396 8.33082 56.2285C8.32641 56.0352 8.33082 55.8463 8.33082 55.6573Z" fill="#D9A438"/>
<path d="M6.38257 54.1505L6.82335 54.5063L6.38257 54.1505Z" fill="#D9A438"/>
<path d="M3.26172 52.0593L3.74217 52.3493L3.26172 52.0593Z" fill="#D9A438"/>
<path d="M12.2361 52.8237L11.7512 52.5382L12.2361 52.8237Z" fill="#D9A438"/>
<path d="M8.48071 62.9017L8.86419 62.8666L8.48071 62.9017Z" fill="#D9A438"/>
<path d="M14.1136 53.6848L13.6067 53.4036L14.1136 53.6848Z" fill="#D9A438"/>
<path d="M98.5454 36.011L99.211 35.8133L98.5454 36.011Z" fill="#84C6CC"/>
<path d="M45.9822 1.07196C45.9513 0.913809 45.9249 0.751249 45.8984 0.593094L46.2423 1.09832C46.1994 1.11178 46.1542 1.11638 46.1095 1.11185C46.0648 1.10732 46.0215 1.09375 45.9822 1.07196Z" fill="#7FC2B9"/>
<path d="M9.62234 26.6974L9.37109 27.3125L9.62234 26.6974Z" fill="#84C6CB"/>
<path d="M22.1582 9.66504L21.5103 9.90666L22.1582 9.66504Z" fill="#7FC2B9"/>
<path d="M68.3431 51.1016C68.321 51.229 68.299 51.352 68.2813 51.475C68.1888 51.4179 68.0962 51.3608 68.0081 51.2993L68.3431 51.1016Z" fill="#35B5BC"/>
<path d="M18.482 12.0988L18.1558 12.0549L18.4731 11.7518C18.4731 11.866 18.4775 11.9802 18.482 12.0988Z" fill="#7FC2B9"/>
<path d="M22.4843 9.38826L22.189 9.65185L22.4843 9.38826Z" fill="#7FC2B9"/>
<path d="M63.5605 48.6106C63.6317 48.6602 63.6942 48.7211 63.7457 48.7908L63.5605 48.6106Z" fill="#53B4A9"/>
<path d="M63.2432 48.3031C63.3095 48.3502 63.3701 48.4048 63.4239 48.4657C63.4005 48.4718 63.376 48.472 63.3525 48.4663C63.3291 48.4607 63.3074 48.4492 63.2895 48.4331C63.2715 48.417 63.2579 48.3967 63.2498 48.374C63.2417 48.3513 63.2395 48.3269 63.2432 48.3031Z" fill="#53B4A9"/>
<path d="M62.9082 47.9956L63.133 48.2065L62.9082 47.9956Z" fill="#53B4A9"/>
<path d="M99.5327 35.5409C99.59 35.4135 99.6517 35.2861 99.7134 35.1587C99.6517 35.2861 99.59 35.4135 99.5327 35.5409Z" fill="#84C6CC"/>
<path d="M62.6086 47.6925L62.829 47.9165L62.6086 47.6925Z" fill="#53B4A9"/>
<path d="M62.2866 47.3849L62.5246 47.6046L62.2866 47.3849Z" fill="#53B4A9"/>
<path d="M50.5178 4.92913L50.8572 4.70947L50.5178 4.92913Z" fill="#7FC2B9"/>
<path d="M61.9695 47.0818L62.2163 47.3322L61.9695 47.0818Z" fill="#53B4A9"/>
<path d="M61.6873 46.7787L61.9121 47.0159L61.6873 46.7787Z" fill="#53B4A9"/>
<path d="M87.6536 58.2273L87.7241 58.1263L87.8255 58.1922L87.7594 58.2932L87.6536 58.2273Z" fill="#D9A438"/>
<path d="M61.3875 46.4668L61.6078 46.6909L61.3875 46.4668Z" fill="#53B4A9"/>
<path d="M61.1365 46.1768C61.2014 46.2333 61.2565 46.3001 61.2996 46.3745L61.1365 46.1768Z" fill="#53B4A9"/>
<path d="M60.8452 45.9045L60.9598 45.966L60.8805 45.9835L60.8452 45.9045Z" fill="#53B4A9"/>
<path d="M45.9822 1.07193C46.0215 1.09371 46.0648 1.10728 46.1095 1.11182C46.1542 1.11635 46.1994 1.11174 46.2423 1.09829C46.2665 1.18599 46.2665 1.27857 46.2423 1.36627C46.2118 1.34005 46.1756 1.32126 46.1366 1.31135C46.0976 1.30144 46.0568 1.30068 46.0175 1.30915C46.0219 1.22956 46.0084 1.14998 45.9778 1.07631L45.9822 1.07193Z" fill="#058596"/>
<path d="M61.9209 16.6941L61.6653 16.9709L61.9209 16.6941Z" fill="#6FC0C4"/>
<path d="M50.9014 40.1362L51.1394 39.7803L50.9014 40.1362Z" fill="#7FC2B9"/>
<path d="M5.09546 53.2806L5.21447 53.2762L5.24532 53.3904L5.12191 53.4036L5.09546 53.2806Z" fill="#D9A438"/>
<path d="M97.968 36.7183L98.1663 36.3668L97.968 36.7183Z" fill="#84C6CC"/>
<path d="M45.8413 0.549135H45.5327C45.5524 0.512674 45.5627 0.471911 45.5627 0.43051C45.5627 0.38911 45.5524 0.34836 45.5327 0.311899L45.6341 0.206467C45.7046 0.311903 45.7751 0.430519 45.8413 0.549135Z" fill="#7FC2B9"/>
<path d="M93.0532 45.408C93.0575 45.3799 93.0685 45.3531 93.0854 45.3302C93.1023 45.3072 93.1245 45.2887 93.1502 45.2762L93.1811 45.3948L93.0532 45.408Z" fill="#53B4A9"/>
<path d="M48.433 43.4399L48.1332 43.7562L47.9922 43.598L48.2919 43.3037L48.433 43.4399Z" fill="#7FC2B9"/>
<path d="M48.7328 43.1367L48.433 43.4398L48.292 43.3037L48.5829 43.0049L48.7328 43.1367Z" fill="#7FC2B9"/>
<path d="M113.201 52.1208L113.131 52.2218L113.03 52.1515L113.104 52.0593L113.201 52.1208Z" fill="#D9A438"/>
<path d="M19.3459 46.4668C21.5013 44.1472 23.7537 41.9023 25.7813 39.4816C26.7683 38.1865 27.6011 36.7816 28.2629 35.2949C28.7816 34.3482 29.0438 33.2831 29.0237 32.2045C29.0036 31.126 28.7019 30.0714 28.1483 29.1445C26.9494 27.0884 25.9444 24.8611 24.3972 23.0862C23.3658 21.8913 21.563 21.3597 20.1173 20.5074C19.65 20.2351 19.2357 19.8836 18.7949 19.5717C20.7255 19.3872 22.3873 20.3185 23.6435 21.4476C26.2133 23.754 29.0122 25.977 30.2552 29.4081C30.696 30.704 30.9781 32.0659 31.3351 33.3971C31.3351 33.5904 31.3351 33.7881 31.3351 33.9858L31.0398 35.5365C30.9296 35.9319 30.8238 36.3317 30.7136 36.7271V37.3509C28.9505 40.9226 26.4513 43.8133 22.7796 45.5882L20.9107 46.7875L19.1123 47.1697L19.3459 46.4668Z" fill="#1FAFBE"/>
<path d="M19.09 47.1697L20.8884 46.7875L22.7574 45.5881C26.407 43.8309 28.8974 40.9226 30.6914 37.3509V36.7271C30.8016 36.3317 30.9074 35.9319 31.0176 35.5365C31.9388 35.1719 31.7228 34.5964 31.3129 33.9857C31.3129 33.788 31.3129 33.5903 31.3129 33.397C32.2386 33.2564 32.4501 33.6694 32.5647 34.5744C33.0981 38.7875 30.8721 41.8407 28.3156 44.6787C26.4687 46.7435 24.3706 48.5799 22.3871 50.5217L20.0069 50.1131L18.4994 49.4849L18.1292 48.9313L19.0768 47.7013C19.0768 47.5695 19.0548 47.4377 19.0416 47.3059C19.0545 47.2594 19.0706 47.2139 19.09 47.1697Z" fill="#008091"/>
<path d="M48.5829 43.0049L48.292 43.3037L47.9923 43.598L46.335 44.7798C45.925 42.6711 45.5195 40.5667 45.0964 38.4624C44.3118 34.592 44.5542 30.8973 46.9168 27.5453C47.4457 26.7941 47.9703 26.1746 48.9929 26.6974C49.0787 26.7141 49.1656 26.7244 49.2529 26.7282L48.6975 27.5277C48.6056 27.5406 48.5144 27.5582 48.4243 27.5804L48.1421 27.8968C48.1421 28.1911 48.1422 28.4854 48.1113 28.7754L47.2518 30.3482C47.2518 32.9841 47.2518 35.62 47.2518 38.2559L47.8336 38.8885L47.8733 39.7672C47.8292 40.4789 47.7322 41.2125 48.7548 41.318C48.7857 41.6518 48.8166 41.9813 48.8518 42.3152L48.5829 43.0049Z" fill="#008091"/>
<path d="M39.3132 19.0665C39.613 16.8699 40.3843 15.2751 42.0417 14.3482C42.553 14.0626 43.6946 14.2999 44.1839 14.7172C44.9685 15.3938 45.4533 16.4174 46.0616 17.296L45.7266 17.7134C44.6291 17.3224 43.4345 16.4701 42.456 16.6722C41.3893 16.8962 40.521 18.0912 39.3132 19.0665Z" fill="#4F3953"/>
<path d="M32.8514 16.5096C32.0315 17.0061 31.5599 17.3443 31.0398 17.586C30.6103 17.7549 30.1681 17.89 29.7175 17.9901C29.6381 17.5219 29.6381 17.0437 29.7175 16.5755C29.9509 16.0162 30.2739 15.4984 30.6739 15.0423C31.939 13.452 33.6977 13.5003 34.8349 15.2048C35.3704 16.0578 35.8235 16.9595 36.1881 17.8979C36.2709 18.3031 36.2784 18.72 36.2102 19.128C35.781 18.9755 35.3712 18.7735 34.9892 18.5261C34.2575 17.911 33.6139 17.2433 32.8514 16.5096ZM30.6872 16.6063L34.6322 16.1362C34.5542 15.6997 34.3291 15.3029 33.9941 15.0113C33.659 14.7197 33.2341 14.5508 32.7897 14.5327C31.5291 14.5019 30.7753 15.3103 30.7004 16.6238L30.3742 16.8391L30.6872 16.6063Z" fill="#196B7F"/>
<path d="M43.7343 22.7743C43.4346 24.6853 42.6015 26.1351 40.3271 25.2784C39.8389 25.1572 39.3613 24.9971 38.8989 24.7995C38.2862 24.4437 37.4884 24.0659 37.2592 23.4816C37.1226 23.1433 37.8146 22.291 38.3127 21.9132C39.7717 20.8017 41.3982 20.8369 42.9233 21.7375C43.3332 21.9967 43.5624 22.5458 43.7343 22.7743ZM38.0041 23.3059C38.6345 24.1406 41.3982 24.9665 42.1872 24.4261C42.5798 24.0778 42.8347 23.601 42.9056 23.0818C42.8847 22.8984 42.8197 22.7228 42.7161 22.5698C42.6125 22.4169 42.4734 22.2911 42.3106 22.2032C41.5708 21.8908 40.7485 21.8295 39.9703 22.0288C39.1921 22.228 38.5013 22.6768 38.0041 23.3059Z" fill="#50AC5C"/>
<path d="M32.5295 7.18727C33.1023 6.76086 33.7981 6.53047 34.5131 6.53047C35.228 6.53047 35.9238 6.76086 36.4966 7.18727H32.5295Z" fill="#1FAFBE"/>
<path d="M54.7891 25.7441C54.7891 26.4997 54.5775 27.062 53.6562 26.939C53.6562 26.5392 53.6871 26.1439 53.7047 25.7441H54.7891Z" fill="#10AFC0"/>
<path d="M52.6998 24.8434H50.6326C51.3422 24.0043 52.0122 24.0615 52.6998 24.8434Z" fill="#7FC2B9"/>
<path d="M41.0632 7.54312L42.2886 7.42891C41.9668 8.37784 41.5481 8.32072 41.0632 7.54312Z" fill="#1FAFBE"/>
<path d="M27.0507 8.09668C27.0373 8.00654 27.0464 7.91448 27.0772 7.82868L28.2673 7.51677L27.0507 8.09668Z" fill="#1FAFBE"/>
<path d="M42.0283 4.70508L42.9363 5.0785V5.63643C42.6234 5.32452 42.3236 5.01699 42.0283 4.70508Z" fill="#1FAFBE"/>
<path d="M41.9227 4.20865L42.0285 4.70068L41.6318 5.09168L41.9227 4.20865Z" fill="#1FAFBE"/>
<path d="M49.2527 26.7282C49.1654 26.7244 49.0785 26.7141 48.9927 26.6974C49.1954 26.4778 49.4026 26.2581 49.6053 26.0472C49.4863 26.2581 49.3717 26.4997 49.2527 26.7282Z" fill="#10AFC0"/>
<path d="M51.8049 3.50139L51.6462 3.79572L51.8049 3.50139Z" fill="#1FAFBE"/>
<path d="M67.6512 50.4778L66.8181 50.4338L66.1702 49.8232L65.5531 49.274C66.1469 48.8801 66.6122 48.3217 66.8918 47.6676C67.1714 47.0135 67.253 46.2923 67.1266 45.5925C68.0831 45.0873 67.7481 44.4151 67.3735 43.7342C67.3735 42.7369 67.5278 41.7046 67.3294 40.7468C67.2148 40.1845 66.5448 39.732 66.1217 39.2268C66.0865 39.1597 66.0641 39.0867 66.0556 39.0115L67.9994 38.2647C67.7922 37.1356 67.6291 35.9539 66.4567 35.1894C66.2451 34.9039 66.0379 34.6139 65.8308 34.3108L65.2313 33.6474C65.2313 33.5684 65.2313 33.4849 65.2004 33.4014C65.5619 33.2784 66.1173 32.9357 66.2451 33.0543C68.8413 35.4267 71.3361 37.8298 71.0937 41.8407C70.9041 44.8325 69.6479 47.4333 68.449 50.0692C68.3432 50.2932 67.9289 50.3547 67.6512 50.4778Z" fill="#008091"/>
<path d="M91.3959 45.5882L90.3865 46.5547C88.5617 44.9819 86.728 43.4179 84.912 41.8276C82.664 39.8594 81.9323 37.2016 81.8265 34.3855C81.7604 32.4769 81.8593 30.5661 82.1218 28.6744C82.3687 26.8117 82.8756 24.9797 83.2811 23.0599H84.8415L84.8943 23.9122H84.8062C83.6822 23.8814 83.8585 24.8171 83.6381 25.4586C83.7307 26.0868 83.8276 26.715 83.9202 27.3432C83.9202 28.3185 83.9202 29.2938 83.9202 30.2691C82.7918 32.3251 83.4177 34.3679 83.9687 36.4196L85.1456 38.2823C86.4679 40.1494 87.7903 42.0604 89.2008 43.8572C89.7473 44.5733 90.6465 45.0302 91.3959 45.5882Z" fill="#008294"/>
<path d="M73.1121 20.1999C71.9749 17.8715 72.3143 15.9693 74.2317 14.7128C74.5533 14.5521 74.9075 14.4667 75.2672 14.4629C75.6269 14.459 75.9828 14.537 76.3078 14.6909C77.0836 15.1302 77.6301 16.0088 78.2605 16.6898C77.996 16.8699 77.6919 17.2433 77.4715 17.1994C74.3199 16.5931 74.3243 16.5931 73.381 19.6683C73.3059 19.8524 73.216 20.0302 73.1121 20.1999Z" fill="#4F3953"/>
<path d="M70.1105 21.4256C67.3733 19.3169 66.2889 21.4563 65.0327 23.0291C64.2217 21.5003 65.6939 18.1175 67.0383 17.8935C68.0344 17.7353 69.5463 19.2773 70.1105 21.4256Z" fill="#4F3953"/>
<path d="M65.2135 33.4322C65.2135 33.5156 65.2135 33.5991 65.2443 33.6782C65.4427 33.9023 65.6455 34.1175 65.8438 34.3416C66.051 34.6271 66.2581 34.9171 66.4697 35.2202C66.7562 36.0417 67.0383 36.8589 67.51 38.2032L65.8879 37.43C65.165 35.062 63.8471 32.4261 61.5286 32.7556C59.955 32.9753 58.4784 34.179 58.2183 35.7694C58.1301 36.3053 58.2624 37.0478 57.3367 36.4239C57.3367 35.8177 57.3367 35.2158 57.3147 34.6096C57.7626 34.3344 58.1793 34.0118 58.5577 33.6474C60.1269 31.8067 61.8768 31.508 63.8867 32.7688C64.3165 33.0139 64.7594 33.2353 65.2135 33.4322Z" fill="#35B5BC"/>
<path d="M73.5268 24.8479V25.4542C73.2183 25.7792 72.9274 26.3635 72.5924 26.3899C71.583 26.4602 70.4281 26.5876 69.5774 26.179C68.9206 25.8583 69.5774 24.1801 70.6397 23.776C71.843 23.3015 72.8965 23.5914 73.5268 24.8479Z" fill="#E1C20C"/>
<path d="M73.5268 24.8479C72.8964 23.5914 71.843 23.3015 70.6308 23.776C69.5906 24.1801 68.9118 25.8583 69.5685 26.179C70.4192 26.5876 71.5741 26.4602 72.5835 26.3899C72.9185 26.3635 73.2094 25.7793 73.5179 25.4542C73.5179 25.7617 73.6766 26.1439 73.5444 26.3592C72.7995 27.5629 69.5774 27.765 68.8368 26.5612C68.5547 26.1219 68.7619 25.173 69.0352 24.5931C69.8551 22.8622 71.7372 22.3218 73.1565 23.4025C73.4694 23.6222 73.4166 24.3515 73.5268 24.8479Z" fill="#44AD67"/>
<path d="M95.2132 16.9665L89.148 16.615C89.148 16.514 89.148 16.4086 89.1172 16.3075L91.8324 15.7364L92.8065 16.0044C93.6837 16.1537 94.8341 15.5914 95.2132 16.9665Z" fill="#53B4A9"/>
<path d="M84.8769 23.9165L84.824 23.0642L85.1149 23.0071L85.7936 22.1285C86.3755 23.1828 85.8069 23.6222 84.8769 23.9165Z" fill="#53B4A9"/>
<path d="M88.8084 16.9577L87.3142 18.4382L88.4779 16.9006L88.8084 16.9577Z" fill="#53B4A9"/>
<path d="M86.9792 18.7897L86.3974 20.6041L86.3489 20.5601L86.3709 19.642L86.9792 18.7897Z" fill="#53B4A9"/>
<path d="M85.7935 22.1109L85.1147 22.9895L85.7098 21.4607C85.723 21.6892 85.7671 21.9 85.7935 22.1109Z" fill="#0BACBF"/>
<path d="M92.8064 16.0044L91.8323 15.7364L92.8064 16.0044Z" fill="#0BACBF"/>
<path d="M96.4384 17.52L95.8213 17.006L96.4781 17.2037L96.4384 17.52Z" fill="#53B4A9"/>
<path d="M86.3975 20.6085L85.8289 21.206C85.8994 20.9907 85.9655 20.7666 86.036 20.5602H86.349L86.3975 20.6085Z" fill="#53B4A9"/>
<path d="M88.8086 16.9577L88.478 16.9006L89.1172 16.3075C89.1172 16.4086 89.1172 16.514 89.148 16.615L88.8086 16.9577Z" fill="#0BACBF"/>
<path d="M96.4385 17.52L96.4782 17.2037C96.6765 17.4102 96.8793 17.6123 97.0776 17.8144L96.4385 17.52Z" fill="#0BACBF"/>
<path d="M86.3488 20.5469H86.0359C86.1461 20.2438 86.2607 19.9407 86.3709 19.6331C86.362 19.9538 86.3576 20.2614 86.3488 20.5469Z" fill="#0BACBF"/>
<path d="M70.7805 51.9759L70.1501 51.6639L70.7805 51.9759Z" fill="#35B5BC"/>
<path d="M75.801 54.1285L74.0378 54.4755V52.648L74.3508 52.5294C74.5712 52.8984 74.7916 53.2718 74.8841 53.4344L76.2902 53.7155L75.801 54.1285Z" fill="#DDAC1F"/>
<path d="M27.011 54.4184C26.8259 53.4607 26.5923 52.4766 28.1042 52.4635C28.1766 52.4616 28.2478 52.4831 28.3069 52.525C28.2849 52.7534 28.2672 52.9643 28.2496 53.2103L27.9323 54.4097L27.6634 54.6689H27.0066C27.0279 54.5869 27.0294 54.5011 27.011 54.4184Z" fill="#FECA09"/>
<path d="M27.6633 54.6689L27.9322 54.4097L28.968 54.3789L29.3383 54.3526L30.0656 54.7436L27.6633 54.6689Z" fill="#D9A438"/>
<path d="M35.6062 55.3367L36.6068 55.6222L36.1439 56.2944L35.6062 55.3367Z" fill="#D9A438"/>
<path d="M31.1235 55.6353L32.2916 55.0291C32.1329 55.3849 31.9786 55.7364 31.8244 56.0922L31.1235 55.6353Z" fill="#D9A438"/>
<path d="M19.0902 47.1697C19.0687 47.218 19.051 47.268 19.0373 47.3191H17.3447L18.3894 45.8034L19.3459 46.4844L19.0902 47.1697Z" fill="#7FC2B9"/>
<path d="M83.8982 30.2735C83.8982 29.2982 83.8982 28.3229 83.8982 27.3476C84.242 26.715 84.5858 26.0868 84.9252 25.4542V32.1318L83.8982 30.2735Z" fill="#53B4A9"/>
<path d="M84.9297 25.4541C84.5903 26.0867 84.2465 26.715 83.9027 27.3476C83.8101 26.7194 83.7132 26.0911 83.6206 25.4629L84.824 24.5271L84.9297 25.4541Z" fill="#0BACBF"/>
<path d="M84.8415 24.5272L83.6382 25.463C83.8586 24.8215 83.6822 23.8858 84.8063 23.9166C84.7974 24.1186 84.8107 24.3251 84.8415 24.5272Z" fill="#049CAC"/>
<path d="M85.9523 34.0429C85.6085 33.6035 85.2647 33.1642 84.9253 32.7249C85.2823 33.1774 85.6085 33.6123 85.9523 34.0429Z" fill="#53B4A9"/>
<path d="M65.8878 37.43L67.5275 38.1856C67.0559 36.8413 66.7738 36.0242 66.4872 35.2026C67.6597 35.9539 67.8096 37.1356 68.03 38.2779L66.0862 39.0247L64.9622 38.559C64.9622 38.1988 64.993 37.8386 65.0062 37.4783L65.8878 37.43Z" fill="#049CAC"/>
<path d="M65.0063 37.4651C65.0063 37.8254 64.9799 38.1856 64.9622 38.5458L64.1248 37.7155L65.0063 37.4651Z" fill="#35B5BC"/>
<path d="M52.3559 35.8484C52.1532 36.6128 51.9489 37.3743 51.7432 38.1329L50.5046 35.5541L50.8132 35.2246L52.3559 35.8484Z" fill="#35B5BC"/>
<path d="M48.8606 29.408V28.8237L49.2353 29.1884L48.8606 29.408Z" fill="#7FC2B9"/>
<path d="M49.698 36.4019L49.3674 35.8264L49.698 36.4019Z" fill="#7FC2B9"/>
<path d="M85.1236 38.2779L83.96 36.4151L85.1236 38.2779Z" fill="#039CAC"/>
<path d="M11.2929 24.76C11.2577 24.8479 11.2224 24.9314 11.1827 25.0148C11.099 24.9797 10.9668 24.9621 10.9447 24.9006C10.9227 24.8391 11.002 24.7337 11.0373 24.6502L11.2929 24.76Z" fill="#039CAC"/>
<path d="M10.6229 25.6782C10.6626 25.6782 10.7287 25.7045 10.7287 25.7177C10.7236 25.7623 10.7102 25.8055 10.689 25.8451C10.6538 25.8451 10.5876 25.8188 10.5876 25.8056C10.5911 25.7613 10.6031 25.718 10.6229 25.6782Z" fill="#039CAC"/>
<path d="M48.7371 41.3136C47.7144 41.2081 47.8114 40.4745 47.8555 39.7628C48.1508 40.2812 48.4417 40.7996 48.7371 41.3136Z" fill="#039CAC"/>
<path d="M47.2385 30.3526L48.0981 28.7798L47.2385 30.3526Z" fill="#039CAC"/>
<path d="M47.816 38.8753L47.2341 38.2427L47.816 38.8753Z" fill="#039CAC"/>
<path d="M48.1289 27.8967L48.411 27.5804L48.1289 27.8967Z" fill="#039CAC"/>
<path d="M29.3385 54.3745L28.9682 54.4009L28.2498 53.2323C28.2498 53.0038 28.285 52.793 28.3071 52.547H30.7314C31.1721 53.2455 31.1721 53.7419 30.176 53.8649C29.8807 53.9044 29.6206 54.1812 29.3385 54.3745Z" fill="#F9DB9D"/>
<path d="M67.3867 43.7342C67.7614 44.4151 68.0964 45.0873 67.1399 45.5925C67.2104 44.9731 67.3074 44.3536 67.3867 43.7342Z" fill="#049CAC"/>
<path d="M45.1227 4.09883L45.0698 4.75781L44.5938 4.47225L45.1227 4.09883Z" fill="#039CAC"/>
<path d="M45.5372 0.294327C45.5569 0.330788 45.5672 0.371551 45.5672 0.412951C45.5672 0.454352 45.5569 0.495102 45.5372 0.531563H45.3653L44.4441 0.443694L45.5372 0.294327Z" fill="#1FAFBE"/>
<path d="M44.4395 0.439301L45.3607 0.527156L44.3513 0.707279C44.374 0.615908 44.4035 0.526343 44.4395 0.439301Z" fill="#039CAC"/>
<path d="M45.9823 1.07632C46.0129 1.14999 46.0264 1.22957 46.022 1.30916L45.6958 1.72212L45.9823 1.07632Z" fill="#1FAFBE"/>
<path d="M44.4572 6.23834C44.4572 6.34817 44.4572 6.45362 44.4572 6.56345C44.4484 6.45362 44.4528 6.34817 44.4572 6.23834Z" fill="#039CAC"/>
<path d="M19.0725 47.7144L18.1248 48.9445C17.9882 48.6458 17.8471 48.3427 17.7061 48.0439L19.0725 47.7144Z" fill="#039CAC"/>
<path d="M66.1831 49.8232L66.8311 50.4338L66.2272 50.4031C66.2095 50.2098 66.1963 50.0165 66.1831 49.8232Z" fill="#35B5BC"/>
<path d="M22.7576 45.5881L20.8887 46.7875L22.7576 45.5881Z" fill="#039CAC"/>
<path d="M31.3044 33.9857C31.7143 34.5964 31.9303 35.1719 31.009 35.5365C31.106 35.0181 31.203 34.4997 31.3044 33.9857Z" fill="#039CAC"/>
<path d="M30.7002 16.6238C30.7752 15.3058 31.5289 14.5019 32.7895 14.5326C33.234 14.5508 33.6588 14.7196 33.9939 15.0112C34.3289 15.3028 34.554 15.6997 34.632 16.1361L30.687 16.593L30.7002 16.6238Z" fill="#5C2D48"/>
<path d="M30.6872 16.5931L30.3743 16.8259L30.7005 16.6107L30.6872 16.5931Z" fill="#5C2D48"/>
<path d="M38.0042 23.3059C38.4995 22.6745 39.1896 22.2232 39.9679 22.0215C40.7462 21.8198 41.5694 21.879 42.3106 22.19C42.4734 22.2779 42.6125 22.4037 42.7161 22.5566C42.8197 22.7096 42.8847 22.8852 42.9056 23.0686C42.8347 23.5878 42.5799 24.0646 42.1872 24.4129C41.3982 24.9665 38.6345 24.1406 38.0042 23.3059Z" fill="#E5D309"/>
<path d="M65.8436 34.3416C65.6453 34.1219 65.4425 33.9023 65.2441 33.6782L65.8436 34.3416Z" fill="#049CAC"/>
<path d="M28.2497 53.2103L28.9682 54.3789L27.9324 54.4097L28.2497 53.2103Z" fill="#EEB729"/>
</g>
<defs>
<clipPath id="clip0">
<rect width="154" height="64" fill="white"/>
</clipPath>
</defs>
</svg>
