<svg width="38" height="52" viewBox="0 0 38 52" fill="none" xmlns="http://www.w3.org/2000/svg">
<path d="M37.7587 25.3635V25.9859C37.5431 26.1125 37.2327 26.181 37.117 26.3709C35.5707 28.7653 34.261 31.3549 32.4674 33.5436C30.1199 36.5129 27.5131 39.2663 24.6778 41.7712C20.9223 44.9778 16.3937 46.982 11.7703 48.6591C9.30879 49.5557 6.77887 50.2413 4.12797 51.101C3.89128 50.4576 3.60199 49.7983 3.40212 49.1127C2.79199 46.9661 2.25551 44.7985 1.60856 42.6625C1.46655 42.1878 0.982656 41.8186 0.656553 41.4073C0.393566 34.5035 0.325189 27.5945 1.7085 20.7909C2.45926 16.8635 3.45885 12.988 4.70126 9.18798C5.82684 5.83368 7.57836 2.6745 11.0445 1.10283C13.9058 -0.199868 16.4883 0.760022 18.3818 3.25466C21.1274 6.86212 21.4167 11.0234 21.301 15.2637C21.2221 18.233 20.8645 21.1918 20.6435 24.1558C20.612 24.5514 20.6435 24.9522 20.6435 25.3477L21.038 25.5956C21.564 24.9574 22.09 24.3509 22.5633 23.6706C24.967 20.0104 28.3385 17.6107 32.3307 15.9599C34.7659 14.9367 37.5536 17.6581 37.7535 20.0895C37.8849 21.7508 37.7535 23.428 37.7535 25.0998C37.7166 25.1262 37.6483 25.1631 37.6535 25.179C37.6849 25.2425 37.7201 25.3041 37.7587 25.3635V25.3635Z" fill="#FB1F53"/>
</svg>
