<svg width="157" height="151" viewBox="0 0 157 151" fill="none" xmlns="http://www.w3.org/2000/svg">
<path d="M72.8219 118.962H44.1953V98.6742C43.1301 96.5004 42.5723 94.103 42.5723 91.6642C42.5723 82.8768 49.7214 75.7277 58.5088 75.7277C67.2962 75.7277 74.4453 82.8765 74.4453 91.6642C74.4453 92.0924 74.4218 92.5187 74.3877 92.9432H113.764C116.025 87.1293 117.017 81.509 117.017 75.9101C117.017 58.6881 103.312 44.6686 86.2129 44.1606V27.7044C86.2129 12.4281 73.785 0 58.5088 0C43.2325 0 30.8047 12.4281 30.8047 27.7044V44.1606C13.7057 44.6686 0 58.6881 0 75.9101C0 97.2229 14.3507 118.846 58.5085 150.301C85.1 131.358 100.879 115.982 109.227 102.092H72.8219V118.962ZM39.9535 27.7047C39.9535 17.4733 48.2771 9.1494 58.5085 9.1494C68.7399 9.1494 77.0635 17.4733 77.0635 27.7047V45.2115C69.3166 47.2728 62.7332 52.1874 58.5085 58.7625C54.2837 52.1874 47.7003 47.2728 39.9535 45.2115V27.7047Z" fill="#250250"/>
<path d="M151.116 97.5178C154.141 95.5743 156.145 92.1796 156.145 88.3169C156.145 82.2812 151.252 77.3883 145.216 77.3883C138.677 77.3883 132.052 81.3212 123.021 92.943H113.764C112.601 95.9335 111.101 98.9756 109.227 102.092H123.021C132.052 113.714 138.677 117.647 145.216 117.647C151.252 117.647 156.145 112.754 156.145 106.718C156.145 102.856 154.141 99.4614 151.116 97.5178Z" fill="#250250"/>
<path d="M58.5085 84.8767C54.7659 84.8767 51.7211 87.9215 51.7211 91.6641C51.7211 92.096 51.7644 92.5238 51.8446 92.9432H65.1724C65.2526 92.5235 65.2959 92.0957 65.2959 91.6641C65.2959 87.9215 62.2511 84.8767 58.5085 84.8767Z" fill="#250250"/>
<path d="M53.3444 102.092H63.6728V109.813H53.3444V102.092Z" fill="#250250"/>
</svg>
