<svg width="1440" height="1628" viewBox="0 0 1440 1628" fill="none" xmlns="http://www.w3.org/2000/svg">
<path d="M1439.32 1.96881C1439.32 511.171 1439.32 1020.36 1439.32 1530.39C1427.05 1532.97 1414.56 1536.31 1401.83 1538.11C1380.82 1541.06 1359.73 1543.72 1338.58 1545.16C1319.74 1546.46 1300.69 1547.23 1281.89 1545.96C1258.21 1544.36 1234.54 1541.26 1211.1 1537.37C1163.59 1529.47 1118.47 1514.03 1076.32 1490.58C1040.19 1470.47 1008.55 1445.06 984.431 1410.94C968.996 1389.12 959.122 1365.04 956.424 1338.6C954.796 1322.71 955.715 1306.52 956.002 1290.49C956.167 1280.54 957.072 1270.59 958.037 1260.68C959.077 1250.03 960.901 1239.43 961.82 1228.76C962.875 1216.53 963.539 1204.28 963.946 1192.02C964.262 1182.63 964.503 1173.18 963.765 1163.83C961.986 1141.06 956.936 1119.12 943.641 1099.96C933.33 1085.12 919.869 1073.68 904.448 1064.34C887.339 1053.99 868.994 1046.23 849.82 1041.25C827.058 1035.34 803.874 1030.79 780.66 1026.86C761.229 1023.57 741.513 1021.85 721.886 1019.76C701.581 1017.58 681.186 1016.14 660.927 1013.7C640.893 1011.28 620.935 1008.1 600.977 1005.09C570.648 1000.51 541.374 991.778 512.749 981.03C489.55 972.317 467.345 961.358 446.392 948.018C430.519 937.903 415.219 926.974 402.014 913.483C382.463 893.495 369.243 869.633 361.736 842.861C358.285 830.561 356.099 817.793 354.682 805.085C353.717 796.523 354.531 787.615 355.556 778.977C358.33 755.657 365.143 733.468 376.072 712.651C390.588 685.005 410.215 662.47 439.594 649.732C455.196 642.964 471.446 638.532 488.148 635.773C505.211 632.954 522.321 630.497 539.43 627.995C549.65 626.503 559.976 625.659 570.105 623.714C594.435 619.026 618.101 612.514 637.758 596.204C651.958 584.416 660.429 569.116 665.072 551.509C669.112 536.224 670.559 520.622 671.102 504.84C671.705 487.821 672.066 470.697 674.328 453.859C675.865 442.433 677.749 430.917 681.427 419.671C690.713 391.347 706.269 367.44 728.187 347.482C752.788 325.067 781.444 310.384 813.793 303.028C838.273 297.466 862.949 297.707 887.535 302.305C913.463 307.158 939.269 312.706 965.197 317.499C978.04 319.881 991.034 322.685 1004 322.805C1027.09 323.016 1050.32 321.78 1071.41 310.384C1088.11 301.37 1100.67 288.798 1107.66 270.513C1112.47 257.927 1115.35 245.234 1116.34 231.909C1117.46 216.91 1118.44 201.881 1120.32 186.973C1122.69 168.372 1124.51 149.619 1132.46 132.149C1139.75 116.11 1151.06 103.613 1166.45 95.7296C1178.59 89.504 1191.67 84.8611 1204.71 80.7158C1223.78 74.656 1243.71 72.832 1263.51 70.6915C1281.07 68.8073 1298.7 67.2697 1316.18 64.7373C1329.27 62.8379 1342.27 60.0492 1355.13 56.9138C1384.29 49.7989 1408.57 34.4233 1428.53 12.0986C1431.75 8.49589 1435.04 4.96855 1438.31 1.41107C1438.64 1.59196 1438.98 1.77285 1439.32 1.96881Z" fill="#EC4C5C"/>
<path d="M533.928 580.527C531.199 579.019 525.968 577 521.793 573.653C512.115 565.875 506.9 555.142 503.252 543.445C499.438 531.174 499.227 519.266 505.558 507.81C514.512 491.575 534.651 482.877 555.921 490.836C565.553 494.439 573.964 499.489 576.15 510.448C576.874 514.095 576.663 518.497 575.261 521.874C568.93 537.159 562.297 552.338 555.182 567.277C551.609 574.738 545.746 580.15 533.928 580.527Z" fill="#EC4C5D"/>
<path d="M602.756 174.431C602.801 186.008 593.35 195.565 581.848 195.565C571.447 195.565 560.865 187.802 560.699 174.281C560.563 163.035 570.015 153.915 581.622 153.855C593.636 153.81 602.711 162.643 602.756 174.431Z" fill="#EC4D5D"/>
<path d="M1439.2 0.672424C1439.32 0.823165 1439.52 0.943758 1439.5 1.06435C1439.5 1.18494 1439.29 1.29046 1439.19 1.39598C1439.08 1.27539 1438.9 1.1548 1438.9 1.0342C1438.91 0.898536 1439.1 0.793017 1439.2 0.672424Z" fill="#EE6A76"/>
</svg>
