<svg width="1075" height="1533" viewBox="0 0 1075 1533" fill="none" xmlns="http://www.w3.org/2000/svg">
<path d="M-1 14.6056C15.3573 11.5428 31.5991 8.04674 48.0286 5.51856C60.3833 3.64049 72.9114 2.70145 85.3962 1.87799C100.395 0.910059 115.438 -0.28902 130.437 0.0721484C148.961 0.519997 167.472 2.15248 185.939 3.81385C243.006 8.70649 298.535 24.8715 349.31 51.3725C387.14 71.1645 420.418 96.6485 445.85 131.465C457.612 147.573 466.585 164.938 471.571 184.441C477.076 206.01 477.712 227.897 476.7 249.827C475.992 265.184 473.565 280.469 472.076 295.797C471.181 305.028 470.342 314.274 469.981 323.534C469.259 342.315 467.987 361.096 468.536 379.877C469.259 403.107 475.385 425.153 488.939 444.468C500.398 460.807 515.686 472.957 533.113 482.506C552.598 493.089 573.455 500.926 595.089 505.794C614.538 510.244 634.104 514.188 653.828 517.496C668.408 519.952 683.219 521.122 697.929 522.726C716.232 524.719 734.535 526.646 752.839 528.505C766.942 529.949 781.088 530.989 795.162 532.651C806.13 533.936 817.054 535.699 827.921 537.649C853.354 542.224 878.408 548.7 902.872 557.022C933.318 567.381 962.305 580.802 989.066 598.586C1001.51 606.732 1013.25 615.914 1024.15 626.034C1046.48 647.083 1061 672.972 1068.57 702.833C1072.31 717.554 1075.09 732.348 1074.96 747.531C1074.81 762.975 1071.82 778.043 1067.98 792.937C1060.81 821.537 1046.11 847.696 1025.41 868.696C1009.63 884.674 989.818 894.483 968.172 899.785C951.366 903.903 934.243 906.778 917.149 909.58C900.401 912.325 883.48 913.914 866.719 916.688C845.636 920.112 825.132 925.501 806.289 936.119C790.102 945.159 777.459 959.419 770.424 976.57C764.499 990.544 761.169 1005.48 760.598 1020.65C759.847 1037.23 759.153 1053.87 757.535 1070.37C756.297 1085.36 754.116 1100.25 751.003 1114.95C745.758 1137.93 734.531 1158.19 719.214 1176.14C689.331 1211.11 651.126 1231.24 606.244 1239.49C587.998 1242.65 569.329 1242.48 551.146 1238.97C526.047 1234.43 501.106 1229.04 476.093 1224.09C453.407 1219.59 430.576 1216.56 407.398 1217.93C380.131 1219.53 355.538 1227.55 337.085 1248.95C332.984 1253.84 329.539 1259.25 326.84 1265.04C320.063 1279.16 316.913 1294.35 315.28 1309.83C313.647 1325.82 313.069 1341.94 311.104 1357.89C309.457 1371.3 307.694 1384.92 303.879 1397.81C296.076 1423.94 277.364 1440.38 252.596 1450.42C235.266 1457.4 217.09 1462.06 198.539 1464.28C175.708 1467.17 152.82 1469.36 129.989 1472.14C103.502 1475.34 77.2897 1480.01 52.6671 1490.92C34.3734 1499.02 19.4322 1511.73 5.83482 1526.21C3.62398 1528.56 1.25419 1530.76 -1.0578 1533.04L-1 14.6056Z" fill="#EC4C5C"/>
</svg>
