<svg width="81" height="81" viewBox="0 0 81 81" fill="none" xmlns="http://www.w3.org/2000/svg">
<g clip-path="url(#clip0)">
<path d="M72.8193 41.8556C72.4281 40.0772 71.5608 38.5858 70.2203 37.3809C68.8787 36.1759 67.3347 35.4676 65.5864 35.2566C60.042 34.654 51.6801 34.3529 40.4997 34.3529C29.3196 34.3529 20.9725 34.6542 15.4578 35.2566C13.6804 35.4676 12.1285 36.1759 10.8022 37.3809C9.47608 38.5863 8.60216 40.0778 8.18008 41.8556C7.39672 45.3517 7.00488 50.625 7.00488 57.6765C7.00488 64.8482 7.39672 70.1219 8.18008 73.4973C8.57239 75.2744 9.43887 76.767 10.7798 77.9715C12.1208 79.1769 13.6652 79.8699 15.4127 80.0509C20.958 80.6837 29.3205 81.0001 40.5 81.0001C51.6787 81.0001 60.0428 80.6837 65.586 80.0509C67.3343 79.8699 68.8708 79.1769 70.1972 77.9715C71.5235 76.7672 72.3974 75.2744 72.819 73.4973C73.6023 70.0011 73.9946 64.7279 73.9946 57.6765C73.9945 50.5047 73.6022 45.2308 72.8193 41.8556ZM26.1266 46.4218H21.2901V72.1406H16.7703V46.4218H12.0239V42.173H26.1267V46.4218H26.1266ZM38.3306 72.1406H34.3077V69.6992C32.6805 71.5381 31.1431 72.457 29.6967 72.457C28.3107 72.457 27.4367 71.8991 27.0755 70.7845C26.8347 70.0613 26.7136 68.9608 26.7136 67.4845V49.8113H30.7365V66.2643C30.7365 67.2282 30.7517 67.7559 30.7821 67.8464C30.8725 68.4792 31.1887 68.7955 31.7314 68.7955C32.5448 68.7955 33.4042 68.1627 34.3079 66.8971V49.8113H38.3307V72.1406H38.3306ZM53.699 65.4506C53.699 67.6503 53.5636 69.1579 53.2937 69.9718C52.7801 71.6282 51.7112 72.457 50.0841 72.457C48.6376 72.457 47.2366 71.6282 45.8798 69.9718V72.1411H41.8576V42.173H45.8798V51.9816C47.1763 50.3552 48.5769 49.5415 50.0841 49.5415C51.7112 49.5415 52.7801 50.3855 53.2937 52.0727C53.5635 52.856 53.699 54.3475 53.699 56.5474V65.4506ZM68.9771 61.7447H60.8864V65.6771C60.8864 67.7565 61.5788 68.7955 62.9652 68.7955C63.9593 68.7955 64.5625 68.2538 64.7732 67.168C64.8328 66.8669 64.8636 65.948 64.8636 64.4114H68.9769V64.9987C68.9769 66.4757 68.946 67.3491 68.8863 67.621C68.7966 68.4336 68.4811 69.2474 67.9372 70.0611C66.8524 71.6584 65.2238 72.457 63.0545 72.457C60.9763 72.457 59.3488 71.6883 58.1731 70.1522C57.2996 69.0371 56.863 67.2893 56.863 64.9087V57.0884C56.863 54.7079 57.2845 52.96 58.1275 51.845C59.3033 50.3085 60.9155 49.5402 62.9652 49.5402C64.9846 49.5402 66.5828 50.3085 67.7564 51.845C68.5711 52.96 68.9771 54.7079 68.9771 57.0884V61.7447Z" fill="white"/>
<path d="M47.9126 53.2018C47.2191 53.2018 46.5419 53.5344 45.8787 54.1965V67.8015C46.5417 68.4642 47.2191 68.7955 47.9126 68.7955C49.0871 68.7955 49.6762 67.7867 49.6762 65.7669V56.2304C49.6761 54.2111 49.0884 53.2018 47.9126 53.2018Z" fill="white"/>
<path d="M62.9201 53.2018C61.5642 53.2018 60.8862 54.2269 60.8862 56.2748V58.3541H64.9539V56.2748C64.9539 54.2258 64.2757 53.2018 62.9201 53.2018Z" fill="white"/>
<path d="M23.5062 18.0352V30.2851H28.026V18.0352L33.4945 0H28.8841L25.8112 11.888L22.6016 0H17.8105C18.6544 2.53151 19.6337 5.34879 20.7488 8.45278C22.1653 12.611 23.0838 15.8057 23.5062 18.0352Z" fill="white"/>
<path d="M39.5512 30.6015C41.6306 30.6015 43.2272 29.8331 44.3423 28.2963C45.1864 27.1812 45.6078 25.4032 45.6078 22.9627V15.0521C45.6078 12.6417 45.1853 10.8784 44.3423 9.76334C43.2272 8.22655 41.6306 7.45807 39.5512 7.45807C37.5317 7.45807 35.9495 8.22655 34.8048 9.76334C33.9615 10.8784 33.5396 12.6417 33.5396 15.0521V22.9625C33.5396 25.3729 33.961 27.1511 34.8048 28.2961C35.9499 29.8331 37.5316 30.6015 39.5512 30.6015ZM37.6072 14.2384C37.6072 12.159 38.2552 11.1193 39.5512 11.1193C40.8472 11.1193 41.4946 12.159 41.4946 14.2384V23.7304C41.4946 25.8404 40.8472 26.8944 39.5512 26.8944C38.2552 26.8944 37.6072 25.8398 37.6072 23.7304V14.2384Z" fill="white"/>
<path d="M51.9805 30.6015C53.4882 30.6015 55.0405 29.6673 56.6372 27.7985V30.2846H60.7504V7.72942H56.6372V24.9508C55.7328 26.2468 54.8746 26.8942 54.0599 26.8942C53.517 26.8942 53.2005 26.5628 53.1106 25.8999C53.0804 25.8396 53.0652 25.3118 53.0652 24.3177V7.72942H48.9519V25.539C48.9519 27.0755 49.0733 28.2051 49.3138 28.9287C49.706 30.0438 50.5946 30.6015 51.9805 30.6015Z" fill="white"/>
</g>
<defs>
<clipPath id="clip0">
<rect width="81" height="81" fill="white"/>
</clipPath>
</defs>
</svg>
