<?xml version="1.0" encoding="utf-8"?>
<!-- Generator: Adobe Illustrator 24.2.0, SVG Export Plug-In . SVG Version: 6.00 Build 0)  -->
<svg version="1.1" id="Layer_1" xmlns="http://www.w3.org/2000/svg" xmlns:xlink="http://www.w3.org/1999/xlink" x="0px" y="0px"
	 viewBox="0 0 512 512" style="enable-background:new 0 0 512 512;" xml:space="preserve">
<style type="text/css">
	.st0{fill:#FFFFFF;}
</style>
<g>
	<path class="st0" d="M200.8,364c-9.6-8.2-26-17.9-49.1-17.9h-0.8v-23.8c7.2-5.6,13.6-12.9,19-21.8c7.1-11.7,11-23.3,12.7-29.5
		c6.7-1.8,14.7-6.6,14.7-17.1c0-7.6-4.1-12.8-8.7-16c0-0.2,0-0.5,0-0.7c0-2.8-1.3-4.8-3.3-6.2v-32.4c0-15.2-8.8-31.6-24.2-44.9
		c-14.6-12.6-32.4-20.2-47.6-20.2c-31.9,0-69.6,34.1-69.6,62.9c0,16.9,0.4,31.2,0.6,38.5c-5.7,2.7-12.2,8.8-12.2,21.8
		c0,7.6,2.3,13.2,6.7,16.9c2.5,2,5.1,3,7.5,3.5c1.4,6,4.3,16,10.1,26c5.8,10,13.1,17.9,21.8,23.3v20.2c-10,1-24.2,3.8-36.9,8.3
		C19.2,362.7,8,373.1,8,385.7v45.6h209.6v-44.9C217.6,381.6,208.7,370.7,200.8,364z M125.3,211c2.7,3.9,8.2,10.4,18.1,16.8
		c-0.9-0.2-1.9-0.4-2.8-0.6c-14.5-3.3-25.9-7.8-32.8-12.7C114,213.5,119.9,212.3,125.3,211z M139.1,206.9
		c13.5-4.7,23.9-10.9,31.1-18.4c1.1,3.3,1.7,6.7,1.7,10.1v27.6C153.6,220.4,143.8,212.2,139.1,206.9z M113.5,146.8
		c16.7,0,38.2,12.8,49.9,28.9c-17.7,24.6-76.6,29.3-106.1,29c0-2.7,0-5.6,0-8.5C57.3,175,89.4,146.8,113.5,146.8z M68.4,296.6
		c-7.8-13.3-9.6-26.9-9.7-27.1l-0.9-7.1l-7,1.4c0,0-2.1,0.2-3.3-0.7c-1.2-0.9-1.8-3.3-1.8-6.5c0-8.6,4.1-10,5.9-10.2l6.7,0.2
		l-0.3-7.1c0-0.1-0.3-8.5-0.6-21.3c0.4,0,0.8,0,1.2,0c7.6,0,19.2-0.3,32.2-1.5c8.8,12.6,30,19.8,46.7,23.6c12,2.7,24.9,4.5,34.2,4.8
		l0,0.6l5.1,1.3c0.3,0.1,7,1.9,7,7c0,4-7.1,4.5-7.2,4.5l-5.2,0.3l-1,5.1c0,0.2-3.2,15.2-12.3,30c-11.6,18.8-27.2,28.3-46.3,28.3
		C93,322.1,78.3,313.5,68.4,296.6z M112,335.5c9.1,0,17.6-1.8,25.5-5.2v15.8H91.8v-13.6C98.1,334.5,104.8,335.5,112,335.5z
		 M204.2,418H21.4v-32.2c0-6,9.2-12.8,24.6-18.3c15.4-5.5,32.2-7.9,39.1-7.9h66.6c33.6,0,49.8,24.1,52.5,28.5V418z"/>
	<path class="st0" d="M490.6,364c-6.6-5.6-16.5-12-29.5-15.4c7.2-7.9,13-15.7,15.8-22.4c8.4-20.5,0.2-37.5-7.4-46.1
		c1.3-3.6,2.2-6.7,2.9-9c6.7-1.8,14.7-6.6,14.7-17.1c0-9.4-6.3-15.1-12-18v-37.4c0-15.2-8.8-31.6-24.2-44.9
		c-14.6-12.6-32.4-20.2-47.6-20.2c-31.9,0-69.6,34.1-69.6,62.9c0,16.9,0.4,31.2,0.6,38.5c-5.7,2.7-12.2,8.8-12.2,21.8
		c0,7.6,2.3,13.2,6.7,16.9c2.4,1.9,4.9,2.9,7.2,3.4c-1.7,4.7-4.5,14.2-4.8,26.1c-0.3,12.7,2.3,30.3,14.6,47.5
		c-4.9,1.2-9.9,2.7-14.7,4.4c-22.2,7.9-33.5,18.3-33.5,30.9v45.6h209.6v-44.9C507.4,381.6,498.5,370.7,490.6,364z M464.5,321
		c-2.8,6.9-10.4,15.9-19.8,25.1c-1.1,0-2.2-0.1-3.3-0.1h-0.8v-23.8c7.2-5.6,13.6-12.9,19-21.8c1.3-2.1,2.4-4.1,3.5-6.2
		C466.6,300.3,469.3,309.5,464.5,321z M401.8,335.5c9.1,0,17.6-1.8,25.5-5.2v15.8h-45.8v-13.6C387.9,334.5,394.6,335.5,401.8,335.5z
		 M374.9,359.5h20.3v22.2l-22.6-22.1C373.4,359.5,374.2,359.5,374.9,359.5z M408.5,359.5h21.9c-7.5,6.6-15.2,12.9-21.9,18.2V359.5z
		 M461.8,230.8c-10.9-0.5-33.4-3.5-45.8-19.7c14.7-8.7,28.5-19.9,38.2-34.2c4.7,6.9,7.6,14.3,7.6,21.6V230.8z M403.3,146.8
		c13.3,0,29.7,8.1,41.7,19.6c-22.2,36.8-79.9,53.1-97.6,57.4c-0.2-7.4-0.3-16.9-0.3-27.4C347.1,175,379.2,146.8,403.3,146.8z
		 M341.4,246.4l6.7,0.2l-0.3-7.1c0,0,0-0.7-0.1-2c8.5-1.9,32.2-7.7,56.3-19.8c15.7,22.4,44.3,26.1,57.6,26.6l0,1.5l5.1,1.3
		c0.3,0.1,7,1.9,7,7c0,4-7.1,4.5-7.2,4.5l-5.2,0.3l-1,5.1c0,0.2-3.2,15.2-12.3,30c-11.6,18.8-27.2,28.3-46.3,28.3
		c-19,0-33.7-8.6-43.6-25.5c-7.8-13.3-9.6-26.9-9.7-27.1l-0.9-7.1l-7,1.4c0,0-2.1,0.2-3.3-0.7c-1.2-0.9-1.8-3.3-1.8-6.5
		C335.5,248,339.6,246.6,341.4,246.4z M344.7,303.8c0-1.3,0.1-2.5,0.2-3.7c0.5,1,1,1.9,1.6,2.9c5.8,10,13.1,17.9,21.8,23.3v20.2
		c-2.3,0.2-4.9,0.6-7.6,1C349.8,334.8,344.4,320.1,344.7,303.8z M311.2,385.7c0-6,9.2-12.8,24.6-18.3c6.7-2.4,13.7-4.2,20.1-5.5
		c0,0,0.1,0.1,0.1,0.1l39.2,38.4V418h-84V385.7z M494,418h-85.4v-23.4c9.4-7,26.4-20.3,41.3-34.6c28,3.5,41.7,23.9,44.2,28V418z"/>
</g>
</svg>
