<?xml version="1.0" encoding="utf-8"?>
<!-- Generator: Adobe Illustrator 24.2.0, SVG Export Plug-In . SVG Version: 6.00 Build 0)  -->
<svg version="1.1" id="Layer_1" xmlns="http://www.w3.org/2000/svg" xmlns:xlink="http://www.w3.org/1999/xlink" x="0px" y="0px"
	 viewBox="-703 285 512 512" style="enable-background:new -703 285 512 512;" xml:space="preserve">
<style type="text/css">
	.st0{fill:#FFFFFF;}
</style>
<path class="st0" d="M-450.8,445.9c-22.1,0-40,17.9-40,40s17.9,40,40,40s40-17.9,40-40C-410.8,463.8-428.7,445.9-450.8,445.9z
	 M-428.2,477.9h-14.5v-14.5C-436,465.7-430.7,471.1-428.2,477.9z M-458.8,463.3v14.5h-14.5C-470.9,471.1-465.5,465.7-458.8,463.3z
	 M-473.3,493.9h14.5v14.5C-465.5,506-470.9,500.6-473.3,493.9z M-442.8,508.4v-14.5h14.5C-430.7,500.6-436,506-442.8,508.4z"/>
<path class="st0" d="M-296.5,517.6c1.9,0,3.8-0.2,5.6-0.6c6.9-1.7,12.7-6.3,15.8-12.6l1.4-2.8c5.3-10.5,2.1-23.3-7.4-30.2
	l-17.8-12.9v-62.1c12.5-4.5,18.9-18.3,14.4-30.7c-3.4-9.4-12.3-15.7-22.4-15.8h-48c-13.2,0-24,10.8-24,24c0,10.1,6.4,19.1,15.9,22.5
	v15.6l-73.8-53.7c-8.4-6.2-19.8-6.2-28.2,0l-155.7,113.1c-9.5,6.9-12.6,19.7-7.4,30.2l1.4,2.8c3.2,6.3,9,11,15.8,12.6
	c2.6,0.6,5.2,0.7,7.8,0.4v160.5c-13.3,0-24,10.7-24,24s10.7,24,24,24h304c13.3,0,24-10.7,24-24s-10.7-24-24-24V517.5
	C-298,517.5-297.3,517.6-296.5,517.6z M-354.8,365.9h48c4.4,0,8,3.6,8,8s-3.6,8-8,8h-48c-4.4,0-8-3.6-8-8S-359.2,365.9-354.8,365.9z
	 M-314.8,397.9v49l-32.1-23.4v-25.7H-314.8z M-290.8,701.9c0,4.4-3.6,8-8,8h-304c-4.4,0-8-3.6-8-8s3.6-8,8-8h304
	C-294.3,693.9-290.8,697.4-290.8,701.9z M-338.8,549.9h-128c-4.4,0-8,3.6-8,8v120h-16v-88c0-22.1-17.9-40-40-40
	c-22.1,0-40,17.9-40,40v88h-16V510l131.2-97.5c2.9-2.1,6.7-2.1,9.6,0l131.2,97.5v167.8h-16v-120
	C-330.8,553.4-334.3,549.9-338.8,549.9z M-380.5,646.8c1.2-2.8,1.7-5.9,1.8-9v-9.4c9.6-3.4,16-12.5,16-22.6v-16c0-4.4-3.6-8-8-8h-32
	c-13.2,0-24,10.8-24,24v32c0,3.1,0.6,6.1,1.8,9c-10.4,2.8-17.7,12.2-17.8,23v8h-16v-112h112v112h-16v-8
	C-362.8,659-370.1,649.6-380.5,646.8z M-394.8,629.9v8c0,4.4-3.6,8-8,8s-8-3.6-8-8v-8H-394.8z M-410.8,613.9v-8c0-4.4,3.6-8,8-8h24
	v8c0,4.4-3.6,8-8,8H-410.8z M-386.8,661.9c4.4,0,8,3.6,8,8v8h-48v-8c0-4.4,3.6-8,8-8H-386.8z M-506.8,589.9v88h-48v-88
	c0-13.3,10.7-24,24-24S-506.8,576.6-506.8,589.9z M-301.3,500l-135.1-100.3c-8.5-6.4-20.2-6.4-28.6,0L-600.2,500
	c-1.9,1.5-4.3,2-6.6,1.4c-2.3-0.5-4.2-2-5.3-4.2l-1.4-2.8c-1.8-3.5-0.7-7.8,2.5-10.1l155.6-113.2c2.8-2,6.6-2,9.4,0l155.6,113.2
	c3.2,2.3,4.2,6.6,2.5,10.1l-1.4,2.8c-1,2.1-3,3.6-5.3,4.2C-297,502-299.5,501.5-301.3,500z"/>
</svg>
