<?xml version="1.0" encoding="utf-8"?>
<!-- Generator: Adobe Illustrator 24.2.0, SVG Export Plug-In . SVG Version: 6.00 Build 0)  -->
<svg version="1.1" id="Capa_1" xmlns="http://www.w3.org/2000/svg" xmlns:xlink="http://www.w3.org/1999/xlink" x="0px" y="0px"
	 viewBox="-811 392 297 297" style="enable-background:new -811 392 297 297;" xml:space="preserve">
<style type="text/css">
	.st0{fill:#FFFFFF;}
</style>
<path class="st0" d="M-786,668c-11.58,0-21-9.42-21-21s9.42-21,21-21h29.67v-87H-771c-2.31,0-4.33-1.87-4.33-4v-35
	c0-2.13,2.02-4,4.33-4h14.67v-40H-771c-2.31,0-4.33-1.87-4.33-4v-35c0-2.13,2.02-4,4.33-4h216c2.13,0,3.67,1.68,3.67,4v209H-539
	c11.58,0,21,9.42,21,21s-9.42,21-21,21H-786z M-786,634c-7.17,0-13,5.83-13,13s5.83,13,13,13h247c7.17,0,13-5.83,13-13
	s-5.83-13-13-13H-786z M-658.33,626h99v-87h-99v22H-588c2.13,0,3.67,1.68,3.67,4v32c0,2.32-1.54,4-3.67,4h-70.33V626z M-716.33,626
	h50v-87h-50V626z M-748.33,626h24v-87h-24V626z M-658.33,593h66v-24h-66V593z M-767.33,531h208V421h-208v27H-590
	c2.13,0,3.67,1.68,3.67,4v48c0,2.32-1.54,4-3.67,4h-177.33V531z M-659.33,496h65v-40h-65V496z M-748.33,496h81v-40h-81V496z"/>
</svg>
