<?xml version="1.0" encoding="utf-8"?>
<!-- Generator: Adobe Illustrator 24.2.0, SVG Export Plug-In . SVG Version: 6.00 Build 0)  -->
<svg version="1.1" id="Layer_1" xmlns="http://www.w3.org/2000/svg" xmlns:xlink="http://www.w3.org/1999/xlink" x="0px" y="0px"
	 viewBox="-703 285 512 512" style="enable-background:new -703 285 512 512;" xml:space="preserve">
<style type="text/css">
	.st0{fill:#FFFFFF;}
</style>
<path class="st0" d="M-238.46,535.47c1.23,0.9,2.72,1.39,4.24,1.39c1.13,0,2.24-0.27,3.25-0.77c2.41-1.23,3.93-3.7,3.93-6.41v-43.06
	c0-2.29-1.09-4.44-2.93-5.79l-215.32-157.9c-2.52-1.86-5.96-1.86-8.49,0l-215.32,157.9c-1.85,1.35-2.94,3.5-2.93,5.79v43.06
	c0,3.96,3.2,7.18,7.16,7.18c1.53,0,3.02-0.49,4.26-1.39l31.64-23.2v225.56h-35.89c-3.96,0-7.18,3.21-7.18,7.18
	c0,3.96,3.21,7.18,7.18,7.18h430.64c3.96,0,7.18-3.21,7.18-7.18c0-3.96-3.21-7.18-7.18-7.18h-35.89V512.27L-238.46,535.47z
	 M-284.46,737.83h-330.16V501.74l165.08-121.06l165.08,121.06V737.83z M-445.3,365.99c-2.53-1.85-5.96-1.85-8.49,0l-203.9,149.52
	v-25.26l208.14-152.64l208.14,152.64v25.26L-445.3,365.99z"/>
<g>
	<path class="st0" d="M-457.82,675v-24.57c-14.11-0.24-28.71-4.62-37.22-10.71l5.84-16.3c8.76,5.84,21.41,10.46,35.04,10.46
		c17.27,0,28.95-9.98,28.95-23.84c0-13.38-9.49-21.65-27.5-28.95c-24.82-9.73-40.14-20.92-40.14-42.09
		c0-20.2,14.35-35.52,36.74-39.17v-24.57h15.08v23.6c14.6,0.49,24.57,4.38,31.63,8.51l-6.08,16.06c-5.11-2.92-15.08-8.27-30.66-8.27
		c-18.74,0-25.79,11.19-25.79,20.92c0,12.65,9,18.98,30.17,27.74c25.06,10.22,37.71,22.87,37.71,44.52
		c0,19.22-13.38,37.23-38.45,41.36V675H-457.82z"/>
</g>
</svg>
