<?xml version="1.0" encoding="utf-8"?>
<!-- Generator: Adobe Illustrator 24.2.0, SVG Export Plug-In . SVG Version: 6.00 Build 0)  -->
<svg version="1.1" id="Layer_1" xmlns="http://www.w3.org/2000/svg" xmlns:xlink="http://www.w3.org/1999/xlink" x="0px" y="0px"
	 viewBox="-703 285 512 512" style="enable-background:new -703 285 512 512;" xml:space="preserve">
<style type="text/css">
	.st0{fill:#FFFFFF;}
</style>
<g>
	<path class="st0" d="M-535,549c-13.25,0-24,10.75-24,24s10.75,24,24,24s24-10.75,24-24C-511.01,559.75-521.75,549.01-535,549z
		 M-535,581c-4.42,0-8-3.58-8-8s3.58-8,8-8s8,3.58,8,8C-527,577.42-530.58,580.99-535,581z"/>
	<path class="st0" d="M-210.76,492.06c3.9,2.08,8.74,0.6,10.82-3.3c0.62-1.16,0.94-2.45,0.94-3.76v-32c0-2.96-1.63-5.67-4.24-7.06
		l-240-128c-2.35-1.25-5.17-1.25-7.52,0l-240,128c-2.61,1.39-4.24,4.1-4.24,7.06v32c0,4.42,3.58,8,8,8c1.31,0,2.6-0.32,3.76-0.94
		l12.24-6.53V669h-16c-4.42,0-8,3.58-8,8v32c0,4.42,3.58,8,8,8v40c0,4.42,3.58,8,8,8h464c4.42,0,8-3.58,8-8v-40c4.42,0,8-3.58,8-8
		v-32c0-4.42-3.58-8-8-8h-16V485.53L-210.76,492.06z M-223,749h-448v-32h448V749z M-215,685v16h-464v-16H-215z M-278.15,597.01
		l-32.85-6.57v-9.46c10.07-7.55,16-19.4,16-31.98v-32c-0.02-22.08-17.92-39.98-40-40h-16c-22.08,0.02-39.98,17.92-40,40v32
		c0.02,19,13.39,35.37,32,39.2v2.55l-25.05,6.27C-401.3,597.6-414.98,611.74-415,629v40h-81.06l-2.29-16H-451
		c15.46-0.02,27.98-12.54,28-28V521c-0.02-15.46-12.54-27.98-28-28h-168c-15.46,0.02-27.98,12.54-28,28v104
		c0.02,15.46,12.54,27.98,28,28h47.35l-2.29,16H-655V477l208-110.93L-239,477v192h-8v-40
		C-247.02,611.67-260.82,597.49-278.15,597.01z M-287,645c-4.42,0-8,3.58-8,8v16h-80v-16c0-4.42-3.58-8-8-8s-8,3.58-8,8v16h-8v-40
		c0.01-8.83,7.17-15.99,16-16c0.65,0,1.31-0.08,1.94-0.24l24.12-6.03c5.37,12.12,19.55,17.58,31.67,12.21
		c5.56-2.47,9.98-6.96,12.36-12.56l32.34,6.46c0.52,0.11,1.04,0.16,1.57,0.16c8.83,0.01,15.99,7.17,16,16v40h-16v-16
		C-279,648.58-282.58,645-287,645z M-311,529.93V549c-0.02,13.25-10.75,23.98-24,24h-16c-13.25-0.02-23.98-10.75-24-24v-8.19
		C-361.11,540.27-332.14,538.16-311,529.93z M-375,524.81V517c0.02-13.25,10.75-23.98,24-24h16c11.57,0.02,21.48,8.27,23.6,19.64
		C-328.04,521.14-357.8,524.1-375,524.81z M-327,589v8c0,4.42-3.58,8-8,8s-8-3.58-8-8v-8H-327z M-559,613
		c-3.98,0-7.36,2.93-7.92,6.87l-2.45,17.13H-619c-6.63-0.01-11.99-5.37-12-12V521c0.01-6.63,5.37-11.99,12-12h168
		c6.63,0.01,11.99,5.37,12,12v104c-0.01,6.63-5.37,11.99-12,12h-49.63l-2.45-17.13c-0.56-3.94-3.94-6.87-7.92-6.87H-559z
		 M-512.22,669h-45.56l5.72-40h34.12L-512.22,669z M-443.24,349.94c-2.35-1.25-5.17-1.25-7.52,0L-679,471.67V457.8l232-123.73
		l232,123.73v13.87L-443.24,349.94z"/>
</g>
</svg>
