<?xml version="1.0" encoding="utf-8"?>
<!-- Generator: Adobe Illustrator 24.2.0, SVG Export Plug-In . SVG Version: 6.00 Build 0)  -->
<svg version="1.1" id="Layer_1" xmlns="http://www.w3.org/2000/svg" xmlns:xlink="http://www.w3.org/1999/xlink" x="0px" y="0px"
	 viewBox="0 0 512 512" style="enable-background:new 0 0 512 512;" xml:space="preserve">
<style type="text/css">
	.st0{fill:#FFFFFF;}
	.st1{fill:none;stroke:#FFFFFF;stroke-width:10;stroke-linecap:round;stroke-linejoin:round;stroke-miterlimit:10;}
</style>
<g>
	<path class="st0" d="M68.8,260.3c-1,0-2-0.4-2.7-1.1l-55-52c-0.8-0.7-1.2-1.8-1.3-2.8c0-1.1,0.4-2.1,1.2-2.9L67.5,145
		c1.1-1.1,2.9-1.5,4.4-0.9c1.5,0.6,2.5,2.1,2.5,3.7v22.6h129.6c2.2,0,4,1.8,4,4s-1.8,4-4,4H70.3c-2.2,0-4-1.8-4-4v-16.9l-46.8,46.8
		l45.5,43l0.5-19.9c0.1-2.2,1.8-3.9,4-3.9h98.7c2.2,0,4,1.8,4,4s-1.8,4-4,4H73.5l-0.7,24.9c0,1.6-1,3-2.5,3.6
		C69.9,260.2,69.3,260.3,68.8,260.3z"/>
</g>
<g>
	<path class="st0" d="M449.6,350.9c-0.5,0-1-0.1-1.5-0.3c-1.5-0.6-2.5-2.1-2.5-3.7v-22.6H316.1c-2.2,0-4-1.8-4-4s1.8-4,4-4h133.6
		c2.2,0,4,1.8,4,4v16.9l46.8-46.8l-45.5-43l-0.5,19.9c-0.1,2.2-1.8,3.9-4,3.9h-98.7c-2.2,0-4-1.8-4-4c0-2.2,1.8-4,4-4h94.8l0.7-24.9
		c0-1.6,1-3,2.5-3.6c1.5-0.6,3.1-0.3,4.3,0.8l55,52c0.8,0.7,1.2,1.8,1.3,2.8c0,1.1-0.4,2.1-1.2,2.9l-56.5,56.5
		C451.7,350.5,450.7,350.9,449.6,350.9z"/>
</g>
<g>
	<path class="st0" d="M259.3,321c-40.7,0-73.8-33.1-73.8-73.8c0-40.7,33.1-73.8,73.8-73.8c40.7,0,73.8,33.1,73.8,73.8
		C333.1,287.9,300,321,259.3,321z M259.3,181.4c-36.3,0-65.8,29.5-65.8,65.8S223,313,259.3,313c36.3,0,65.8-29.5,65.8-65.8
		S295.6,181.4,259.3,181.4z"/>
</g>
<g>
	<g>
		<path class="st0" d="M254.7,299.6v-19.2c-3.9-0.6-7.1-1.9-9.4-3.6c-2.3-1.8-4.1-3.9-5.4-6.3h-7.1v-10.3h15v0.7l0.1-0.1
			c0,3.2,1.1,5.7,3.3,7.4s5.5,2.5,9.9,2.5c4,0,7.1-0.8,9.5-2.3c2.3-1.6,3.5-3.8,3.5-6.6c0-1.5-0.4-2.7-1.2-3.7s-1.8-1.8-2.9-2.5
			c-1.2-0.7-2.5-1.2-3.9-1.6s-2.8-0.8-4.1-1.1l-10.5-2.8c-2.3-0.6-4.4-1.4-6.3-2.4c-1.9-1-3.6-2.2-4.9-3.6c-1.4-1.4-2.4-3.1-3.2-5.1
			c-0.8-2-1.1-4.2-1.1-6.8c0-2.3,0.4-4.5,1.3-6.4c0.8-2,2.1-3.7,3.6-5.2c1.6-1.5,3.6-2.8,5.9-3.8c2.3-1,5-1.7,7.9-2.2v-20.4h11.8
			v20.4c3.4,0.6,6.3,1.7,8.8,3.2s4.5,3.4,6,5.6h6v10.3h-12.5l-1.4,0.2v-0.2h-0.1v-1.3c-0.4-2.6-1.7-4.7-3.9-6.3
			c-2.2-1.6-5.1-2.4-8.7-2.4c-4.3,0-7.7,0.7-9.9,2.1c-2.3,1.4-3.4,3.4-3.4,5.8c0,1.7,0.4,3,1.1,4c0.7,1,1.7,1.8,2.8,2.4
			c1.1,0.6,2.3,1.1,3.7,1.4s2.6,0.7,3.9,1l10.4,3.2c2.6,0.8,5,1.7,7.1,2.7c2.1,1,3.9,2.2,5.3,3.6s2.5,2.9,3.3,4.8
			c0.8,1.8,1.2,3.9,1.2,6.4c0,2.5-0.5,4.8-1.4,6.9c-0.9,2.1-2.3,4-4,5.7c-1.7,1.7-3.8,3.1-6.2,4.2s-5.1,2-8,2.5v19.2H254.7z"/>
	</g>
</g>
<g>
	<path class="st1" d="M168.2,246.4"/>
</g>
<path class="st0" d="M260.1,150.6c-52.8,0-95.8,43-95.8,95.8c0,52.8,43,95.8,95.8,95.8s95.8-43,95.8-95.8
	C355.9,193.6,312.9,150.6,260.1,150.6z M262.7,334.2v-6c0-2.2-1.8-4-4-4s-4,1.8-4,4v5.8c-44.6-2.7-80.3-38.9-82.3-83.7h6.3
	c2.2,0,4-1.8,4-4c0-2.2-1.8-4-4-4h-6.3c2-44.8,37.7-80.9,82.2-83.7v5.2c0,2.2,1.8,4,4,4s4-1.8,4-4v-5.3c46,1.3,83.2,38,85.3,83.8
	h-8.3c-2.2,0-4,1.8-4,4c0,2.2,1.8,4,4,4h8.3C345.7,296.2,308.6,332.9,262.7,334.2z"/>
<path class="st0" d="M201.1,72.9l-23-23v-20c0-2.2-1.8-4-4-4c-2.2,0-4,1.8-4,4v12L137.3,9.1c-1.6-1.6-4.1-1.6-5.6,0L66.4,74.4
	c-1.1,1.1-1.5,2.9-0.9,4.4c0.6,1.5,2.1,2.5,3.7,2.5h18.3v69.9c0,2.2,1.8,4,4,4h86c2.2,0,4-1.8,4-4V79.7h16.7c1.6,0,3.1-1,3.7-2.5
	C202.6,75.8,202.2,74,201.1,72.9z M177.5,71.7c-2.2,0-4,1.8-4,4v71.4h-78V77.2c0-2.2-1.8-4-4-4H78.9l55.6-55.6l54.1,54.1H177.5z"/>
<path class="st0" d="M459.3,405.7l-23-23v-20c0-2.2-1.8-4-4-4c-2.2,0-4,1.8-4,4v12L395.5,342c-1.6-1.6-4.1-1.6-5.6,0l-65.3,65.3
	c-1.1,1.1-1.5,2.9-0.9,4.4c0.6,1.5,2.1,2.5,3.7,2.5h18.3V484c0,2.2,1.8,4,4,4h86c2.2,0,4-1.8,4-4v-71.4h16.7c1.6,0,3.1-1,3.7-2.5
	C460.8,408.6,460.4,406.9,459.3,405.7z M435.7,404.6c-2.2,0-4,1.8-4,4V480h-78v-69.9c0-2.2-1.8-4-4-4h-12.6l55.6-55.6l54.1,54.1
	H435.7z"/>
</svg>
