<?xml version="1.0" encoding="utf-8"?>
<!-- Generator: Adobe Illustrator 24.2.0, SVG Export Plug-In . SVG Version: 6.00 Build 0)  -->
<svg version="1.1" id="Layer_1" xmlns="http://www.w3.org/2000/svg" xmlns:xlink="http://www.w3.org/1999/xlink" x="0px" y="0px"
	 viewBox="-703 285 512 512" style="enable-background:new -703 285 512 512;" xml:space="preserve">
<style type="text/css">
	.st0{fill:#FFFFFF;}
</style>
<g id="Page-1">
	<g id="_x30_17---Bills" transform="translate(0 -1)">
		<path id="Shape" class="st0" d="M-278.04,684.51c6.66,6.63,17.42,6.63,24.08,0l30.23-30.13c6.65-6.69,6.65-17.49,0-24.18
			l-35.53-35.58v-95.28c0-9.43-7.64-17.07-17.07-17.07H-319c-9.43,0-17.07,7.64-17.07,17.07v18.48l-27.24-27.24
			c34.62-33.99,45.25-85.55,26.89-130.46s-62.06-74.26-110.58-74.26s-92.22,29.35-110.58,74.26
			c-18.36,44.91-7.74,96.47,26.89,130.46l-139.61,139.6c-6.66,6.69-6.66,17.5,0,24.19l30.22,30.14c6.66,6.64,17.44,6.64,24.1,0
			l6.83-6.83v103.25h-34.11c-4.71,0-8.53,3.82-8.53,8.53s3.82,8.53,8.53,8.53h392.53c4.71,0,8.53-3.82,8.53-8.53
			s-3.82-8.53-8.53-8.53h-34.13V677.68L-278.04,684.51z M-319,499.33h42.67v78.22L-319,534.88V499.33z M-235.77,642.28l-30.18,30.13
			l-21.38-21.38l-0.09-0.07l-129.95-129.9c14.77-3.79,28.68-10.4,40.96-19.45L-235.77,642.28z M-549.4,405.47
			c0-56.55,45.85-102.4,102.4-102.4s102.4,45.85,102.4,102.4s-45.85,102.4-102.4,102.4C-503.53,507.81-549.34,462-549.4,405.47z
			 M-628.03,672.41l-30.2-30.17l140.62-140.62c12.28,9.05,26.18,15.65,40.96,19.45l-129.93,129.86l-0.16,0.16L-628.03,672.41z
			 M-481.13,780.93V746.8c0-18.85,15.28-34.13,34.13-34.13c18.85,0,34.13,15.28,34.13,34.13v34.13H-481.13z M-301.93,780.93h-93.87
			V746.8c0-28.28-22.92-51.2-51.2-51.2c-28.28,0-51.2,22.92-51.2,51.2v34.13h-93.87V660.61l136.17-136.13
			c2.95,0.22,5.9,0.45,8.9,0.45c3,0,5.97-0.23,8.9-0.45l136.17,136.13V780.93z"/>
		<path id="Shape_1_" class="st0" d="M-694.47,798h17.07c4.71,0,8.53-3.82,8.53-8.53s-3.82-8.53-8.53-8.53h-17.07
			c-4.71,0-8.53,3.82-8.53,8.53S-699.18,798-694.47,798z"/>
		<path id="Shape_2_" class="st0" d="M-216.6,798h17.07c4.71,0,8.53-3.82,8.53-8.53s-3.82-8.53-8.53-8.53h-17.07
			c-4.71,0-8.53,3.82-8.53,8.53S-221.31,798-216.6,798z"/>
		<path id="Shape_3_" class="st0" d="M-472.6,435.33c0-4.71-3.82-8.53-8.53-8.53s-8.53,3.82-8.53,8.53
			c0.82,19.13,15.18,34.95,34.13,37.62v0.78c0,4.71,3.82,8.53,8.53,8.53c4.71,0,8.53-3.82,8.53-8.53v-0.78
			c18.96-2.68,33.31-18.5,34.13-37.62c-0.82-19.13-15.18-34.95-34.13-37.62v-42.13c9.5,2.15,16.44,10.3,17.07,20.02
			c0,4.71,3.82,8.53,8.53,8.53c4.71,0,8.53-3.82,8.53-8.53c-0.82-19.13-15.18-34.95-34.13-37.62v-0.78c0-4.71-3.82-8.53-8.53-8.53
			c-4.71,0-8.53,3.82-8.53,8.53v0.78c-18.96,2.68-33.31,18.5-34.13,37.62c0.82,19.13,15.18,34.95,34.13,37.62v42.13
			C-465.03,453.2-471.98,445.05-472.6,435.33L-472.6,435.33z M-421.4,435.33c-0.62,9.72-7.57,17.86-17.07,20.02v-40.04
			C-428.97,417.47-422.02,425.62-421.4,435.33L-421.4,435.33z M-472.6,375.6c0.62-9.72,7.57-17.86,17.07-20.02v40.04
			C-465.03,393.46-471.98,385.32-472.6,375.6z"/>
		<path id="Shape_4_" class="st0" d="M-489.67,576.13c-4.71,0-8.53,3.82-8.53,8.53V670c0,4.71,3.82,8.53,8.53,8.53h85.33
			c4.71,0,8.53-3.82,8.53-8.53v-85.33c0-4.71-3.82-8.53-8.53-8.53H-489.67z M-412.87,618.8h-25.6v-25.6h25.6V618.8z M-455.53,593.2
			v25.6h-25.6v-25.6H-455.53z M-481.13,635.87h25.6v25.6h-25.6V635.87z M-438.47,661.47v-25.6h25.6v25.6H-438.47z"/>
		<circle id="Oval" class="st0" cx="-429.93" cy="755.33" r="8.53"/>
		<path id="Shape_5_" class="st0" d="M-626.2,405.47c0,4.71,3.82,8.53,8.53,8.53h25.6c4.71,0,8.53-3.82,8.53-8.53
			s-3.82-8.53-8.53-8.53h-25.6C-622.38,396.93-626.2,400.75-626.2,405.47z"/>
		<path id="Shape_6_" class="st0" d="M-310.47,405.47c0,4.71,3.82,8.53,8.53,8.53h25.6c4.71,0,8.53-3.82,8.53-8.53
			s-3.82-8.53-8.53-8.53h-25.6C-306.65,396.93-310.47,400.75-310.47,405.47z"/>
		<path id="Shape_7_" class="st0" d="M-576.9,470.61l-22.19,12.8c-2.66,1.51-4.31,4.34-4.32,7.4s1.63,5.89,4.28,7.42
			c2.66,1.53,5.92,1.51,8.57-0.04l22.19-12.8c2.66-1.51,4.31-4.34,4.32-7.4c0.01-3.06-1.63-5.89-4.28-7.42
			C-570.99,469.05-574.26,469.06-576.9,470.61z"/>
		<path id="Shape_8_" class="st0" d="M-303.47,312.74l-22.19,12.8c-2.66,1.51-4.31,4.34-4.32,7.4c-0.01,3.06,1.63,5.89,4.28,7.42
			c2.66,1.53,5.92,1.51,8.57-0.04l22.19-12.8c2.66-1.51,4.31-4.34,4.32-7.4c0.01-3.06-1.63-5.89-4.28-7.42
			C-297.56,311.18-300.83,311.19-303.47,312.74z"/>
		<path id="Shape_9_" class="st0" d="M-568.37,325.54l-22.19-12.8c-2.64-1.55-5.91-1.56-8.57-0.04c-2.66,1.53-4.29,4.36-4.28,7.42
			c0.01,3.06,1.65,5.89,4.32,7.4l22.19,12.8c2.64,1.55,5.91,1.56,8.57,0.04c2.66-1.53,4.29-4.36,4.28-7.42
			C-564.06,329.88-565.71,327.06-568.37,325.54z"/>
	</g>
</g>
</svg>
