<?xml version="1.0" encoding="utf-8"?>
<!-- Generator: Adobe Illustrator 24.2.0, SVG Export Plug-In . SVG Version: 6.00 Build 0)  -->
<svg version="1.1" id="Layer_1" xmlns="http://www.w3.org/2000/svg" xmlns:xlink="http://www.w3.org/1999/xlink" x="0px" y="0px"
	 viewBox="-703 285 512 512" style="enable-background:new -703 285 512 512;" xml:space="preserve">
<style type="text/css">
	.st0{fill:#FFFFFF;}
</style>
<path class="st0" d="M-653.35,553.08c0.74,0,1.45-0.23,2.05-0.67l101.51-74.44l101.51,74.44c0.59,0.44,1.31,0.67,2.04,0.67
	c0.54,0,1.08-0.13,1.56-0.37c1.16-0.59,1.89-1.78,1.89-3.08v-20.71c0-1.1-0.52-2.13-1.41-2.78l-103.55-75.94
	c-1.21-0.89-2.87-0.89-4.08,0l-103.55,75.94c-0.89,0.65-1.41,1.68-1.41,2.78v20.71C-656.8,551.53-655.25,553.08-653.35,553.08z
	 M-649.89,530.66l100.1-73.4l100.1,73.4v12.15l-98.06-71.91c-1.21-0.89-2.87-0.89-4.08,0l-98.06,71.91V530.66z"/>
<path class="st0" d="M-445.98,553.08c0.74,0,1.45-0.23,2.05-0.67l101.51-74.44l101.51,74.44c0.59,0.44,1.31,0.67,2.04,0.67
	c0.54,0,1.08-0.13,1.56-0.37c1.16-0.59,1.89-1.78,1.89-3.08v-20.71c0-1.1-0.52-2.13-1.41-2.78l-103.55-75.94
	c-1.21-0.89-2.87-0.89-4.08,0l-103.55,75.94c-0.89,0.65-1.41,1.68-1.41,2.78v20.71C-449.42,551.53-447.88,553.08-445.98,553.08z
	 M-442.52,530.66l100.1-73.4l100.1,73.4v12.15l-98.06-71.91c-1.21-0.89-2.87-0.89-4.08,0l-98.06,71.91V530.66z"/>
<path class="st0" d="M-396.34,493.52c2.16-1.21,4.22-2.55,6.16-4.04l-53.57-39.28c-1.21-0.89-2.87-0.89-4.08,0l-51.63,37.86
	c2.12,1.22,4.15,2.6,6.1,4.08l47.57-34.89L-396.34,493.52z"/>
<path class="st0" d="M-406.51,498.22l-37.25-27.31c-1.21-0.89-2.87-0.89-4.08,0l-37.9,27.79c1.69,1.6,3.36,3.24,5,4.89l34.94-25.62
	l31.36,23C-411.8,500.13-409.14,499.23-406.51,498.22z"/>
<path class="st0" d="M-238.87,625.57h-17.26v-91.71h-6.9v91.71h-158.77v-91.71h-6.9v91.71h-17.26c-1.91,0-3.45,1.55-3.45,3.45
	c0,1.91,1.55,3.45,3.45,3.45h207.1c1.91,0,3.45-1.55,3.45-3.45C-235.42,627.12-236.97,625.57-238.87,625.57z"/>
<path class="st0" d="M-446.08,625.57h-17.26v-91.71h-6.9v91.71h-158.77v-91.71h-6.9v91.71h-17.26c-1.91,0-3.45,1.55-3.45,3.45
	c0,1.91,1.55,3.45,3.45,3.45h207.1c1.91,0,3.45-1.55,3.45-3.45C-442.63,627.12-444.18,625.57-446.08,625.57z"/>
</svg>
