<?xml version="1.0" encoding="utf-8"?>
<!-- Generator: Adobe Illustrator 24.2.0, SVG Export Plug-In . SVG Version: 6.00 Build 0)  -->
<svg version="1.1" id="Layer_1" xmlns="http://www.w3.org/2000/svg" xmlns:xlink="http://www.w3.org/1999/xlink" x="0px" y="0px"
	 viewBox="-703 285 512 512" style="enable-background:new -703 285 512 512;" xml:space="preserve">
<style type="text/css">
	.st0{fill:#FFFFFF;}
</style>
<path class="st0" d="M-448.84,520.84c-17.09,0-30.94,13.85-30.94,30.94s13.85,30.94,30.94,30.94c17.09,0,30.94-13.85,30.94-30.94
	C-417.91,534.7-431.76,520.86-448.84,520.84z M-431.41,545.59h-11.24v-11.24C-437.41,536.23-433.28,540.35-431.41,545.59z
	 M-455.03,534.36v11.24h-11.24C-464.39,540.35-460.27,536.23-455.03,534.36z M-466.27,557.97h11.24v11.24
	C-460.27,567.34-464.39,563.21-466.27,557.97z M-442.65,569.21v-11.24h11.24C-433.28,563.21-437.41,567.34-442.65,569.21z"/>
<path class="st0" d="M-329.52,576.35c1.46,0.02,2.91-0.15,4.33-0.5c5.33-1.29,9.81-4.87,12.25-9.78l1.11-2.17
	c4.07-8.12,1.66-17.99-5.69-23.33l-13.74-9.96v-48.03c9.64-3.5,14.62-14.15,11.12-23.79c-2.65-7.29-9.55-12.17-17.31-12.23h-37.13
	c-10.24,0.03-18.54,8.33-18.57,18.57c0,7.82,4.94,14.79,12.32,17.39v12.07l-57.12-41.53c-6.48-4.76-15.3-4.76-21.79,0l-120.44,87.51
	c-7.35,5.34-9.76,15.21-5.69,23.33l1.11,2.17c2.44,4.91,6.93,8.49,12.25,9.78c1.99,0.44,4.04,0.55,6.07,0.31v124.15
	c-10.25,0-18.57,8.31-18.57,18.57c0,10.25,8.31,18.57,18.57,18.57h235.18c10.25,0,18.57-8.31,18.57-18.57
	c0-10.25-8.31-18.57-18.57-18.57V576.23C-330.67,576.3-330.1,576.35-329.52,576.35z M-374.57,458.95h37.13
	c3.42,0,6.19,2.77,6.19,6.19s-2.77,6.19-6.19,6.19h-37.13c-3.42,0-6.19-2.77-6.19-6.19S-377.99,458.95-374.57,458.95z
	 M-343.63,483.71v37.94l-24.82-18.07v-19.87H-343.63z M-325.06,718.89c0,3.42-2.77,6.19-6.19,6.19h-235.18
	c-3.42,0-6.19-2.77-6.19-6.19c0-3.42,2.77-6.19,6.19-6.19h235.18C-327.83,712.7-325.06,715.47-325.06,718.89z M-362.19,601.3h-99.02
	c-3.42,0-6.19,2.77-6.19,6.19v92.83h-12.38v-68.08c0-17.09-13.85-30.94-30.94-30.94c-17.09,0-30.94,13.85-30.94,30.94v68.08h-12.38
	V570.47l101.5-75.44c2.21-1.61,5.21-1.61,7.43,0l101.5,75.44v129.84H-356v-92.83C-356,604.07-358.78,601.3-362.19,601.3z
	 M-455.03,700.32v-86.65h86.65v86.65H-455.03z M-492.16,632.24v68.08h-37.13v-68.08c0-10.25,8.31-18.57,18.57-18.57
	S-492.16,621.99-492.16,632.24z M-333.23,562.74l-104.53-77.61c-6.56-4.95-15.6-4.95-22.16,0l-104.53,77.61
	c-1.45,1.15-3.35,1.54-5.14,1.05c-1.78-0.4-3.28-1.58-4.08-3.22l-1.11-2.17c-1.36-2.72-0.55-6.02,1.92-7.8l120.38-87.57
	c2.19-1.55,5.11-1.55,7.3,0l120.38,87.57c2.47,1.78,3.28,5.08,1.92,7.8l-1.11,2.17c-0.81,1.63-2.31,2.82-4.08,3.22
	C-329.87,564.28-331.78,563.89-333.23,562.74z"/>
<path class="st0" d="M-525.91,418.88c-10.66,0-19.34-8.68-19.34-19.34s8.68-19.34,19.34-19.34c10.66,0,19.34,8.68,19.34,19.34
	S-515.24,418.88-525.91,418.88z M-525.91,392.58c-3.84,0-6.96,3.12-6.96,6.96c0,3.84,3.12,6.96,6.96,6.96
	c3.84,0,6.96-3.12,6.96-6.96C-518.95,395.7-522.07,392.58-525.91,392.58z"/>
<g>
	<path class="st0" d="M-548.85,382.78c-1.58,0-3.17-0.6-4.38-1.81l-16.79-16.79c-2.42-2.42-2.42-6.34,0-8.75
		c2.42-2.42,6.34-2.42,8.75,0l16.79,16.79c2.42,2.42,2.42,6.34,0,8.75C-545.69,382.18-547.27,382.78-548.85,382.78z"/>
	<path class="st0" d="M-486.17,445.46c-1.58,0-3.17-0.6-4.38-1.81l-16.79-16.79c-2.42-2.42-2.42-6.34,0-8.75
		c2.42-2.42,6.34-2.42,8.75,0l16.79,16.79c2.42,2.42,2.42,6.34,0,8.75C-483.01,444.86-484.59,445.46-486.17,445.46z"/>
</g>
<g>
	<path class="st0" d="M-565.64,445.46c-1.58,0-3.17-0.6-4.38-1.81c-2.42-2.42-2.42-6.34,0-8.75l16.79-16.79
		c2.42-2.42,6.34-2.42,8.75,0c2.42,2.42,2.42,6.34,0,8.75l-16.79,16.79C-562.48,444.86-564.06,445.46-565.64,445.46z"/>
	<path class="st0" d="M-502.96,382.78c-1.58,0-3.17-0.6-4.38-1.81c-2.42-2.42-2.42-6.34,0-8.75l16.79-16.79
		c2.42-2.42,6.34-2.42,8.75,0c2.42,2.42,2.42,6.34,0,8.75l-16.79,16.79C-499.8,382.18-501.38,382.78-502.96,382.78z"/>
</g>
<path class="st0" d="M-626.87,579.79c-10.66,0-19.34-8.68-19.34-19.34c0-10.66,8.68-19.34,19.34-19.34
	c10.66,0,19.34,8.68,19.34,19.34C-607.53,571.12-616.2,579.79-626.87,579.79z M-626.87,553.49c-3.84,0-6.96,3.12-6.96,6.96
	c0,3.84,3.12,6.96,6.96,6.96c3.84,0,6.96-3.12,6.96-6.96C-619.9,556.61-623.03,553.49-626.87,553.49z"/>
<g>
	<path class="st0" d="M-649.81,543.7c-1.58,0-3.17-0.6-4.38-1.81l-16.79-16.79c-2.42-2.42-2.42-6.34,0-8.75
		c2.42-2.42,6.34-2.42,8.75,0l16.79,16.79c2.42,2.42,2.42,6.34,0,8.75C-646.64,543.09-648.23,543.7-649.81,543.7z"/>
	<path class="st0" d="M-587.13,606.38c-1.58,0-3.17-0.6-4.38-1.81l-16.79-16.79c-2.42-2.42-2.42-6.34,0-8.75
		c2.42-2.42,6.34-2.42,8.75,0l16.79,16.79c2.42,2.42,2.42,6.34,0,8.75C-583.96,605.77-585.55,606.38-587.13,606.38z"/>
</g>
<g>
	<path class="st0" d="M-666.6,606.38c-1.58,0-3.17-0.6-4.38-1.81c-2.42-2.42-2.42-6.34,0-8.75l16.79-16.79
		c2.42-2.42,6.34-2.42,8.75,0c2.42,2.42,2.42,6.34,0,8.75l-16.79,16.79C-663.43,605.77-665.02,606.38-666.6,606.38z"/>
	<path class="st0" d="M-603.92,543.7c-1.58,0-3.17-0.6-4.38-1.81c-2.42-2.42-2.42-6.34,0-8.75l16.79-16.79
		c2.42-2.42,6.34-2.42,8.75,0c2.42,2.42,2.42,6.34,0,8.75l-16.79,16.79C-600.75,543.09-602.34,543.7-603.92,543.7z"/>
</g>
<path class="st0" d="M-267.13,508.62c-10.66,0-19.34-8.68-19.34-19.34c0-10.66,8.68-19.34,19.34-19.34s19.34,8.68,19.34,19.34
	C-247.79,499.94-256.47,508.62-267.13,508.62z M-267.13,482.32c-3.84,0-6.96,3.12-6.96,6.96c0,3.84,3.12,6.96,6.96,6.96
	s6.96-3.12,6.96-6.96C-260.17,485.44-263.29,482.32-267.13,482.32z"/>
<g>
	<path class="st0" d="M-290.08,472.52c-1.58,0-3.17-0.6-4.38-1.81l-16.79-16.79c-2.42-2.42-2.42-6.34,0-8.75
		c2.42-2.42,6.34-2.42,8.75,0l16.79,16.79c2.42,2.42,2.42,6.34,0,8.75C-286.91,471.92-288.49,472.52-290.08,472.52z"/>
	<path class="st0" d="M-227.4,535.2c-1.58,0-3.17-0.6-4.38-1.81l-16.79-16.79c-2.42-2.42-2.42-6.34,0-8.75
		c2.42-2.42,6.34-2.42,8.75,0l16.79,16.79c2.42,2.42,2.42,6.34,0,8.75C-224.23,534.6-225.81,535.2-227.4,535.2z"/>
</g>
<g>
	<path class="st0" d="M-306.87,535.2c-1.58,0-3.17-0.6-4.38-1.81c-2.42-2.42-2.42-6.34,0-8.75l16.79-16.79
		c2.42-2.42,6.34-2.42,8.75,0c2.42,2.42,2.42,6.34,0,8.75l-16.79,16.79C-303.7,534.6-305.28,535.2-306.87,535.2z"/>
	<path class="st0" d="M-244.19,472.52c-1.58,0-3.17-0.6-4.38-1.81c-2.42-2.42-2.42-6.34,0-8.75l16.79-16.79
		c2.42-2.42,6.34-2.42,8.75,0c2.42,2.42,2.42,6.34,0,8.75l-16.79,16.79C-241.02,471.92-242.6,472.52-244.19,472.52z"/>
</g>
</svg>
